%TF.GenerationSoftware,Altium Limited,Altium Designer,24.6.1 (21)*%
G04 Layer_Physical_Order=2*
G04 Layer_Color=16711680*
%FSLAX45Y45*%
%MOMM*%
%TF.SameCoordinates,C5CCA8AA-8E71-476F-B662-92032E94D40D*%
%TF.FilePolarity,Positive*%
%TF.FileFunction,Copper,L2,Bot,Signal*%
%TF.Part,Single*%
G01*
G75*
%TA.AperFunction,Conductor*%
%ADD28C,0.25400*%
%ADD30C,1.00000*%
%ADD31C,0.50000*%
%TA.AperFunction,ComponentPad*%
%ADD33C,1.50000*%
%ADD34C,2.00000*%
G04:AMPARAMS|DCode=35|XSize=2mm|YSize=2mm|CornerRadius=0.5mm|HoleSize=0mm|Usage=FLASHONLY|Rotation=180.000|XOffset=0mm|YOffset=0mm|HoleType=Round|Shape=RoundedRectangle|*
%AMROUNDEDRECTD35*
21,1,2.00000,1.00000,0,0,180.0*
21,1,1.00000,2.00000,0,0,180.0*
1,1,1.00000,-0.50000,0.50000*
1,1,1.00000,0.50000,0.50000*
1,1,1.00000,0.50000,-0.50000*
1,1,1.00000,-0.50000,-0.50000*
%
%ADD35ROUNDEDRECTD35*%
%ADD36O,2.00000X1.35800*%
%TA.AperFunction,ViaPad*%
%ADD37C,4.20000*%
%TA.AperFunction,ComponentPad*%
%ADD38O,3.00000X2.00000*%
%ADD39C,2.10000*%
%ADD40C,2.60000*%
G04:AMPARAMS|DCode=41|XSize=2.6mm|YSize=2.6mm|CornerRadius=0.65mm|HoleSize=0mm|Usage=FLASHONLY|Rotation=270.000|XOffset=0mm|YOffset=0mm|HoleType=Round|Shape=RoundedRectangle|*
%AMROUNDEDRECTD41*
21,1,2.60000,1.30000,0,0,270.0*
21,1,1.30000,2.60000,0,0,270.0*
1,1,1.30000,-0.65000,-0.65000*
1,1,1.30000,-0.65000,0.65000*
1,1,1.30000,0.65000,0.65000*
1,1,1.30000,0.65000,-0.65000*
%
%ADD41ROUNDEDRECTD41*%
G04:AMPARAMS|DCode=42|XSize=2.1mm|YSize=2.1mm|CornerRadius=0.525mm|HoleSize=0mm|Usage=FLASHONLY|Rotation=90.000|XOffset=0mm|YOffset=0mm|HoleType=Round|Shape=RoundedRectangle|*
%AMROUNDEDRECTD42*
21,1,2.10000,1.05000,0,0,90.0*
21,1,1.05000,2.10000,0,0,90.0*
1,1,1.05000,0.52500,0.52500*
1,1,1.05000,0.52500,-0.52500*
1,1,1.05000,-0.52500,-0.52500*
1,1,1.05000,-0.52500,0.52500*
%
%ADD42ROUNDEDRECTD42*%
%TA.AperFunction,ViaPad*%
%ADD43C,0.60000*%
%ADD44C,1.00000*%
G36*
X9359900Y13893800D02*
X9384917D01*
X9433989Y13884039D01*
X9480214Y13864891D01*
X9521815Y13837094D01*
X9557194Y13801715D01*
X9584991Y13760114D01*
X9604139Y13713889D01*
X9613900Y13664816D01*
Y13639799D01*
X9613900D01*
X9613900Y9423400D01*
Y9398383D01*
X9604139Y9349311D01*
X9584991Y9303086D01*
X9557194Y9261484D01*
X9521815Y9226105D01*
X9480214Y9198308D01*
X9433989Y9179161D01*
X9384917Y9169400D01*
X9359900D01*
Y9169400D01*
X8223787D01*
X8221154Y9189400D01*
X8223924Y9190142D01*
X8246818Y9203360D01*
X8265511Y9222053D01*
X8278729Y9244947D01*
X8285571Y9270482D01*
Y9271000D01*
X8084771D01*
Y9270482D01*
X8091613Y9244947D01*
X8104831Y9222053D01*
X8123524Y9203360D01*
X8146418Y9190142D01*
X8149187Y9189400D01*
X8146554Y9169400D01*
X7110878D01*
X7108245Y9189400D01*
X7113253Y9190742D01*
X7136147Y9203960D01*
X7154840Y9222653D01*
X7168058Y9245547D01*
X7174900Y9271082D01*
Y9271600D01*
X6974100D01*
Y9271082D01*
X6980942Y9245547D01*
X6994160Y9222653D01*
X7012853Y9203960D01*
X7035747Y9190742D01*
X7040755Y9189400D01*
X7038122Y9169400D01*
X6045717Y9169400D01*
X6043084Y9189400D01*
X6045853Y9190142D01*
X6068747Y9203360D01*
X6087440Y9222053D01*
X6100658Y9244947D01*
X6107500Y9270482D01*
Y9271000D01*
X5906700D01*
Y9270482D01*
X5913542Y9244947D01*
X5926760Y9222053D01*
X5945453Y9203360D01*
X5968347Y9190142D01*
X5971116Y9189400D01*
X5968483Y9169400D01*
X4966217D01*
X4963584Y9189400D01*
X4966353Y9190142D01*
X4989247Y9203360D01*
X5007940Y9222053D01*
X5021158Y9244947D01*
X5028000Y9270482D01*
Y9271000D01*
X4827200D01*
Y9270482D01*
X4834042Y9244947D01*
X4847260Y9222053D01*
X4865953Y9203360D01*
X4888847Y9190142D01*
X4891616Y9189400D01*
X4888983Y9169400D01*
X4203700D01*
X4178683D01*
X4129611Y9179161D01*
X4083386Y9198308D01*
X4041784Y9226105D01*
X4006405Y9261484D01*
X3978608Y9303086D01*
X3959461Y9349311D01*
X3949700Y9398383D01*
Y9423400D01*
X3949700D01*
X3949699Y13639799D01*
Y13664816D01*
X3959460Y13713889D01*
X3978607Y13760114D01*
X4006405Y13801715D01*
X4041784Y13837096D01*
X4083386Y13864893D01*
X4129610Y13884039D01*
X4178683Y13893800D01*
X4203700Y13893799D01*
X4203700Y13893800D01*
X9359900Y13893800D01*
D02*
G37*
%LPC*%
G36*
X9381834Y13849800D02*
X9337966D01*
X9294941Y13841241D01*
X9254412Y13824454D01*
X9217937Y13800082D01*
X9186918Y13769063D01*
X9162546Y13732588D01*
X9145758Y13692059D01*
X9137200Y13649034D01*
Y13605167D01*
X9145758Y13562141D01*
X9162546Y13521613D01*
X9186918Y13485136D01*
X9217937Y13454118D01*
X9254412Y13429745D01*
X9294941Y13412958D01*
X9337966Y13404401D01*
X9381834D01*
X9424859Y13412958D01*
X9465388Y13429745D01*
X9501863Y13454118D01*
X9532882Y13485136D01*
X9557254Y13521613D01*
X9574042Y13562141D01*
X9582600Y13605167D01*
Y13649034D01*
X9574042Y13692059D01*
X9557254Y13732588D01*
X9532882Y13769063D01*
X9501863Y13800082D01*
X9465388Y13824454D01*
X9424859Y13841241D01*
X9381834Y13849800D01*
D02*
G37*
G36*
X4238334D02*
X4194466D01*
X4151441Y13841241D01*
X4110912Y13824454D01*
X4074437Y13800082D01*
X4043418Y13769063D01*
X4019046Y13732588D01*
X4002258Y13692059D01*
X3993700Y13649034D01*
Y13605167D01*
X4002258Y13562141D01*
X4019046Y13521613D01*
X4043418Y13485136D01*
X4074437Y13454118D01*
X4110912Y13429745D01*
X4151441Y13412958D01*
X4194466Y13404401D01*
X4238334D01*
X4281359Y13412958D01*
X4321888Y13429745D01*
X4358363Y13454118D01*
X4389382Y13485136D01*
X4413754Y13521613D01*
X4430542Y13562141D01*
X4439100Y13605167D01*
Y13649034D01*
X4430542Y13692059D01*
X4413754Y13732588D01*
X4389382Y13769063D01*
X4358363Y13800082D01*
X4321888Y13824454D01*
X4281359Y13841241D01*
X4238334Y13849800D01*
D02*
G37*
G36*
X4358896Y13224100D02*
X4327904D01*
X4297970Y13216080D01*
X4271130Y13200583D01*
X4249217Y13178670D01*
X4244401Y13170328D01*
X4178300D01*
X4153836Y13165462D01*
X4133096Y13151604D01*
X4056896Y13075404D01*
X4043038Y13054665D01*
X4038172Y13030200D01*
Y12623800D01*
X4043038Y12599336D01*
X4056896Y12578596D01*
X4171196Y12464296D01*
X4191936Y12450438D01*
X4216400Y12445572D01*
X4216402Y12445572D01*
X4878498D01*
X4943259Y12380810D01*
X4948495Y12377312D01*
X4952947Y12372860D01*
X4958763Y12370451D01*
X4963999Y12366952D01*
X4970175Y12365724D01*
X4975992Y12363314D01*
X4982288D01*
X4988463Y12362086D01*
X4994639Y12363314D01*
X5000935D01*
X5006752Y12365724D01*
X5012928Y12366952D01*
X5018164Y12370451D01*
X5023980Y12372860D01*
X5028432Y12377312D01*
X5033668Y12380810D01*
X5037166Y12386046D01*
X5041618Y12390498D01*
X5044027Y12396314D01*
X5047526Y12401550D01*
X5048754Y12407726D01*
X5051163Y12413542D01*
Y12419839D01*
X5052392Y12426014D01*
X5051163Y12432190D01*
Y12438486D01*
X5048754Y12444303D01*
X5047526Y12450479D01*
X5044027Y12455715D01*
X5041618Y12461531D01*
X5037166Y12465982D01*
X5033668Y12471218D01*
X4950182Y12554704D01*
X4929442Y12568562D01*
X4904978Y12573428D01*
X4242880D01*
X4166028Y12650280D01*
Y13003720D01*
X4204780Y13042471D01*
X4244401D01*
X4249217Y13034129D01*
X4271130Y13012218D01*
X4297970Y12996721D01*
X4327904Y12988699D01*
X4358896D01*
X4388830Y12996721D01*
X4415670Y13012218D01*
X4437583Y13034129D01*
X4453079Y13060970D01*
X4461100Y13090904D01*
Y13121896D01*
X4453079Y13151830D01*
X4437583Y13178670D01*
X4415670Y13200583D01*
X4388830Y13216080D01*
X4358896Y13224100D01*
D02*
G37*
G36*
X8025600Y13258173D02*
X7925600D01*
X7896180Y13254298D01*
X7868764Y13242943D01*
X7845222Y13224879D01*
X7827157Y13201337D01*
X7815801Y13173921D01*
X7811927Y13144501D01*
X7815801Y13115079D01*
X7827157Y13087663D01*
X7845222Y13064120D01*
X7868764Y13046057D01*
X7891452Y13036659D01*
X7892575Y13020763D01*
X7892421Y13019884D01*
X7891459Y13016090D01*
X7862359Y13004037D01*
X7836164Y12983936D01*
X7816063Y12957741D01*
X7810579Y12944501D01*
X7975600D01*
X8140621D01*
X8135137Y12957741D01*
X8115036Y12983936D01*
X8088841Y13004037D01*
X8059741Y13016090D01*
X8058779Y13019884D01*
X8058625Y13020763D01*
X8059748Y13036659D01*
X8082436Y13046057D01*
X8105978Y13064120D01*
X8124043Y13087663D01*
X8135399Y13115079D01*
X8139273Y13144501D01*
X8135399Y13173921D01*
X8124043Y13201337D01*
X8105978Y13224879D01*
X8082436Y13242943D01*
X8055020Y13254298D01*
X8025600Y13258173D01*
D02*
G37*
G36*
X8140621Y12844501D02*
X8025600D01*
Y12768018D01*
X8058336Y12772328D01*
X8088841Y12784963D01*
X8115036Y12805064D01*
X8135137Y12831259D01*
X8140621Y12844501D01*
D02*
G37*
G36*
X7925600D02*
X7810579D01*
X7816063Y12831259D01*
X7836164Y12805064D01*
X7862359Y12784963D01*
X7892864Y12772328D01*
X7925600Y12768018D01*
D01*
Y12844501D01*
D02*
G37*
G36*
X5543900Y12692395D02*
X5479700D01*
X5458659Y12689625D01*
X5439052Y12681504D01*
X5422215Y12668585D01*
X5409296Y12651748D01*
X5401175Y12632141D01*
X5398404Y12611100D01*
X5401175Y12590059D01*
X5409296Y12570452D01*
X5422215Y12553615D01*
X5439052Y12540696D01*
X5458659Y12532575D01*
X5479700Y12529805D01*
X5543900D01*
X5564941Y12532575D01*
X5584548Y12540696D01*
X5601385Y12553615D01*
X5614304Y12570452D01*
X5622425Y12590059D01*
X5625196Y12611100D01*
X5622425Y12632141D01*
X5614304Y12651748D01*
X5601385Y12668585D01*
X5584548Y12681504D01*
X5564941Y12689625D01*
X5543900Y12692395D01*
D02*
G37*
G36*
Y12438395D02*
X5479700D01*
X5458659Y12435625D01*
X5439052Y12427504D01*
X5422215Y12414585D01*
X5409296Y12397748D01*
X5401175Y12378141D01*
X5398404Y12357100D01*
X5401175Y12336059D01*
X5409296Y12316452D01*
X5422215Y12299615D01*
X5439052Y12286696D01*
X5458659Y12278575D01*
X5479700Y12275805D01*
X5543900D01*
X5564941Y12278575D01*
X5584548Y12286696D01*
X5601385Y12299615D01*
X5614304Y12316452D01*
X5622425Y12336059D01*
X5625196Y12357100D01*
X5622425Y12378141D01*
X5614304Y12397748D01*
X5601385Y12414585D01*
X5584548Y12427504D01*
X5564941Y12435625D01*
X5543900Y12438395D01*
D02*
G37*
G36*
X9467197Y12385906D02*
X9436206D01*
X9406271Y12377885D01*
X9379432Y12362390D01*
X9357518Y12340476D01*
X9342023Y12313637D01*
X9334002Y12283702D01*
Y12252711D01*
X9342023Y12222776D01*
X9357518Y12195936D01*
X9379432Y12174023D01*
X9406271Y12158527D01*
X9436206Y12150506D01*
X9467197D01*
X9497132Y12158527D01*
X9523971Y12174023D01*
X9545885Y12195936D01*
X9561381Y12222776D01*
X9569402Y12252711D01*
Y12283702D01*
X9561381Y12313637D01*
X9545885Y12340476D01*
X9523971Y12362390D01*
X9497132Y12377885D01*
X9467197Y12385906D01*
D02*
G37*
G36*
X5748722Y12095206D02*
X5608926D01*
X5602750Y12093978D01*
X5596454D01*
X5590637Y12091568D01*
X5584461Y12090340D01*
X5579225Y12086841D01*
X5573409Y12084432D01*
X5568957Y12079981D01*
X5563721Y12076482D01*
X5560223Y12071246D01*
X5555771Y12066795D01*
X5553362Y12060978D01*
X5549863Y12055742D01*
X5548635Y12049566D01*
X5546226Y12043750D01*
Y12037453D01*
X5544997Y12031278D01*
X5546226Y12025102D01*
Y12018806D01*
X5548635Y12012989D01*
X5549863Y12006814D01*
X5553362Y12001578D01*
X5555771Y11995761D01*
X5560223Y11991310D01*
X5563721Y11986074D01*
X5568957Y11982575D01*
X5573409Y11978124D01*
X5579225Y11975714D01*
X5584461Y11972216D01*
X5590637Y11970987D01*
X5596454Y11968578D01*
X5602750D01*
X5608926Y11967350D01*
X5722242D01*
X5898396Y11791196D01*
X5919136Y11777338D01*
X5943600Y11772472D01*
X6234620D01*
X6535155Y11471936D01*
Y11097723D01*
X6535117Y11097529D01*
Y11030042D01*
X6539983Y11005578D01*
X6553841Y10984838D01*
X6946472Y10592207D01*
Y10533342D01*
X6925956Y10512827D01*
X6064234D01*
X5418121Y11158939D01*
Y11172175D01*
X5420470Y11177844D01*
Y11194831D01*
X5413969Y11210525D01*
X5401957Y11222537D01*
X5386263Y11229038D01*
X5369276D01*
X5353582Y11222537D01*
X5341571Y11210525D01*
X5335070Y11194831D01*
Y11177844D01*
X5341244Y11162938D01*
Y11143018D01*
X5341244Y11143017D01*
X5344170Y11128307D01*
X5352503Y11115837D01*
X6021132Y10447208D01*
X6033602Y10438875D01*
X6048312Y10435949D01*
X6048313Y10435949D01*
X6920361D01*
X6946472Y10409839D01*
Y10304026D01*
X6941200Y10300982D01*
X6920218Y10280000D01*
X6905380Y10254301D01*
X6897700Y10225637D01*
Y10195963D01*
X6905380Y10167299D01*
X6920218Y10141600D01*
X6941200Y10120618D01*
X6946472Y10117574D01*
Y9921812D01*
X6854887Y9830228D01*
X6350339D01*
Y9988819D01*
X6354600Y9999106D01*
Y10016094D01*
X6348099Y10031787D01*
X6336087Y10043799D01*
X6320394Y10050300D01*
X6303406D01*
X6287713Y10043799D01*
X6275701Y10031787D01*
X6269200Y10016094D01*
Y9999106D01*
X6273461Y9988819D01*
Y9830228D01*
X5516089D01*
X5491624Y9825362D01*
X5470884Y9811504D01*
X5466364Y9804739D01*
X5187681D01*
X5177394Y9809000D01*
X5160406D01*
X5144713Y9802499D01*
X5132701Y9790487D01*
X5126200Y9774794D01*
Y9757806D01*
X5132701Y9742113D01*
X5144713Y9730101D01*
X5160406Y9723600D01*
X5177394D01*
X5187681Y9727861D01*
X5466364D01*
X5470884Y9721096D01*
X5491624Y9707238D01*
X5516089Y9702372D01*
X7289800D01*
X7314264Y9707238D01*
X7335004Y9721096D01*
X7348862Y9741836D01*
X7353728Y9766300D01*
X7348862Y9790764D01*
X7335004Y9811504D01*
X7314264Y9825362D01*
X7289800Y9830228D01*
X7144025D01*
X7074328Y9920743D01*
Y10117574D01*
X7079600Y10120618D01*
X7100582Y10141600D01*
X7115420Y10167299D01*
X7118349Y10178232D01*
X7138349Y10175599D01*
Y10160800D01*
X7140941Y10141116D01*
X7148538Y10122775D01*
X7160624Y10107024D01*
X7176375Y10094938D01*
X7194716Y10087341D01*
X7214400Y10084749D01*
X7251700D01*
Y10210800D01*
Y10336851D01*
X7214400D01*
X7194716Y10334259D01*
X7176375Y10326662D01*
X7160624Y10314576D01*
X7148538Y10298825D01*
X7140941Y10280484D01*
X7138349Y10260800D01*
Y10246001D01*
X7118349Y10243368D01*
X7115420Y10254301D01*
X7100582Y10280000D01*
X7079600Y10300982D01*
X7074328Y10304026D01*
Y10388600D01*
Y10469802D01*
Y10618687D01*
X7069462Y10643151D01*
X7055604Y10663891D01*
X6662973Y11056522D01*
Y11097374D01*
X6663012Y11097568D01*
Y11498416D01*
X6658146Y11522881D01*
X6644288Y11543621D01*
X6361886Y11826023D01*
X6363105Y11830510D01*
X6371693Y11844500D01*
X6383894D01*
X6399587Y11851001D01*
X6411599Y11863013D01*
X6418100Y11878706D01*
Y11893275D01*
X6432981Y11908156D01*
X7210017D01*
X7220319Y11897855D01*
X7236013Y11891354D01*
X7253000D01*
X7268694Y11897855D01*
X7280705Y11909866D01*
X7287206Y11925560D01*
Y11942547D01*
X7280705Y11958241D01*
X7268694Y11970253D01*
X7253000Y11976754D01*
X7236013D01*
X7220319Y11970253D01*
X7210017Y11959951D01*
X6422254D01*
X6412343Y11957980D01*
X6403941Y11952366D01*
X6381475Y11929900D01*
X6366906D01*
X6351213Y11923399D01*
X6339201Y11911387D01*
X6332700Y11895694D01*
Y11883493D01*
X6318710Y11874905D01*
X6314223Y11873686D01*
X6306304Y11881604D01*
X6285564Y11895462D01*
X6261100Y11900328D01*
X5970080D01*
X5793926Y12076482D01*
X5773186Y12090340D01*
X5748722Y12095206D01*
D02*
G37*
G36*
X9467197Y12004906D02*
X9436206D01*
X9406271Y11996885D01*
X9379432Y11981390D01*
X9357518Y11959476D01*
X9342023Y11932637D01*
X9334002Y11902702D01*
Y11871711D01*
X9342023Y11841776D01*
X9357518Y11814936D01*
X9379432Y11793023D01*
X9406271Y11777527D01*
X9436206Y11769506D01*
X9467197D01*
X9497132Y11777527D01*
X9523971Y11793023D01*
X9545885Y11814936D01*
X9561381Y11841776D01*
X9569402Y11871711D01*
Y11902702D01*
X9561381Y11932637D01*
X9545885Y11959476D01*
X9523971Y11981390D01*
X9497132Y11996885D01*
X9467197Y12004906D01*
D02*
G37*
G36*
Y11623906D02*
X9436206D01*
X9406271Y11615885D01*
X9379432Y11600390D01*
X9357518Y11578476D01*
X9342023Y11551637D01*
X9334002Y11521702D01*
Y11490711D01*
X9342023Y11460776D01*
X9357518Y11433936D01*
X9379432Y11412023D01*
X9406271Y11396527D01*
X9436206Y11388506D01*
X9467197D01*
X9497132Y11396527D01*
X9523971Y11412023D01*
X9545885Y11433936D01*
X9561381Y11460776D01*
X9569402Y11490711D01*
Y11521702D01*
X9561381Y11551637D01*
X9545885Y11578476D01*
X9523971Y11600390D01*
X9497132Y11615885D01*
X9467197Y11623906D01*
D02*
G37*
G36*
X4357600Y11311371D02*
X4227600D01*
X4207316Y11308700D01*
X4188415Y11300871D01*
X4172184Y11288416D01*
X4159729Y11272185D01*
X4151900Y11253284D01*
X4149229Y11233000D01*
Y11103000D01*
X4151900Y11082716D01*
X4159729Y11063815D01*
X4172184Y11047584D01*
X4188415Y11035129D01*
X4207316Y11027300D01*
X4227600Y11024629D01*
X4357600D01*
X4377884Y11027300D01*
X4396785Y11035129D01*
X4413016Y11047584D01*
X4425471Y11063815D01*
X4433300Y11082716D01*
X4435971Y11103000D01*
Y11233000D01*
X4433300Y11253284D01*
X4425471Y11272185D01*
X4413016Y11288416D01*
X4396785Y11300871D01*
X4377884Y11308700D01*
X4357600Y11311371D01*
D02*
G37*
G36*
X9504202Y11243469D02*
X9399202D01*
X9382181Y11241228D01*
X9366320Y11234658D01*
X9352700Y11224207D01*
X9342250Y11210587D01*
X9335680Y11194727D01*
X9333439Y11177706D01*
Y11072706D01*
X9335680Y11055686D01*
X9342250Y11039825D01*
X9352700Y11026205D01*
X9366320Y11015754D01*
X9382181Y11009184D01*
X9399202Y11006943D01*
X9504202D01*
X9521222Y11009184D01*
X9537083Y11015754D01*
X9550703Y11026205D01*
X9561154Y11039825D01*
X9567724Y11055686D01*
X9569964Y11072706D01*
Y11177706D01*
X9567724Y11194727D01*
X9561154Y11210587D01*
X9550703Y11224207D01*
X9537083Y11234658D01*
X9521222Y11241228D01*
X9504202Y11243469D01*
D02*
G37*
G36*
X7730094Y13364999D02*
X7713106D01*
X7697413Y13358499D01*
X7685401Y13346487D01*
X7678900Y13330794D01*
Y13313806D01*
X7683161Y13303519D01*
Y12134581D01*
X7678900Y12124294D01*
Y12107306D01*
X7682907Y12097633D01*
Y11626304D01*
X7678391Y11615402D01*
Y11598415D01*
X7683352Y11586438D01*
Y10953290D01*
X7679091Y10943002D01*
Y10926015D01*
X7685592Y10910321D01*
X7697604Y10898310D01*
X7713298Y10891809D01*
X7730285D01*
X7745978Y10898310D01*
X7757990Y10910321D01*
X7764491Y10926015D01*
Y10943002D01*
X7760230Y10953290D01*
Y11589818D01*
X7763791Y11598415D01*
Y11615402D01*
X7759784Y11625075D01*
Y12096405D01*
X7764300Y12107306D01*
Y12124294D01*
X7760039Y12134581D01*
Y13303519D01*
X7764300Y13313806D01*
Y13330794D01*
X7757799Y13346487D01*
X7745787Y13358499D01*
X7730094Y13364999D01*
D02*
G37*
G36*
X6218794Y11536200D02*
X6201806D01*
X6186113Y11529699D01*
X6174101Y11517687D01*
X6167600Y11501994D01*
Y11485006D01*
X6174101Y11469313D01*
X6184402Y11459011D01*
Y11023600D01*
X6186374Y11013689D01*
X6191988Y11005288D01*
X6407888Y10789388D01*
X6416289Y10783774D01*
X6426200Y10781802D01*
X6531411D01*
X6541713Y10771501D01*
X6557406Y10765000D01*
X6574394D01*
X6590087Y10771501D01*
X6602099Y10783513D01*
X6608600Y10799206D01*
Y10816194D01*
X6602099Y10831887D01*
X6590087Y10843899D01*
X6574394Y10850400D01*
X6557406D01*
X6541713Y10843899D01*
X6531411Y10833598D01*
X6436927D01*
X6236198Y11034327D01*
Y11459011D01*
X6246499Y11469313D01*
X6253000Y11485006D01*
Y11501994D01*
X6246499Y11517687D01*
X6234487Y11529699D01*
X6218794Y11536200D01*
D02*
G37*
G36*
X4311387Y10810700D02*
X4273813D01*
X4237520Y10800975D01*
X4204980Y10782188D01*
X4178412Y10755620D01*
X4159625Y10723080D01*
X4149900Y10686787D01*
Y10649213D01*
X4159625Y10612920D01*
X4178412Y10580380D01*
X4204980Y10553812D01*
X4237520Y10535025D01*
X4273813Y10525300D01*
X4311387D01*
X4347680Y10535025D01*
X4380220Y10553812D01*
X4406788Y10580380D01*
X4425575Y10612920D01*
X4435300Y10649213D01*
Y10686787D01*
X4425575Y10723080D01*
X4406788Y10755620D01*
X4380220Y10782188D01*
X4347680Y10800975D01*
X4311387Y10810700D01*
D02*
G37*
G36*
X7314400Y10336851D02*
X7277100D01*
Y10223500D01*
X7390451D01*
Y10260800D01*
X7387859Y10280484D01*
X7380262Y10298825D01*
X7368176Y10314576D01*
X7352425Y10326662D01*
X7334084Y10334259D01*
X7314400Y10336851D01*
D02*
G37*
G36*
X4307906Y10323400D02*
X4305300D01*
Y10180700D01*
X4448000D01*
Y10183306D01*
X4442028Y10213329D01*
X4430314Y10241609D01*
X4413307Y10267062D01*
X4391662Y10288707D01*
X4366209Y10305714D01*
X4337929Y10317428D01*
X4307906Y10323400D01*
D02*
G37*
G36*
X4279900D02*
X4277294D01*
X4247271Y10317428D01*
X4218991Y10305714D01*
X4193538Y10288707D01*
X4171893Y10267062D01*
X4154886Y10241609D01*
X4143172Y10213329D01*
X4137200Y10183306D01*
Y10180700D01*
X4279900D01*
Y10323400D01*
D02*
G37*
G36*
X6771237Y10323500D02*
X6741563D01*
X6712899Y10315820D01*
X6687200Y10300982D01*
X6666218Y10280000D01*
X6651380Y10254301D01*
X6643700Y10225637D01*
Y10195963D01*
X6651380Y10167299D01*
X6666218Y10141600D01*
X6687200Y10120618D01*
X6712899Y10105780D01*
X6741563Y10098100D01*
X6771237D01*
X6799901Y10105780D01*
X6825600Y10120618D01*
X6846582Y10141600D01*
X6861420Y10167299D01*
X6869100Y10195963D01*
Y10225637D01*
X6861420Y10254301D01*
X6846582Y10280000D01*
X6825600Y10300982D01*
X6799901Y10315820D01*
X6771237Y10323500D01*
D02*
G37*
G36*
X6517237D02*
X6487563D01*
X6458899Y10315820D01*
X6433200Y10300982D01*
X6412218Y10280000D01*
X6397380Y10254301D01*
X6389700Y10225637D01*
Y10195963D01*
X6397380Y10167299D01*
X6412218Y10141600D01*
X6433200Y10120618D01*
X6458899Y10105780D01*
X6487563Y10098100D01*
X6517237D01*
X6545901Y10105780D01*
X6571600Y10120618D01*
X6592582Y10141600D01*
X6607420Y10167299D01*
X6615100Y10195963D01*
Y10225637D01*
X6607420Y10254301D01*
X6592582Y10280000D01*
X6571600Y10300982D01*
X6545901Y10315820D01*
X6517237Y10323500D01*
D02*
G37*
G36*
X7390451Y10198100D02*
X7277100D01*
Y10084749D01*
X7314400D01*
X7334084Y10087341D01*
X7352425Y10094938D01*
X7368176Y10107024D01*
X7380262Y10122775D01*
X7387859Y10141116D01*
X7390451Y10160800D01*
Y10198100D01*
D02*
G37*
G36*
X8570900Y10131800D02*
X8570382D01*
X8544847Y10124958D01*
X8521953Y10111740D01*
X8503260Y10093047D01*
X8490042Y10070153D01*
X8487379Y10060213D01*
X8466673Y10060213D01*
X8465323Y10065251D01*
X8453777Y10085249D01*
X8437449Y10101577D01*
X8417451Y10113123D01*
X8395146Y10119100D01*
X8372054D01*
X8349749Y10113123D01*
X8329751Y10101577D01*
X8313423Y10085249D01*
X8301877Y10065251D01*
X8295900Y10042946D01*
Y10019854D01*
X8301877Y9997549D01*
X8313423Y9977551D01*
X8329751Y9961223D01*
X8349749Y9949677D01*
X8372054Y9943700D01*
X8395146D01*
X8417451Y9949677D01*
X8437449Y9961223D01*
X8453777Y9977551D01*
X8465323Y9997549D01*
X8466673Y10002588D01*
X8487379Y10002587D01*
X8490042Y9992647D01*
X8503260Y9969753D01*
X8521953Y9951060D01*
X8544847Y9937842D01*
X8554787Y9935179D01*
X8554788Y9914473D01*
X8549749Y9913123D01*
X8529751Y9901577D01*
X8513423Y9885249D01*
X8501877Y9865251D01*
X8495900Y9842946D01*
Y9819854D01*
X8501877Y9797549D01*
X8513423Y9777551D01*
X8529751Y9761223D01*
X8549749Y9749677D01*
X8572054Y9743700D01*
X8595146D01*
X8617451Y9749677D01*
X8637449Y9761223D01*
X8653777Y9777551D01*
X8665323Y9797549D01*
X8671300Y9819854D01*
Y9842946D01*
X8665323Y9865251D01*
X8653777Y9885249D01*
X8637449Y9901577D01*
X8617451Y9913123D01*
X8612413Y9914473D01*
X8612413Y9935179D01*
X8622353Y9937842D01*
X8645247Y9951060D01*
X8663940Y9969753D01*
X8677158Y9992647D01*
X8684000Y10018182D01*
Y10018700D01*
X8583600D01*
Y10031400D01*
X8570900D01*
Y10131800D01*
D02*
G37*
G36*
X8596818D02*
X8596300D01*
Y10044100D01*
X8684000D01*
Y10044618D01*
X8677158Y10070153D01*
X8663940Y10093047D01*
X8645247Y10111740D01*
X8622353Y10124958D01*
X8596818Y10131800D01*
D02*
G37*
G36*
X4448000Y10155300D02*
X4305300D01*
Y10012600D01*
X4307906D01*
X4337929Y10018572D01*
X4366209Y10030286D01*
X4391662Y10047293D01*
X4413307Y10068938D01*
X4430314Y10094391D01*
X4442028Y10122671D01*
X4448000Y10152694D01*
Y10155300D01*
D02*
G37*
G36*
X4279900D02*
X4137200D01*
Y10152694D01*
X4143172Y10122671D01*
X4154886Y10094391D01*
X4171893Y10068938D01*
X4193538Y10047293D01*
X4218991Y10030286D01*
X4247271Y10018572D01*
X4277294Y10012600D01*
X4279900D01*
Y10155300D01*
D02*
G37*
G36*
X8395146Y9919100D02*
X8372054D01*
X8349749Y9913123D01*
X8329751Y9901577D01*
X8313423Y9885249D01*
X8301877Y9865251D01*
X8295900Y9842946D01*
Y9819854D01*
X8301877Y9797549D01*
X8313423Y9777551D01*
X8329751Y9761223D01*
X8349749Y9749677D01*
X8372054Y9743700D01*
X8395146D01*
X8417451Y9749677D01*
X8437449Y9761223D01*
X8453777Y9777551D01*
X8465323Y9797549D01*
X8471300Y9819854D01*
Y9842946D01*
X8465323Y9865251D01*
X8453777Y9885249D01*
X8437449Y9901577D01*
X8417451Y9913123D01*
X8395146Y9919100D01*
D02*
G37*
G36*
X7661046Y9622000D02*
X7637954D01*
X7615649Y9616023D01*
X7595651Y9604477D01*
X7579323Y9588149D01*
X7567777Y9568151D01*
X7561800Y9545846D01*
Y9522754D01*
X7567777Y9500449D01*
X7579323Y9480451D01*
X7595651Y9464123D01*
X7615649Y9452577D01*
X7637954Y9446600D01*
X7661046D01*
X7683351Y9452577D01*
X7703349Y9464123D01*
X7719677Y9480451D01*
X7731223Y9500449D01*
X7737200Y9522754D01*
Y9545846D01*
X7731223Y9568151D01*
X7719677Y9588149D01*
X7703349Y9604477D01*
X7683351Y9616023D01*
X7661046Y9622000D01*
D02*
G37*
G36*
X6961046D02*
X6937954D01*
X6915649Y9616023D01*
X6895651Y9604477D01*
X6879323Y9588149D01*
X6867777Y9568151D01*
X6861800Y9545846D01*
Y9522754D01*
X6867777Y9500449D01*
X6879323Y9480451D01*
X6895651Y9464123D01*
X6915649Y9452577D01*
X6937954Y9446600D01*
X6961046D01*
X6983351Y9452577D01*
X7003349Y9464123D01*
X7019677Y9480451D01*
X7031223Y9500449D01*
X7037200Y9522754D01*
Y9545846D01*
X7031223Y9568151D01*
X7019677Y9588149D01*
X7003349Y9604477D01*
X6983351Y9616023D01*
X6961046Y9622000D01*
D02*
G37*
G36*
X8771717Y9621400D02*
X8748625D01*
X8726320Y9615423D01*
X8706322Y9603877D01*
X8689994Y9587549D01*
X8678448Y9567551D01*
X8672471Y9545246D01*
Y9522154D01*
X8678448Y9499849D01*
X8689994Y9479851D01*
X8706322Y9463523D01*
X8726320Y9451977D01*
X8748625Y9446000D01*
X8771717D01*
X8794022Y9451977D01*
X8814020Y9463523D01*
X8830348Y9479851D01*
X8841894Y9499849D01*
X8847871Y9522154D01*
Y9545246D01*
X8841894Y9567551D01*
X8830348Y9587549D01*
X8814020Y9603877D01*
X8794022Y9615423D01*
X8771717Y9621400D01*
D02*
G37*
G36*
X8071717D02*
X8048625D01*
X8026320Y9615423D01*
X8006322Y9603877D01*
X7989994Y9587549D01*
X7978448Y9567551D01*
X7972471Y9545246D01*
Y9522154D01*
X7978448Y9499849D01*
X7989994Y9479851D01*
X8006322Y9463523D01*
X8026320Y9451977D01*
X8048625Y9446000D01*
X8071717D01*
X8094022Y9451977D01*
X8114020Y9463523D01*
X8130348Y9479851D01*
X8141894Y9499849D01*
X8147871Y9522154D01*
Y9545246D01*
X8141894Y9567551D01*
X8130348Y9587549D01*
X8114020Y9603877D01*
X8094022Y9615423D01*
X8071717Y9621400D01*
D02*
G37*
G36*
X6593646D02*
X6570554D01*
X6548249Y9615423D01*
X6528251Y9603877D01*
X6511923Y9587549D01*
X6500377Y9567551D01*
X6494400Y9545246D01*
Y9522154D01*
X6500377Y9499849D01*
X6511923Y9479851D01*
X6528251Y9463523D01*
X6548249Y9451977D01*
X6570554Y9446000D01*
X6593646D01*
X6615951Y9451977D01*
X6635949Y9463523D01*
X6652277Y9479851D01*
X6663823Y9499849D01*
X6669800Y9522154D01*
Y9545246D01*
X6663823Y9567551D01*
X6652277Y9587549D01*
X6635949Y9603877D01*
X6615951Y9615423D01*
X6593646Y9621400D01*
D02*
G37*
G36*
X5893646D02*
X5870554D01*
X5848249Y9615423D01*
X5828251Y9603877D01*
X5811923Y9587549D01*
X5800377Y9567551D01*
X5794400Y9545246D01*
Y9522154D01*
X5800377Y9499849D01*
X5811923Y9479851D01*
X5828251Y9463523D01*
X5848249Y9451977D01*
X5870554Y9446000D01*
X5893646D01*
X5915951Y9451977D01*
X5935949Y9463523D01*
X5952277Y9479851D01*
X5963823Y9499849D01*
X5969800Y9522154D01*
Y9545246D01*
X5963823Y9567551D01*
X5952277Y9587549D01*
X5935949Y9603877D01*
X5915951Y9615423D01*
X5893646Y9621400D01*
D02*
G37*
G36*
X5514146D02*
X5491054D01*
X5468749Y9615423D01*
X5448751Y9603877D01*
X5432423Y9587549D01*
X5420877Y9567551D01*
X5414900Y9545246D01*
Y9522154D01*
X5420877Y9499849D01*
X5432423Y9479851D01*
X5448751Y9463523D01*
X5468749Y9451977D01*
X5491054Y9446000D01*
X5514146D01*
X5536451Y9451977D01*
X5556449Y9463523D01*
X5572777Y9479851D01*
X5584323Y9499849D01*
X5590300Y9522154D01*
Y9545246D01*
X5584323Y9567551D01*
X5572777Y9587549D01*
X5556449Y9603877D01*
X5536451Y9615423D01*
X5514146Y9621400D01*
D02*
G37*
G36*
X4814146D02*
X4791054D01*
X4768749Y9615423D01*
X4748751Y9603877D01*
X4732423Y9587549D01*
X4720877Y9567551D01*
X4714900Y9545246D01*
Y9522154D01*
X4720877Y9499849D01*
X4732423Y9479851D01*
X4748751Y9463523D01*
X4768749Y9451977D01*
X4791054Y9446000D01*
X4814146D01*
X4836451Y9451977D01*
X4856449Y9463523D01*
X4872777Y9479851D01*
X4884323Y9499849D01*
X4890300Y9522154D01*
Y9545246D01*
X4884323Y9567551D01*
X4872777Y9587549D01*
X4856449Y9603877D01*
X4836451Y9615423D01*
X4814146Y9621400D01*
D02*
G37*
G36*
X7087718Y9384700D02*
X7087200D01*
Y9297000D01*
X7174900D01*
Y9297518D01*
X7168058Y9323053D01*
X7154840Y9345947D01*
X7136147Y9364640D01*
X7113253Y9377858D01*
X7087718Y9384700D01*
D02*
G37*
G36*
X7061800D02*
X7061282D01*
X7035747Y9377858D01*
X7012853Y9364640D01*
X6994160Y9345947D01*
X6980942Y9323053D01*
X6974100Y9297518D01*
Y9297000D01*
X7061800D01*
Y9384700D01*
D02*
G37*
G36*
X8198389Y9384100D02*
X8197871D01*
Y9296400D01*
X8285571D01*
Y9296918D01*
X8278729Y9322453D01*
X8265511Y9345347D01*
X8246818Y9364040D01*
X8223924Y9377258D01*
X8198389Y9384100D01*
D02*
G37*
G36*
X8172471D02*
X8171953D01*
X8146418Y9377258D01*
X8123524Y9364040D01*
X8104831Y9345347D01*
X8091613Y9322453D01*
X8084771Y9296918D01*
Y9296400D01*
X8172471D01*
Y9384100D01*
D02*
G37*
G36*
X6020318D02*
X6019800D01*
Y9296400D01*
X6107500D01*
Y9296918D01*
X6100658Y9322453D01*
X6087440Y9345347D01*
X6068747Y9364040D01*
X6045853Y9377258D01*
X6020318Y9384100D01*
D02*
G37*
G36*
X5994400D02*
X5993882D01*
X5968347Y9377258D01*
X5945453Y9364040D01*
X5926760Y9345347D01*
X5913542Y9322453D01*
X5906700Y9296918D01*
Y9296400D01*
X5994400D01*
Y9384100D01*
D02*
G37*
G36*
X4940818D02*
X4940300D01*
Y9296400D01*
X5028000D01*
Y9296918D01*
X5021158Y9322453D01*
X5007940Y9345347D01*
X4989247Y9364040D01*
X4966353Y9377258D01*
X4940818Y9384100D01*
D02*
G37*
G36*
X4914900D02*
X4914382D01*
X4888847Y9377258D01*
X4865953Y9364040D01*
X4847260Y9345347D01*
X4834042Y9322453D01*
X4827200Y9296918D01*
Y9296400D01*
X4914900D01*
Y9384100D01*
D02*
G37*
G36*
X9381834Y9646100D02*
X9337966D01*
X9294941Y9637542D01*
X9254412Y9620754D01*
X9217937Y9596382D01*
X9186918Y9565363D01*
X9162546Y9528888D01*
X9145758Y9488359D01*
X9137200Y9445334D01*
Y9401466D01*
X9145758Y9358441D01*
X9162546Y9317912D01*
X9186918Y9281437D01*
X9217937Y9250418D01*
X9254412Y9226046D01*
X9294941Y9209258D01*
X9337966Y9200700D01*
X9381834D01*
X9424859Y9209258D01*
X9465388Y9226046D01*
X9501863Y9250418D01*
X9532882Y9281437D01*
X9557254Y9317912D01*
X9574042Y9358441D01*
X9582600Y9401466D01*
Y9445334D01*
X9574042Y9488359D01*
X9557254Y9528888D01*
X9532882Y9565363D01*
X9501863Y9596382D01*
X9465388Y9620754D01*
X9424859Y9637542D01*
X9381834Y9646100D01*
D02*
G37*
G36*
X4238334D02*
X4194466D01*
X4151441Y9637542D01*
X4110912Y9620754D01*
X4074437Y9596382D01*
X4043418Y9565363D01*
X4019046Y9528888D01*
X4002258Y9488359D01*
X3993700Y9445334D01*
Y9401466D01*
X4002258Y9358441D01*
X4019046Y9317912D01*
X4043418Y9281437D01*
X4074437Y9250418D01*
X4110912Y9226046D01*
X4151441Y9209258D01*
X4194466Y9200700D01*
X4238334D01*
X4281359Y9209258D01*
X4321888Y9226046D01*
X4358363Y9250418D01*
X4389382Y9281437D01*
X4413754Y9317912D01*
X4430542Y9358441D01*
X4439100Y9401466D01*
Y9445334D01*
X4430542Y9488359D01*
X4413754Y9528888D01*
X4389382Y9565363D01*
X4358363Y9596382D01*
X4321888Y9620754D01*
X4281359Y9637542D01*
X4238334Y9646100D01*
D02*
G37*
G36*
X7536046Y9372000D02*
X7512954D01*
X7490649Y9366023D01*
X7470651Y9354477D01*
X7454323Y9338149D01*
X7442777Y9318151D01*
X7436800Y9295846D01*
Y9272754D01*
X7442777Y9250449D01*
X7454323Y9230451D01*
X7470651Y9214123D01*
X7490649Y9202577D01*
X7512954Y9196600D01*
X7536046D01*
X7558351Y9202577D01*
X7578349Y9214123D01*
X7594677Y9230451D01*
X7606223Y9250449D01*
X7612200Y9272754D01*
Y9295846D01*
X7606223Y9318151D01*
X7594677Y9338149D01*
X7578349Y9354477D01*
X7558351Y9366023D01*
X7536046Y9372000D01*
D02*
G37*
G36*
X8646717Y9371400D02*
X8623625D01*
X8601320Y9365423D01*
X8581322Y9353877D01*
X8564994Y9337549D01*
X8553448Y9317551D01*
X8547471Y9295246D01*
Y9272154D01*
X8553448Y9249849D01*
X8564994Y9229851D01*
X8581322Y9213523D01*
X8601320Y9201977D01*
X8623625Y9196000D01*
X8646717D01*
X8669022Y9201977D01*
X8689020Y9213523D01*
X8705348Y9229851D01*
X8716894Y9249849D01*
X8722871Y9272154D01*
Y9295246D01*
X8716894Y9317551D01*
X8705348Y9337549D01*
X8689020Y9353877D01*
X8669022Y9365423D01*
X8646717Y9371400D01*
D02*
G37*
G36*
X6468646D02*
X6445554D01*
X6423249Y9365423D01*
X6403251Y9353877D01*
X6386923Y9337549D01*
X6375377Y9317551D01*
X6369400Y9295246D01*
Y9272154D01*
X6375377Y9249849D01*
X6386923Y9229851D01*
X6403251Y9213523D01*
X6423249Y9201977D01*
X6445554Y9196000D01*
X6468646D01*
X6490951Y9201977D01*
X6510949Y9213523D01*
X6527277Y9229851D01*
X6538823Y9249849D01*
X6544800Y9272154D01*
Y9295246D01*
X6538823Y9317551D01*
X6527277Y9337549D01*
X6510949Y9353877D01*
X6490951Y9365423D01*
X6468646Y9371400D01*
D02*
G37*
G36*
X5389146D02*
X5366054D01*
X5343749Y9365423D01*
X5323751Y9353877D01*
X5307423Y9337549D01*
X5295877Y9317551D01*
X5289900Y9295246D01*
Y9272154D01*
X5295877Y9249849D01*
X5307423Y9229851D01*
X5323751Y9213523D01*
X5343749Y9201977D01*
X5366054Y9196000D01*
X5389146D01*
X5411451Y9201977D01*
X5431449Y9213523D01*
X5447777Y9229851D01*
X5459323Y9249849D01*
X5465300Y9272154D01*
Y9295246D01*
X5459323Y9317551D01*
X5447777Y9337549D01*
X5431449Y9353877D01*
X5411451Y9365423D01*
X5389146Y9371400D01*
D02*
G37*
%LPD*%
G36*
X7055760Y10483091D02*
Y10464129D01*
X6974211Y10401541D01*
X6904160Y10471591D01*
X6972935Y10540365D01*
X7055760Y10483091D01*
D02*
G37*
G36*
X7137400Y9816300D02*
X7010400Y9716300D01*
X6860400Y9816300D01*
X6960400Y9916300D01*
X7060400D01*
X7137400Y9816300D01*
D02*
G37*
D28*
X6210300Y11023600D02*
Y11493500D01*
Y11023600D02*
X6426200Y10807700D01*
X6565900D01*
X6422254Y11934054D02*
X7244506D01*
X6375400Y11887200D02*
X6422254Y11934054D01*
D30*
X4216400Y12509500D02*
X4904978D01*
X4102100Y12623800D02*
Y13030200D01*
Y12623800D02*
X4216400Y12509500D01*
X4904978D02*
X4988463Y12426014D01*
X4102100Y13030200D02*
X4178300Y13106400D01*
X4343400D01*
X7010400Y9766300D02*
X7289800D01*
X7010400Y10210800D02*
Y10388600D01*
Y9766300D02*
Y10210800D01*
Y10469802D02*
Y10618687D01*
X6599084Y11097568D02*
Y11498416D01*
X6599045Y11030042D02*
Y11097529D01*
X6299200Y9766300D02*
X7010400D01*
Y10388600D02*
Y10469802D01*
X6599045Y11030042D02*
X7010400Y10618687D01*
X7005814Y10474388D02*
X7010400Y10469802D01*
X5516089Y9766300D02*
X6299200D01*
X5748722Y12031278D02*
X5943600Y11836400D01*
X5608926Y12031278D02*
X5748722D01*
X5943600Y11836400D02*
X6261100D01*
X6599084Y11498416D01*
X6599045Y11097529D02*
X6599084Y11097568D01*
D31*
X7721345Y11607354D02*
X7721791Y11606909D01*
Y10934891D02*
Y11606909D01*
X7721600Y10934700D02*
X7721791Y10934891D01*
X7721600Y12115800D02*
Y13322301D01*
X7721345Y12115545D02*
X7721600Y12115800D01*
X7721345Y11607354D02*
Y12115545D01*
X5379683Y11143017D02*
X6048312Y10474388D01*
X7005814D01*
X5379683Y11143017D02*
Y11184425D01*
X5377770Y11186338D02*
X5379683Y11184425D01*
X6311900Y9779000D02*
Y10007600D01*
X6299200Y9766300D02*
X6311900Y9779000D01*
X5168900Y9766300D02*
X5516089D01*
D33*
X4927600Y9283700D02*
D03*
X5377600D02*
D03*
X4802600Y9533700D02*
D03*
X5502600D02*
D03*
X7649500Y9534300D02*
D03*
X6949500D02*
D03*
X7524500Y9284300D02*
D03*
X7074500D02*
D03*
X8383600Y9831400D02*
D03*
Y10031400D02*
D03*
X8583600Y9831400D02*
D03*
Y10031400D02*
D03*
X6582100Y9533700D02*
D03*
X5882100D02*
D03*
X6457100Y9283700D02*
D03*
X6007100D02*
D03*
X8760171Y9533700D02*
D03*
X8060171D02*
D03*
X8635171Y9283700D02*
D03*
X8185171D02*
D03*
D34*
X6502400Y10210800D02*
D03*
X6756400D02*
D03*
X7010400D02*
D03*
D35*
X7264400D02*
D03*
D36*
X5511800Y12611100D02*
D03*
Y12357100D02*
D03*
D37*
X4216400Y9423400D02*
D03*
X9359900D02*
D03*
Y13627100D02*
D03*
X4216400D02*
D03*
D38*
X7975600Y13144501D02*
D03*
Y12894501D02*
D03*
D39*
X4343400Y12725400D02*
D03*
Y13106400D02*
D03*
X9451702Y11506206D02*
D03*
Y11887206D02*
D03*
Y12268206D02*
D03*
D40*
X4292600Y10168000D02*
D03*
Y10668000D02*
D03*
D41*
Y11168000D02*
D03*
D42*
X9451702Y11125206D02*
D03*
D43*
X6286500Y11379200D02*
D03*
X5740400Y11341100D02*
D03*
X5816600Y11137900D02*
D03*
Y11264900D02*
D03*
X6172200Y10960100D02*
D03*
X7467600Y10096500D02*
D03*
X7658100Y9906000D02*
D03*
X7594600Y9969500D02*
D03*
X7531100Y10033000D02*
D03*
X5016500Y11607800D02*
D03*
X4965700Y11671300D02*
D03*
X4914900Y11607800D02*
D03*
X4864100Y11671300D02*
D03*
X4813300Y11607800D02*
D03*
X4762500Y11671300D02*
D03*
X7327900Y12573000D02*
D03*
X6908800Y12687300D02*
D03*
X6400800D02*
D03*
X5981700Y12573000D02*
D03*
X7721600Y13322301D02*
D03*
X7289800Y9766300D02*
D03*
X6248400D02*
D03*
X5486400Y10528300D02*
D03*
Y10452100D02*
D03*
X8064500Y10299223D02*
D03*
X7988300D02*
D03*
X8064500Y10998200D02*
D03*
X7988300D02*
D03*
Y11696700D02*
D03*
X8064500D02*
D03*
X7874000Y10223023D02*
D03*
X7950200D02*
D03*
X8026400D02*
D03*
X8102600D02*
D03*
X7874000Y10922000D02*
D03*
X7950200D02*
D03*
X8026400D02*
D03*
X8102600D02*
D03*
Y11620500D02*
D03*
X8026400D02*
D03*
X7950200D02*
D03*
X7874000D02*
D03*
X6362700Y12052300D02*
D03*
X6946900D02*
D03*
X6807200Y11163300D02*
D03*
X6769100Y11430000D02*
D03*
X6807200Y11315700D02*
D03*
X6146800Y10375900D02*
D03*
X5143500Y11201400D02*
D03*
Y11353800D02*
D03*
Y11442700D02*
D03*
Y11277600D02*
D03*
X5740400Y11201400D02*
D03*
X6286500Y11277600D02*
D03*
Y11125200D02*
D03*
X5702300Y10655300D02*
D03*
X7721600Y12115800D02*
D03*
X7721091Y11606909D02*
D03*
X7721791Y10934509D02*
D03*
X7005814Y10474388D02*
D03*
X5377770Y11186338D02*
D03*
X6210300Y11493500D02*
D03*
X6565900Y10807700D02*
D03*
X6311900Y10007600D02*
D03*
X5168900Y9766300D02*
D03*
X7010400Y10388600D02*
D03*
X7244506Y11934054D02*
D03*
X6375400Y11887200D02*
D03*
X6599074Y11409148D02*
D03*
X6597550Y11070290D02*
D03*
D44*
X4988463Y12426014D02*
D03*
X5608926Y12031278D02*
D03*
%TF.MD5,431707be4ea656ec3a2995f7e296c602*%
M02*
