%TF.GenerationSoftware,Altium Limited,Altium Designer,24.6.1 (21)*%
G04 Layer_Color=0*
%FSLAX45Y45*%
%MOMM*%
%TF.SameCoordinates,C5CCA8AA-8E71-476F-B662-92032E94D40D*%
%TF.FilePolarity,Positive*%
%TF.FileFunction,Plated,1,2,PTH,Drill*%
%TF.Part,Single*%
G01*
G75*
%TA.AperFunction,ComponentDrill*%
%ADD81C,1.00000*%
%ADD82C,0.85000*%
%TA.AperFunction,OtherDrill,Pad Free-EARTH (42.164mm,94.234mm)*%
%ADD83C,2.10000*%
%TA.AperFunction,ComponentDrill*%
%ADD84C,0.89000*%
%TA.AperFunction,OtherDrill,Pad Free-EARTH (93.599mm,94.234mm)*%
%ADD85C,2.10000*%
%TA.AperFunction,OtherDrill,Pad Free-EARTH (93.599mm,136.271mm)*%
%ADD86C,2.10000*%
%TA.AperFunction,OtherDrill,Pad Free-EARTH (42.164mm,136.271mm)*%
%ADD87C,2.10000*%
%TA.AperFunction,ComponentDrill*%
%ADD88C,1.00000*%
%ADD89C,1.40000*%
%ADD90C,1.30000*%
%TA.AperFunction,ViaDrill,NotFilled*%
%ADD91C,0.30000*%
%ADD92C,0.50000*%
D81*
X4927600Y9283700D02*
D03*
X5377600D02*
D03*
X4802600Y9533700D02*
D03*
X5502600D02*
D03*
X6502400Y10210800D02*
D03*
X6756400D02*
D03*
X7010400D02*
D03*
X7264400D02*
D03*
X7649500Y9534300D02*
D03*
X6949500D02*
D03*
X7524500Y9284300D02*
D03*
X7074500D02*
D03*
X6582100Y9533700D02*
D03*
X5882100D02*
D03*
X6457100Y9283700D02*
D03*
X6007100D02*
D03*
X8760171Y9533700D02*
D03*
X8060171D02*
D03*
X8635171Y9283700D02*
D03*
X8185171D02*
D03*
D82*
X5511800Y12611100D02*
D03*
Y12357100D02*
D03*
D83*
X4216400Y9423400D02*
D03*
D84*
X8383600Y9831400D02*
D03*
Y10031400D02*
D03*
X8583600Y9831400D02*
D03*
Y10031400D02*
D03*
D85*
X9359900Y9423400D02*
D03*
D86*
Y13627100D02*
D03*
D87*
X4216400D02*
D03*
D88*
X7975600Y13144501D02*
D03*
Y12894501D02*
D03*
D89*
X4343400Y12725400D02*
D03*
Y13106400D02*
D03*
X9451702Y11125206D02*
D03*
Y11506206D02*
D03*
Y11887206D02*
D03*
Y12268206D02*
D03*
D90*
X4292600Y10168000D02*
D03*
Y11168000D02*
D03*
Y10668000D02*
D03*
D91*
X6286500Y11379200D02*
D03*
X5740400Y11341100D02*
D03*
X5816600Y11137900D02*
D03*
Y11264900D02*
D03*
X6172200Y10960100D02*
D03*
X7467600Y10096500D02*
D03*
X7658100Y9906000D02*
D03*
X7594600Y9969500D02*
D03*
X7531100Y10033000D02*
D03*
X5016500Y11607800D02*
D03*
X4965700Y11671300D02*
D03*
X4914900Y11607800D02*
D03*
X4864100Y11671300D02*
D03*
X4813300Y11607800D02*
D03*
X4762500Y11671300D02*
D03*
X7327900Y12573000D02*
D03*
X6908800Y12687300D02*
D03*
X6400800D02*
D03*
X5981700Y12573000D02*
D03*
X7721600Y13322301D02*
D03*
X7289800Y9766300D02*
D03*
X6248400D02*
D03*
X5486400Y10528300D02*
D03*
Y10452100D02*
D03*
X8064500Y10299223D02*
D03*
X7988300D02*
D03*
X8064500Y10998200D02*
D03*
X7988300D02*
D03*
Y11696700D02*
D03*
X8064500D02*
D03*
X7874000Y10223023D02*
D03*
X7950200D02*
D03*
X8026400D02*
D03*
X8102600D02*
D03*
X7874000Y10922000D02*
D03*
X7950200D02*
D03*
X8026400D02*
D03*
X8102600D02*
D03*
Y11620500D02*
D03*
X8026400D02*
D03*
X7950200D02*
D03*
X7874000D02*
D03*
X6362700Y12052300D02*
D03*
X6946900D02*
D03*
X6807200Y11163300D02*
D03*
X6769100Y11430000D02*
D03*
X6807200Y11315700D02*
D03*
X6146800Y10375900D02*
D03*
X5143500Y11201400D02*
D03*
Y11353800D02*
D03*
Y11442700D02*
D03*
Y11277600D02*
D03*
X5740400Y11201400D02*
D03*
X6286500Y11277600D02*
D03*
Y11125200D02*
D03*
X5702300Y10655300D02*
D03*
X7721600Y12115800D02*
D03*
X7721091Y11606909D02*
D03*
X7721791Y10934509D02*
D03*
X7005814Y10474388D02*
D03*
X5377770Y11186338D02*
D03*
X6210300Y11493500D02*
D03*
X6565900Y10807700D02*
D03*
X6311900Y10007600D02*
D03*
X5168900Y9766300D02*
D03*
X7010400Y10388600D02*
D03*
X7244506Y11934054D02*
D03*
X6375400Y11887200D02*
D03*
X6599074Y11409148D02*
D03*
X6597550Y11070290D02*
D03*
D92*
X4988463Y12426014D02*
D03*
X5608926Y12031278D02*
D03*
%TF.MD5,8c801ed3850d7bf9a6d8ca6a2e163b25*%
M02*
