%TF.GenerationSoftware,Altium Limited,Altium Designer,24.6.1 (21)*%
G04 Layer_Physical_Order=1*
G04 Layer_Color=255*
%FSLAX45Y45*%
%MOMM*%
%TF.SameCoordinates,C5CCA8AA-8E71-476F-B662-92032E94D40D*%
%TF.FilePolarity,Positive*%
%TF.FileFunction,Copper,L1,Top,Signal*%
%TF.Part,Single*%
G01*
G75*
%TA.AperFunction,SMDPad,CuDef*%
G04:AMPARAMS|DCode=10|XSize=0.6mm|YSize=0.6mm|CornerRadius=0.15mm|HoleSize=0mm|Usage=FLASHONLY|Rotation=180.000|XOffset=0mm|YOffset=0mm|HoleType=Round|Shape=RoundedRectangle|*
%AMROUNDEDRECTD10*
21,1,0.60000,0.30000,0,0,180.0*
21,1,0.30000,0.60000,0,0,180.0*
1,1,0.30000,-0.15000,0.15000*
1,1,0.30000,0.15000,0.15000*
1,1,0.30000,0.15000,-0.15000*
1,1,0.30000,-0.15000,-0.15000*
%
%ADD10ROUNDEDRECTD10*%
G04:AMPARAMS|DCode=11|XSize=2.29mm|YSize=3.12mm|CornerRadius=0.5725mm|HoleSize=0mm|Usage=FLASHONLY|Rotation=180.000|XOffset=0mm|YOffset=0mm|HoleType=Round|Shape=RoundedRectangle|*
%AMROUNDEDRECTD11*
21,1,2.29000,1.97500,0,0,180.0*
21,1,1.14500,3.12000,0,0,180.0*
1,1,1.14500,-0.57250,0.98750*
1,1,1.14500,0.57250,0.98750*
1,1,1.14500,0.57250,-0.98750*
1,1,1.14500,-0.57250,-0.98750*
%
%ADD11ROUNDEDRECTD11*%
G04:AMPARAMS|DCode=12|XSize=2.29mm|YSize=3.12mm|CornerRadius=0.5725mm|HoleSize=0mm|Usage=FLASHONLY|Rotation=90.000|XOffset=0mm|YOffset=0mm|HoleType=Round|Shape=RoundedRectangle|*
%AMROUNDEDRECTD12*
21,1,2.29000,1.97500,0,0,90.0*
21,1,1.14500,3.12000,0,0,90.0*
1,1,1.14500,0.98750,0.57250*
1,1,1.14500,0.98750,-0.57250*
1,1,1.14500,-0.98750,-0.57250*
1,1,1.14500,-0.98750,0.57250*
%
%ADD12ROUNDEDRECTD12*%
G04:AMPARAMS|DCode=13|XSize=0.6mm|YSize=0.75mm|CornerRadius=0.15mm|HoleSize=0mm|Usage=FLASHONLY|Rotation=0.000|XOffset=0mm|YOffset=0mm|HoleType=Round|Shape=RoundedRectangle|*
%AMROUNDEDRECTD13*
21,1,0.60000,0.45000,0,0,0.0*
21,1,0.30000,0.75000,0,0,0.0*
1,1,0.30000,0.15000,-0.22500*
1,1,0.30000,-0.15000,-0.22500*
1,1,0.30000,-0.15000,0.22500*
1,1,0.30000,0.15000,0.22500*
%
%ADD13ROUNDEDRECTD13*%
G04:AMPARAMS|DCode=14|XSize=0.6mm|YSize=0.6mm|CornerRadius=0.15mm|HoleSize=0mm|Usage=FLASHONLY|Rotation=270.000|XOffset=0mm|YOffset=0mm|HoleType=Round|Shape=RoundedRectangle|*
%AMROUNDEDRECTD14*
21,1,0.60000,0.30000,0,0,270.0*
21,1,0.30000,0.60000,0,0,270.0*
1,1,0.30000,-0.15000,-0.15000*
1,1,0.30000,-0.15000,0.15000*
1,1,0.30000,0.15000,0.15000*
1,1,0.30000,0.15000,-0.15000*
%
%ADD14ROUNDEDRECTD14*%
G04:AMPARAMS|DCode=15|XSize=0.6mm|YSize=0.75mm|CornerRadius=0.15mm|HoleSize=0mm|Usage=FLASHONLY|Rotation=270.000|XOffset=0mm|YOffset=0mm|HoleType=Round|Shape=RoundedRectangle|*
%AMROUNDEDRECTD15*
21,1,0.60000,0.45000,0,0,270.0*
21,1,0.30000,0.75000,0,0,270.0*
1,1,0.30000,-0.22500,-0.15000*
1,1,0.30000,-0.22500,0.15000*
1,1,0.30000,0.22500,0.15000*
1,1,0.30000,0.22500,-0.15000*
%
%ADD15ROUNDEDRECTD15*%
G04:AMPARAMS|DCode=16|XSize=0.64mm|YSize=0.6mm|CornerRadius=0.15mm|HoleSize=0mm|Usage=FLASHONLY|Rotation=270.000|XOffset=0mm|YOffset=0mm|HoleType=Round|Shape=RoundedRectangle|*
%AMROUNDEDRECTD16*
21,1,0.64000,0.30000,0,0,270.0*
21,1,0.34000,0.60000,0,0,270.0*
1,1,0.30000,-0.15000,-0.17000*
1,1,0.30000,-0.15000,0.17000*
1,1,0.30000,0.15000,0.17000*
1,1,0.30000,0.15000,-0.17000*
%
%ADD16ROUNDEDRECTD16*%
G04:AMPARAMS|DCode=17|XSize=0.64mm|YSize=0.6mm|CornerRadius=0.15mm|HoleSize=0mm|Usage=FLASHONLY|Rotation=180.000|XOffset=0mm|YOffset=0mm|HoleType=Round|Shape=RoundedRectangle|*
%AMROUNDEDRECTD17*
21,1,0.64000,0.30000,0,0,180.0*
21,1,0.34000,0.60000,0,0,180.0*
1,1,0.30000,-0.17000,0.15000*
1,1,0.30000,0.17000,0.15000*
1,1,0.30000,0.17000,-0.15000*
1,1,0.30000,-0.17000,-0.15000*
%
%ADD17ROUNDEDRECTD17*%
G04:AMPARAMS|DCode=18|XSize=1.4mm|YSize=1.3mm|CornerRadius=0.325mm|HoleSize=0mm|Usage=FLASHONLY|Rotation=90.000|XOffset=0mm|YOffset=0mm|HoleType=Round|Shape=RoundedRectangle|*
%AMROUNDEDRECTD18*
21,1,1.40000,0.65000,0,0,90.0*
21,1,0.75000,1.30000,0,0,90.0*
1,1,0.65000,0.32500,0.37500*
1,1,0.65000,0.32500,-0.37500*
1,1,0.65000,-0.32500,-0.37500*
1,1,0.65000,-0.32500,0.37500*
%
%ADD18ROUNDEDRECTD18*%
G04:AMPARAMS|DCode=19|XSize=1.4mm|YSize=1.3mm|CornerRadius=0.325mm|HoleSize=0mm|Usage=FLASHONLY|Rotation=180.000|XOffset=0mm|YOffset=0mm|HoleType=Round|Shape=RoundedRectangle|*
%AMROUNDEDRECTD19*
21,1,1.40000,0.65000,0,0,180.0*
21,1,0.75000,1.30000,0,0,180.0*
1,1,0.65000,-0.37500,0.32500*
1,1,0.65000,0.37500,0.32500*
1,1,0.65000,0.37500,-0.32500*
1,1,0.65000,-0.37500,-0.32500*
%
%ADD19ROUNDEDRECTD19*%
G04:AMPARAMS|DCode=20|XSize=2.286mm|YSize=1.397mm|CornerRadius=0.34925mm|HoleSize=0mm|Usage=FLASHONLY|Rotation=0.000|XOffset=0mm|YOffset=0mm|HoleType=Round|Shape=RoundedRectangle|*
%AMROUNDEDRECTD20*
21,1,2.28600,0.69850,0,0,0.0*
21,1,1.58750,1.39700,0,0,0.0*
1,1,0.69850,0.79375,-0.34925*
1,1,0.69850,-0.79375,-0.34925*
1,1,0.69850,-0.79375,0.34925*
1,1,0.69850,0.79375,0.34925*
%
%ADD20ROUNDEDRECTD20*%
%ADD21R,6.18000X5.69000*%
G04:AMPARAMS|DCode=22|XSize=1mm|YSize=0.6mm|CornerRadius=0.15mm|HoleSize=0mm|Usage=FLASHONLY|Rotation=0.000|XOffset=0mm|YOffset=0mm|HoleType=Round|Shape=RoundedRectangle|*
%AMROUNDEDRECTD22*
21,1,1.00000,0.30000,0,0,0.0*
21,1,0.70000,0.60000,0,0,0.0*
1,1,0.30000,0.35000,-0.15000*
1,1,0.30000,-0.35000,-0.15000*
1,1,0.30000,-0.35000,0.15000*
1,1,0.30000,0.35000,0.15000*
%
%ADD22ROUNDEDRECTD22*%
G04:AMPARAMS|DCode=23|XSize=0.55mm|YSize=1.47mm|CornerRadius=0.06875mm|HoleSize=0mm|Usage=FLASHONLY|Rotation=180.000|XOffset=0mm|YOffset=0mm|HoleType=Round|Shape=RoundedRectangle|*
%AMROUNDEDRECTD23*
21,1,0.55000,1.33250,0,0,180.0*
21,1,0.41250,1.47000,0,0,180.0*
1,1,0.13750,-0.20625,0.66625*
1,1,0.13750,0.20625,0.66625*
1,1,0.13750,0.20625,-0.66625*
1,1,0.13750,-0.20625,-0.66625*
%
%ADD23ROUNDEDRECTD23*%
G04:AMPARAMS|DCode=24|XSize=1.47mm|YSize=0.55mm|CornerRadius=0.06875mm|HoleSize=0mm|Usage=FLASHONLY|Rotation=180.000|XOffset=0mm|YOffset=0mm|HoleType=Round|Shape=RoundedRectangle|*
%AMROUNDEDRECTD24*
21,1,1.47000,0.41250,0,0,180.0*
21,1,1.33250,0.55000,0,0,180.0*
1,1,0.13750,-0.66625,0.20625*
1,1,0.13750,0.66625,0.20625*
1,1,0.13750,0.66625,-0.20625*
1,1,0.13750,-0.66625,-0.20625*
%
%ADD24ROUNDEDRECTD24*%
G04:AMPARAMS|DCode=25|XSize=1.45mm|YSize=0.95mm|CornerRadius=0.2375mm|HoleSize=0mm|Usage=FLASHONLY|Rotation=180.000|XOffset=0mm|YOffset=0mm|HoleType=Round|Shape=RoundedRectangle|*
%AMROUNDEDRECTD25*
21,1,1.45000,0.47500,0,0,180.0*
21,1,0.97500,0.95000,0,0,180.0*
1,1,0.47500,-0.48750,0.23750*
1,1,0.47500,0.48750,0.23750*
1,1,0.47500,0.48750,-0.23750*
1,1,0.47500,-0.48750,-0.23750*
%
%ADD25ROUNDEDRECTD25*%
%ADD26R,1.45000X3.25000*%
G04:AMPARAMS|DCode=27|XSize=5.5mm|YSize=2mm|CornerRadius=0.5mm|HoleSize=0mm|Usage=FLASHONLY|Rotation=0.000|XOffset=0mm|YOffset=0mm|HoleType=Round|Shape=RoundedRectangle|*
%AMROUNDEDRECTD27*
21,1,5.50000,1.00000,0,0,0.0*
21,1,4.50000,2.00000,0,0,0.0*
1,1,1.00000,2.25000,-0.50000*
1,1,1.00000,-2.25000,-0.50000*
1,1,1.00000,-2.25000,0.50000*
1,1,1.00000,2.25000,0.50000*
%
%ADD27ROUNDEDRECTD27*%
%TA.AperFunction,Conductor*%
%ADD28C,0.25400*%
%ADD29C,0.50800*%
%ADD30C,1.00000*%
%ADD31C,0.50000*%
%ADD32C,2.54000*%
%TA.AperFunction,ComponentPad*%
%ADD33C,1.50000*%
%ADD34C,2.00000*%
G04:AMPARAMS|DCode=35|XSize=2mm|YSize=2mm|CornerRadius=0.5mm|HoleSize=0mm|Usage=FLASHONLY|Rotation=180.000|XOffset=0mm|YOffset=0mm|HoleType=Round|Shape=RoundedRectangle|*
%AMROUNDEDRECTD35*
21,1,2.00000,1.00000,0,0,180.0*
21,1,1.00000,2.00000,0,0,180.0*
1,1,1.00000,-0.50000,0.50000*
1,1,1.00000,0.50000,0.50000*
1,1,1.00000,0.50000,-0.50000*
1,1,1.00000,-0.50000,-0.50000*
%
%ADD35ROUNDEDRECTD35*%
%ADD36O,2.00000X1.35800*%
%TA.AperFunction,ViaPad*%
%ADD37C,4.20000*%
%TA.AperFunction,ComponentPad*%
%ADD38O,3.00000X2.00000*%
%ADD39C,2.10000*%
%ADD40C,2.60000*%
G04:AMPARAMS|DCode=41|XSize=2.6mm|YSize=2.6mm|CornerRadius=0.65mm|HoleSize=0mm|Usage=FLASHONLY|Rotation=270.000|XOffset=0mm|YOffset=0mm|HoleType=Round|Shape=RoundedRectangle|*
%AMROUNDEDRECTD41*
21,1,2.60000,1.30000,0,0,270.0*
21,1,1.30000,2.60000,0,0,270.0*
1,1,1.30000,-0.65000,-0.65000*
1,1,1.30000,-0.65000,0.65000*
1,1,1.30000,0.65000,0.65000*
1,1,1.30000,0.65000,-0.65000*
%
%ADD41ROUNDEDRECTD41*%
G04:AMPARAMS|DCode=42|XSize=2.1mm|YSize=2.1mm|CornerRadius=0.525mm|HoleSize=0mm|Usage=FLASHONLY|Rotation=90.000|XOffset=0mm|YOffset=0mm|HoleType=Round|Shape=RoundedRectangle|*
%AMROUNDEDRECTD42*
21,1,2.10000,1.05000,0,0,90.0*
21,1,1.05000,2.10000,0,0,90.0*
1,1,1.05000,0.52500,0.52500*
1,1,1.05000,0.52500,-0.52500*
1,1,1.05000,-0.52500,-0.52500*
1,1,1.05000,-0.52500,0.52500*
%
%ADD42ROUNDEDRECTD42*%
%TA.AperFunction,ViaPad*%
%ADD43C,0.60000*%
%ADD44C,1.00000*%
G36*
X9359900Y13893800D02*
X9384917D01*
X9433989Y13884039D01*
X9480214Y13864891D01*
X9521815Y13837094D01*
X9557194Y13801715D01*
X9584991Y13760114D01*
X9604139Y13713889D01*
X9613900Y13664816D01*
Y13639799D01*
X9613900D01*
Y12910672D01*
X9613838Y12910631D01*
X9593900Y12904541D01*
X8950520Y13547920D01*
X8940800Y13551947D01*
X8940799Y13551945D01*
X4521199Y13551945D01*
X4511479Y13547920D01*
X4511479Y13547920D01*
X4282880Y13319321D01*
X4282879Y13319321D01*
X4193980Y13230420D01*
X4189953Y13220700D01*
X4189954Y13220699D01*
Y13030202D01*
X4189953Y13030200D01*
X4193979Y13020479D01*
X4193981Y13020479D01*
X4244780Y12969679D01*
X4254500Y12965652D01*
X4254501Y12965654D01*
X4457700D01*
X4467420Y12969679D01*
X4467421Y12969679D01*
X4653894Y13156154D01*
X7627006D01*
X7762680Y13020480D01*
X7772400Y13016454D01*
X7772401Y13016454D01*
X7845687D01*
X7852476Y12996454D01*
X7836164Y12983936D01*
X7816063Y12957741D01*
X7810579Y12944501D01*
X7975600D01*
X8140621D01*
X8135137Y12957741D01*
X8115036Y12983936D01*
X8098724Y12996454D01*
X8105513Y13016454D01*
X8808106D01*
X8990554Y12834006D01*
Y12547600D01*
X8994580Y12537880D01*
X8994580Y12537879D01*
X9096180Y12436280D01*
X9105900Y12432253D01*
X9105901Y12432254D01*
X9278006D01*
X9308054Y12402206D01*
Y12141201D01*
X9308053Y12141200D01*
X9312079Y12131479D01*
X9312081Y12131479D01*
X9362880Y12080680D01*
X9372600Y12076653D01*
X9372601Y12076654D01*
X9550399D01*
X9550400Y12076653D01*
X9560120Y12080680D01*
X9593900Y12114459D01*
X9613841Y12108367D01*
X9613900Y12108328D01*
X9613900Y9423400D01*
Y9398383D01*
X9604139Y9349311D01*
X9584991Y9303086D01*
X9557194Y9261484D01*
X9521815Y9226105D01*
X9480214Y9198308D01*
X9433989Y9179161D01*
X9384917Y9169400D01*
X9359900D01*
Y9169400D01*
X8223787D01*
X8221154Y9189400D01*
X8223924Y9190142D01*
X8246818Y9203360D01*
X8265511Y9222053D01*
X8278729Y9244947D01*
X8285571Y9270482D01*
Y9271000D01*
X8084771D01*
Y9270482D01*
X8091613Y9244947D01*
X8104831Y9222053D01*
X8123524Y9203360D01*
X8146418Y9190142D01*
X8149187Y9189400D01*
X8146554Y9169400D01*
X7110878D01*
X7108245Y9189400D01*
X7113253Y9190742D01*
X7136147Y9203960D01*
X7154840Y9222653D01*
X7168058Y9245547D01*
X7174900Y9271082D01*
Y9271600D01*
X6974100D01*
Y9271082D01*
X6980942Y9245547D01*
X6994160Y9222653D01*
X7012853Y9203960D01*
X7035747Y9190742D01*
X7040755Y9189400D01*
X7038122Y9169400D01*
X6045717Y9169400D01*
X6043084Y9189400D01*
X6045853Y9190142D01*
X6068747Y9203360D01*
X6087440Y9222053D01*
X6100658Y9244947D01*
X6107500Y9270482D01*
Y9271000D01*
X5906700D01*
Y9270482D01*
X5913542Y9244947D01*
X5926760Y9222053D01*
X5945453Y9203360D01*
X5968347Y9190142D01*
X5971116Y9189400D01*
X5968483Y9169400D01*
X4966217D01*
X4963584Y9189400D01*
X4966353Y9190142D01*
X4989247Y9203360D01*
X5007940Y9222053D01*
X5021158Y9244947D01*
X5028000Y9270482D01*
Y9271000D01*
X4827200D01*
Y9270482D01*
X4834042Y9244947D01*
X4847260Y9222053D01*
X4865953Y9203360D01*
X4888847Y9190142D01*
X4891616Y9189400D01*
X4888983Y9169400D01*
X4203700D01*
X4178683D01*
X4129611Y9179161D01*
X4083386Y9198308D01*
X4041784Y9226105D01*
X4006405Y9261484D01*
X3978608Y9303086D01*
X3959461Y9349311D01*
X3949700Y9398383D01*
Y9423400D01*
X3949700D01*
X3949699Y13639799D01*
Y13664816D01*
X3959460Y13713889D01*
X3978607Y13760114D01*
X4006405Y13801715D01*
X4041784Y13837096D01*
X4083386Y13864893D01*
X4129610Y13884039D01*
X4178683Y13893800D01*
X4203700Y13893799D01*
X4203700Y13893800D01*
X9359900Y13893800D01*
D02*
G37*
G36*
X9588500Y12890500D02*
Y12128500D01*
X9550400Y12090400D01*
X9372600D01*
X9321800Y12141200D01*
Y12407900D01*
X9283700Y12446000D01*
X9105900D01*
X9004300Y12547600D01*
Y12839700D01*
X8813800Y13030200D01*
X7772400D01*
X7632700Y13169901D01*
X4648200D01*
X4457700Y12979401D01*
X4254500D01*
X4203700Y13030200D01*
Y13220700D01*
X4292600Y13309599D01*
X4521199Y13538200D01*
X8940800Y13538200D01*
X9588500Y12890500D01*
D02*
G37*
%LPC*%
G36*
X9381834Y13849800D02*
X9337966D01*
X9294941Y13841241D01*
X9254412Y13824454D01*
X9217937Y13800082D01*
X9186918Y13769063D01*
X9162546Y13732588D01*
X9145758Y13692059D01*
X9137200Y13649034D01*
Y13605167D01*
X9145758Y13562141D01*
X9162546Y13521613D01*
X9186918Y13485136D01*
X9217937Y13454118D01*
X9254412Y13429745D01*
X9294941Y13412958D01*
X9337966Y13404401D01*
X9381834D01*
X9424859Y13412958D01*
X9465388Y13429745D01*
X9501863Y13454118D01*
X9532882Y13485136D01*
X9557254Y13521613D01*
X9574042Y13562141D01*
X9582600Y13605167D01*
Y13649034D01*
X9574042Y13692059D01*
X9557254Y13732588D01*
X9532882Y13769063D01*
X9501863Y13800082D01*
X9465388Y13824454D01*
X9424859Y13841241D01*
X9381834Y13849800D01*
D02*
G37*
G36*
X4238334D02*
X4194466D01*
X4151441Y13841241D01*
X4110912Y13824454D01*
X4074437Y13800082D01*
X4043418Y13769063D01*
X4019046Y13732588D01*
X4002258Y13692059D01*
X3993700Y13649034D01*
Y13605167D01*
X4002258Y13562141D01*
X4019046Y13521613D01*
X4043418Y13485136D01*
X4074437Y13454118D01*
X4110912Y13429745D01*
X4151441Y13412958D01*
X4194466Y13404401D01*
X4238334D01*
X4281359Y13412958D01*
X4321888Y13429745D01*
X4358363Y13454118D01*
X4389382Y13485136D01*
X4413754Y13521613D01*
X4430542Y13562141D01*
X4439100Y13605167D01*
Y13649034D01*
X4430542Y13692059D01*
X4413754Y13732588D01*
X4389382Y13769063D01*
X4358363Y13800082D01*
X4321888Y13824454D01*
X4281359Y13841241D01*
X4238334Y13849800D01*
D02*
G37*
G36*
X5526800Y13024393D02*
X5524500D01*
Y12973399D01*
X5567991D01*
Y12983200D01*
X5564856Y12998962D01*
X5555927Y13012328D01*
X5542563Y13021255D01*
X5526800Y13024393D01*
D02*
G37*
G36*
X5499100D02*
X5496800D01*
X5481037Y13021255D01*
X5467673Y13012328D01*
X5458744Y12998962D01*
X5455609Y12983200D01*
Y12973399D01*
X5499100D01*
Y13024393D01*
D02*
G37*
G36*
X8140621Y12844501D02*
X8025600D01*
Y12768018D01*
X8058336Y12772328D01*
X8088841Y12784963D01*
X8115036Y12805064D01*
X8135137Y12831259D01*
X8140621Y12844501D01*
D02*
G37*
G36*
X7925600D02*
X7810579D01*
X7816063Y12831259D01*
X7836164Y12805064D01*
X7862359Y12784963D01*
X7892864Y12772328D01*
X7925600Y12768018D01*
D01*
Y12844501D01*
D02*
G37*
G36*
X8515250Y12869414D02*
X8470700D01*
Y12700000D01*
X8598613D01*
Y12786050D01*
X8595772Y12807626D01*
X8587444Y12827731D01*
X8574196Y12844997D01*
X8556931Y12858244D01*
X8536826Y12866573D01*
X8515250Y12869414D01*
D02*
G37*
G36*
X8445300D02*
X8400750D01*
X8379174Y12866573D01*
X8359068Y12858244D01*
X8341803Y12844997D01*
X8328555Y12827731D01*
X8320227Y12807626D01*
X8317387Y12786050D01*
Y12700000D01*
X8445300D01*
Y12869414D01*
D02*
G37*
G36*
X4912050Y12789613D02*
X4826000D01*
Y12661700D01*
X4995413D01*
Y12706250D01*
X4992573Y12727826D01*
X4984245Y12747931D01*
X4970997Y12765196D01*
X4953732Y12778444D01*
X4933626Y12786772D01*
X4912050Y12789613D01*
D02*
G37*
G36*
X4800600D02*
X4714550D01*
X4692974Y12786772D01*
X4672868Y12778444D01*
X4655603Y12765196D01*
X4642355Y12747931D01*
X4634027Y12727826D01*
X4631187Y12706250D01*
Y12661700D01*
X4800600D01*
Y12789613D01*
D02*
G37*
G36*
X5567991Y12948000D02*
X5455609D01*
Y12938200D01*
X5458744Y12922437D01*
X5467673Y12909073D01*
X5469893Y12907590D01*
X5476312Y12889618D01*
X5473274Y12882849D01*
X5470707Y12879008D01*
X5468557Y12868201D01*
Y12823199D01*
X5470707Y12812392D01*
X5476829Y12803229D01*
X5485902Y12797167D01*
Y12692395D01*
X5479700D01*
X5458659Y12689625D01*
X5439052Y12681504D01*
X5422215Y12668585D01*
X5409296Y12651748D01*
X5401175Y12632141D01*
X5398404Y12611100D01*
X5401175Y12590059D01*
X5409296Y12570452D01*
X5422215Y12553615D01*
X5439052Y12540696D01*
X5458659Y12532575D01*
X5479700Y12529805D01*
X5543900D01*
X5564941Y12532575D01*
X5584548Y12540696D01*
X5601385Y12553615D01*
X5614304Y12570452D01*
X5622425Y12590059D01*
X5625196Y12611100D01*
X5622425Y12632141D01*
X5614304Y12651748D01*
X5601385Y12668585D01*
X5584548Y12681504D01*
X5564941Y12689625D01*
X5543900Y12692395D01*
X5537698D01*
Y12797167D01*
X5546771Y12803229D01*
X5552893Y12812392D01*
X5555043Y12823199D01*
Y12868201D01*
X5552893Y12879008D01*
X5550326Y12882849D01*
X5547288Y12889618D01*
X5553707Y12907590D01*
X5555927Y12909073D01*
X5564856Y12922437D01*
X5567991Y12938200D01*
Y12948000D01*
D02*
G37*
G36*
X4995413Y12636300D02*
X4826000D01*
Y12508387D01*
X4912050D01*
X4933626Y12511227D01*
X4953732Y12519555D01*
X4970997Y12532803D01*
X4984245Y12550068D01*
X4992573Y12570174D01*
X4995413Y12591750D01*
Y12636300D01*
D02*
G37*
G36*
X4800600D02*
X4631187D01*
Y12591750D01*
X4634027Y12570174D01*
X4642355Y12550068D01*
X4655603Y12532803D01*
X4672868Y12519555D01*
X4692974Y12511227D01*
X4714550Y12508387D01*
X4800600D01*
Y12636300D01*
D02*
G37*
G36*
X8598613Y12674600D02*
X8470700D01*
Y12505187D01*
X8515250D01*
X8536826Y12508027D01*
X8556931Y12516355D01*
X8574196Y12529603D01*
X8587444Y12546868D01*
X8595772Y12566974D01*
X8598613Y12588550D01*
Y12674600D01*
D02*
G37*
G36*
X8445300D02*
X8317387D01*
Y12588550D01*
X8320227Y12566974D01*
X8328555Y12546868D01*
X8341803Y12529603D01*
X8359068Y12516355D01*
X8379174Y12508027D01*
X8400750Y12505187D01*
X8445300D01*
Y12674600D01*
D02*
G37*
G36*
X4988463Y12489943D02*
X4982288Y12488714D01*
X4975992D01*
X4970175Y12486305D01*
X4963999Y12485076D01*
X4958763Y12481578D01*
X4952947Y12479169D01*
X4948495Y12474717D01*
X4943259Y12471218D01*
X4939761Y12465982D01*
X4935309Y12461531D01*
X4932900Y12455714D01*
X4929401Y12450479D01*
X4928173Y12444303D01*
X4925764Y12438486D01*
Y12432190D01*
X4924535Y12426014D01*
Y12367778D01*
X4918413Y12363687D01*
X4908423Y12348736D01*
X4905222Y12332646D01*
X4832234D01*
X4824629Y12344029D01*
X4812572Y12352085D01*
X4798350Y12354914D01*
X4700850D01*
X4686628Y12352085D01*
X4674571Y12344029D01*
X4666515Y12331972D01*
X4663686Y12317750D01*
Y12270250D01*
X4666515Y12256028D01*
X4674571Y12243971D01*
X4686628Y12235915D01*
X4700850Y12233086D01*
X4798350D01*
X4812572Y12235915D01*
X4824629Y12243971D01*
X4831967Y12254953D01*
X4905143D01*
X4908423Y12238464D01*
X4918413Y12223513D01*
X4933364Y12213523D01*
X4951000Y12210015D01*
X5016000D01*
X5033636Y12213523D01*
X5043283Y12219969D01*
X5048588Y12223513D01*
X5067890Y12216402D01*
X5069257Y12214357D01*
X5088408Y12201560D01*
X5111000Y12197066D01*
X5130800D01*
Y12293600D01*
Y12390134D01*
X5111000D01*
X5088408Y12385640D01*
X5072392Y12374938D01*
X5060410Y12378487D01*
X5052392Y12383603D01*
Y12426014D01*
X5051163Y12432190D01*
Y12438486D01*
X5048754Y12444303D01*
X5047526Y12450479D01*
X5044027Y12455714D01*
X5041618Y12461531D01*
X5037166Y12465982D01*
X5033668Y12471218D01*
X5028432Y12474717D01*
X5023980Y12479169D01*
X5018164Y12481578D01*
X5012928Y12485076D01*
X5006752Y12486305D01*
X5000935Y12488714D01*
X4994639D01*
X4988463Y12489943D01*
D02*
G37*
G36*
X5176000Y12390134D02*
X5156200D01*
Y12306300D01*
X5235034D01*
Y12331100D01*
X5230540Y12353692D01*
X5217743Y12372843D01*
X5198592Y12385640D01*
X5176000Y12390134D01*
D02*
G37*
G36*
X5543900Y12438395D02*
X5479700D01*
X5458659Y12435625D01*
X5439052Y12427504D01*
X5422215Y12414585D01*
X5409296Y12397748D01*
X5401175Y12378141D01*
X5398404Y12357100D01*
X5401175Y12336059D01*
X5407284Y12321309D01*
X5353788Y12267812D01*
X5348174Y12259411D01*
X5346202Y12249500D01*
Y12109285D01*
X5334600D01*
X5316964Y12105777D01*
X5302013Y12095787D01*
X5301238Y12094628D01*
X5216980D01*
X5201404Y12110204D01*
X5180664Y12124062D01*
X5156200Y12128928D01*
X5092648D01*
X5092569Y12129047D01*
X5077618Y12139037D01*
X5059982Y12142545D01*
X4984982D01*
X4967346Y12139037D01*
X4952395Y12129047D01*
X4952316Y12128928D01*
X4635500D01*
X4611035Y12124062D01*
X4590296Y12110204D01*
X4247396Y11767304D01*
X4233538Y11746564D01*
X4228672Y11722100D01*
Y11311371D01*
X4227600D01*
X4207316Y11308700D01*
X4188415Y11300871D01*
X4172184Y11288416D01*
X4159729Y11272185D01*
X4151900Y11253284D01*
X4149229Y11233000D01*
Y11103000D01*
X4151900Y11082716D01*
X4159729Y11063815D01*
X4172184Y11047584D01*
X4188415Y11035129D01*
X4207316Y11027300D01*
X4227600Y11024629D01*
X4357600D01*
X4377884Y11027300D01*
X4396785Y11035129D01*
X4413016Y11047584D01*
X4425471Y11063815D01*
X4433300Y11082716D01*
X4435971Y11103000D01*
Y11233000D01*
X4433300Y11253284D01*
X4425471Y11272185D01*
X4413016Y11288416D01*
X4396785Y11300871D01*
X4377884Y11308700D01*
X4357600Y11311371D01*
X4356528D01*
Y11695620D01*
X4661980Y12001072D01*
X4937755D01*
X4946625Y11983209D01*
X4945284Y11979570D01*
X4943239Y11978203D01*
X4930442Y11959051D01*
X4925948Y11936459D01*
Y11916660D01*
X5022482D01*
X5119016D01*
Y11936459D01*
X5114523Y11959051D01*
X5101726Y11978203D01*
X5099680Y11979570D01*
X5098340Y11983209D01*
X5107209Y12001072D01*
X5129720D01*
X5145296Y11985496D01*
X5166036Y11971638D01*
X5190500Y11966772D01*
X5301238D01*
X5302013Y11965613D01*
X5306591Y11962554D01*
Y11938846D01*
X5302013Y11935787D01*
X5292023Y11920836D01*
X5288515Y11903200D01*
Y11838200D01*
X5292023Y11820564D01*
X5302013Y11805613D01*
X5316964Y11795623D01*
X5333661Y11792301D01*
Y11753704D01*
X5321964Y11751377D01*
X5312317Y11744931D01*
X5307012Y11741387D01*
X5287710Y11748498D01*
X5286344Y11750543D01*
X5267192Y11763340D01*
X5244600Y11767834D01*
X5224800D01*
Y11671300D01*
Y11574766D01*
X5244600D01*
X5267192Y11579260D01*
X5286344Y11592057D01*
X5287710Y11594102D01*
X5307012Y11601213D01*
X5312317Y11597669D01*
X5321964Y11591223D01*
X5336628Y11588306D01*
Y11510768D01*
X5330728Y11505746D01*
X5316628Y11498122D01*
X5305033Y11500428D01*
X5302733D01*
Y11442237D01*
Y11384045D01*
X5305033D01*
X5320796Y11387181D01*
X5334159Y11396110D01*
X5336150Y11399089D01*
X5343062Y11405266D01*
X5352225Y11399144D01*
X5363033Y11396994D01*
X5393033D01*
X5403841Y11399144D01*
X5408759Y11402430D01*
X5490782D01*
X5495190Y11397895D01*
X5503975Y11382430D01*
X5503517Y11380125D01*
Y11338875D01*
X5503938Y11336757D01*
X5494981Y11321111D01*
X5490658Y11316757D01*
X5409038D01*
X5403841Y11320230D01*
X5393033Y11322379D01*
X5363033D01*
X5352225Y11320230D01*
X5343062Y11314107D01*
X5336150Y11320284D01*
X5334159Y11323263D01*
X5320796Y11332192D01*
X5305033Y11335328D01*
X5302733D01*
Y11277137D01*
Y11218945D01*
X5305033D01*
X5319463Y11221816D01*
X5321313Y11221760D01*
X5339463Y11210500D01*
Y11205436D01*
X5335070Y11194831D01*
Y11177844D01*
X5341571Y11162150D01*
X5353582Y11150139D01*
X5369276Y11143638D01*
X5386263D01*
X5401957Y11150139D01*
X5413969Y11162150D01*
X5420470Y11177844D01*
Y11194831D01*
X5416340Y11204801D01*
Y11239880D01*
X5475635D01*
X5490568Y11220125D01*
Y11212200D01*
X5590100D01*
X5689632D01*
Y11220125D01*
X5687127Y11232718D01*
X5679994Y11243394D01*
X5676224Y11245913D01*
X5675164Y11251238D01*
X5676684Y11258875D01*
Y11300125D01*
X5675164Y11307762D01*
X5670838Y11314237D01*
Y11324763D01*
X5675164Y11331237D01*
X5676684Y11338875D01*
Y11380125D01*
X5675164Y11387763D01*
X5670838Y11394238D01*
Y11404763D01*
X5675164Y11411238D01*
X5676684Y11418875D01*
Y11460125D01*
X5675164Y11467763D01*
X5670838Y11474238D01*
Y11484763D01*
X5675164Y11491237D01*
X5676684Y11498875D01*
Y11540125D01*
X5675164Y11547763D01*
X5670838Y11554237D01*
X5664363Y11558564D01*
X5656725Y11560083D01*
X5523475D01*
X5515837Y11558564D01*
X5509362Y11554237D01*
X5505036Y11547763D01*
X5503517Y11540125D01*
Y11498875D01*
X5492493Y11481933D01*
X5488953Y11479307D01*
X5413505D01*
Y11589486D01*
X5422236Y11591223D01*
X5437187Y11601213D01*
X5447177Y11616164D01*
X5450685Y11633800D01*
Y11708800D01*
X5447177Y11726436D01*
X5437187Y11741387D01*
X5422236Y11751377D01*
X5410539Y11753704D01*
Y11792301D01*
X5427236Y11795623D01*
X5442187Y11805613D01*
X5452177Y11820564D01*
X5455685Y11838200D01*
Y11903200D01*
X5452177Y11920836D01*
X5442187Y11935787D01*
X5445023Y11956211D01*
X5455862Y11966772D01*
X5608347D01*
X5617429Y11968578D01*
X5621397D01*
X5625063Y11970096D01*
X5632812Y11971638D01*
X5639381Y11976027D01*
X5644442Y11978124D01*
X5648316Y11981997D01*
X5653552Y11985496D01*
X5654130Y11986074D01*
X5657628Y11991310D01*
X5662080Y11995761D01*
X5664489Y12001578D01*
X5667988Y12006814D01*
X5669216Y12012989D01*
X5671625Y12018806D01*
Y12025102D01*
X5672854Y12031278D01*
X5671625Y12037453D01*
Y12043750D01*
X5669216Y12049566D01*
X5667988Y12055742D01*
X5664489Y12060978D01*
X5662080Y12066795D01*
X5657628Y12071246D01*
X5654130Y12076482D01*
X5648894Y12079981D01*
X5644442Y12084432D01*
X5638626Y12086841D01*
X5633390Y12090340D01*
X5627214Y12091568D01*
X5621397Y12093978D01*
X5615101D01*
X5608926Y12095206D01*
X5606019Y12094628D01*
X5442962D01*
X5442187Y12095787D01*
X5427236Y12105777D01*
X5409600Y12109285D01*
X5397998D01*
Y12238773D01*
X5443909Y12284684D01*
X5458659Y12278575D01*
X5479700Y12275805D01*
X5543900D01*
X5564941Y12278575D01*
X5584548Y12286696D01*
X5601385Y12299615D01*
X5614304Y12316452D01*
X5622425Y12336059D01*
X5625196Y12357100D01*
X5622425Y12378141D01*
X5614304Y12397748D01*
X5601385Y12414585D01*
X5584548Y12427504D01*
X5564941Y12435625D01*
X5543900Y12438395D01*
D02*
G37*
G36*
X8339886Y12288183D02*
X8181136D01*
X8162554Y12284487D01*
X8146801Y12273961D01*
X8136275Y12258207D01*
X8132578Y12239625D01*
Y12227598D01*
X8017570D01*
X8016693Y12232008D01*
X8010571Y12241171D01*
X8001408Y12247293D01*
X7990600Y12249443D01*
X7960600D01*
X7949792Y12247293D01*
X7940629Y12241171D01*
X7934507Y12232008D01*
X7933630Y12227598D01*
X7885072D01*
X7884493Y12230508D01*
X7878371Y12239671D01*
X7869208Y12245793D01*
X7858400Y12247943D01*
X7813400D01*
X7802592Y12245793D01*
X7793429Y12239671D01*
X7789294Y12233481D01*
X7778400Y12231845D01*
X7767506Y12233481D01*
X7763371Y12239671D01*
X7754208Y12245793D01*
X7743400Y12247943D01*
X7698400D01*
X7687592Y12245793D01*
X7678429Y12239671D01*
X7672307Y12230508D01*
X7670157Y12219700D01*
Y12189700D01*
X7672307Y12178892D01*
X7678429Y12169729D01*
X7682811Y12166801D01*
Y12133736D01*
X7678900Y12124294D01*
Y12107306D01*
X7685401Y12091613D01*
X7697413Y12079601D01*
X7713106Y12073100D01*
X7730094D01*
X7745787Y12079601D01*
X7757799Y12091613D01*
X7764300Y12107306D01*
Y12124294D01*
X7759689Y12135426D01*
Y12167269D01*
X7763371Y12169729D01*
X7767506Y12175919D01*
X7778400Y12177555D01*
X7789294Y12175919D01*
X7793429Y12169729D01*
X7802592Y12163607D01*
X7813400Y12161457D01*
X7858400D01*
X7869208Y12163607D01*
X7878371Y12169729D01*
X7882429Y12175802D01*
X7932436D01*
X7934507Y12165392D01*
X7940629Y12156229D01*
X7946819Y12152094D01*
X7948455Y12141200D01*
X7946819Y12130306D01*
X7940629Y12126171D01*
X7934507Y12117008D01*
X7932357Y12106200D01*
Y12061200D01*
X7934507Y12050392D01*
X7940629Y12041229D01*
X7948902Y12035702D01*
Y11879643D01*
X7939000D01*
X7928192Y11877493D01*
X7919029Y11871371D01*
X7912907Y11862208D01*
X7910757Y11851400D01*
Y11821400D01*
X7912907Y11810592D01*
X7919029Y11801429D01*
X7928192Y11795307D01*
X7939000Y11793157D01*
X8009000D01*
X8019808Y11795307D01*
X8028971Y11801429D01*
X8035093Y11810592D01*
X8037243Y11821400D01*
Y11851400D01*
X8035093Y11862208D01*
X8028971Y11871371D01*
X8019808Y11877493D01*
X8009000Y11879643D01*
X8000697D01*
Y12034966D01*
X8001408Y12035107D01*
X8010571Y12041229D01*
X8016693Y12050392D01*
X8018843Y12061200D01*
Y12106200D01*
X8016693Y12117008D01*
X8010571Y12126171D01*
X8004381Y12130306D01*
X8002745Y12141200D01*
X8004381Y12152094D01*
X8010571Y12156229D01*
X8016693Y12165392D01*
X8018764Y12175802D01*
X8132578D01*
Y12169775D01*
X8136275Y12151193D01*
X8146801Y12135439D01*
X8162554Y12124913D01*
X8181136Y12121217D01*
X8239126D01*
Y12078530D01*
X8231411Y12073375D01*
X8225288Y12064213D01*
X8223138Y12053405D01*
Y12008404D01*
X8225288Y11997597D01*
X8227855Y11993756D01*
X8230893Y11986986D01*
X8224474Y11969014D01*
X8222255Y11967531D01*
X8213325Y11954168D01*
X8210190Y11938405D01*
Y11928604D01*
X8266381D01*
X8322573D01*
Y11938405D01*
X8319437Y11954168D01*
X8310508Y11967531D01*
X8308288Y11969014D01*
X8301869Y11986986D01*
X8304908Y11993756D01*
X8307474Y11997597D01*
X8309624Y12008404D01*
Y12053405D01*
X8307474Y12064213D01*
X8301352Y12073375D01*
X8292189Y12079498D01*
X8290921Y12079750D01*
Y12121217D01*
X8339886D01*
X8358469Y12124913D01*
X8374222Y12135439D01*
X8384748Y12151193D01*
X8388444Y12169775D01*
Y12239625D01*
X8384748Y12258207D01*
X8374222Y12273961D01*
X8358469Y12284487D01*
X8339886Y12288183D01*
D02*
G37*
G36*
X5235034Y12280900D02*
X5156200D01*
Y12197066D01*
X5176000D01*
X5198592Y12201560D01*
X5217743Y12214357D01*
X5230540Y12233508D01*
X5235034Y12256100D01*
Y12280900D01*
D02*
G37*
G36*
X6483768Y12110955D02*
X6481467D01*
X6465704Y12107819D01*
X6452341Y12098890D01*
X6443412Y12085527D01*
X6440276Y12069763D01*
Y12065464D01*
X6483768D01*
Y12110955D01*
D02*
G37*
G36*
X6840833Y12110028D02*
X6838532D01*
Y12064537D01*
X6882024D01*
Y12068837D01*
X6878888Y12084600D01*
X6869959Y12097963D01*
X6856596Y12106892D01*
X6840833Y12110028D01*
D02*
G37*
G36*
X6483768Y12040064D02*
X6440276D01*
Y12035763D01*
X6443412Y12020000D01*
X6452341Y12006637D01*
X6465704Y11997708D01*
X6481467Y11994572D01*
X6483768D01*
Y12040064D01*
D02*
G37*
G36*
X6882024Y12039137D02*
X6838532D01*
Y11993645D01*
X6840833D01*
X6856596Y11996781D01*
X6869959Y12005710D01*
X6878888Y12019073D01*
X6882024Y12034837D01*
Y12039137D01*
D02*
G37*
G36*
X7635600Y11982743D02*
X7605600D01*
X7594792Y11980593D01*
X7585629Y11974471D01*
X7579507Y11965308D01*
X7578062Y11958042D01*
X7537929D01*
X7537799Y11958696D01*
X7531677Y11967859D01*
X7522514Y11973981D01*
X7511706Y11976131D01*
X7466706D01*
X7455898Y11973981D01*
X7446735Y11967859D01*
X7442599Y11961669D01*
X7431706Y11960034D01*
X7420812Y11961669D01*
X7416677Y11967859D01*
X7407514Y11973981D01*
X7396706Y11976131D01*
X7351706D01*
X7340898Y11973981D01*
X7331735Y11967859D01*
X7326062Y11959369D01*
X7279578D01*
X7268694Y11970253D01*
X7253000Y11976754D01*
X7236013D01*
X7220319Y11970253D01*
X7208307Y11958241D01*
X7201806Y11942547D01*
Y11925560D01*
X7208307Y11909866D01*
X7220319Y11897855D01*
X7236013Y11891354D01*
X7253000D01*
X7268694Y11897855D01*
X7278412Y11907574D01*
X7325515D01*
X7325613Y11907081D01*
X7331735Y11897918D01*
X7340898Y11891796D01*
X7351706Y11889646D01*
X7396706D01*
X7407514Y11891796D01*
X7416677Y11897918D01*
X7420812Y11904108D01*
X7431706Y11905743D01*
X7442599Y11904108D01*
X7446735Y11897918D01*
X7455898Y11891796D01*
X7466706Y11889646D01*
X7511706D01*
X7522514Y11891796D01*
X7531677Y11897918D01*
X7537241Y11906247D01*
X7578004D01*
X7579507Y11898692D01*
X7582073Y11894851D01*
X7585112Y11888082D01*
X7578693Y11870110D01*
X7576473Y11868627D01*
X7567544Y11855263D01*
X7564409Y11839500D01*
Y11829701D01*
X7620600D01*
X7676791D01*
Y11839500D01*
X7673656Y11855263D01*
X7664727Y11868627D01*
X7662507Y11870110D01*
X7656088Y11888082D01*
X7659126Y11894851D01*
X7661693Y11898692D01*
X7663195Y11906247D01*
X7712777D01*
X7712907Y11905592D01*
X7719029Y11896429D01*
X7728192Y11890307D01*
X7739000Y11888157D01*
X7809000D01*
X7819808Y11890307D01*
X7828971Y11896429D01*
X7835093Y11905592D01*
X7837243Y11916400D01*
Y11946400D01*
X7835093Y11957208D01*
X7828971Y11966371D01*
X7819808Y11972493D01*
X7809000Y11974643D01*
X7739000D01*
X7728192Y11972493D01*
X7719029Y11966371D01*
X7713464Y11958042D01*
X7663138D01*
X7661693Y11965308D01*
X7655571Y11974471D01*
X7646408Y11980593D01*
X7635600Y11982743D01*
D02*
G37*
G36*
X4174800Y12240200D02*
X4004400D01*
Y11889800D01*
X4174800D01*
Y12240200D01*
D02*
G37*
G36*
X8322573Y11903204D02*
X8279081D01*
Y11852213D01*
X8281381D01*
X8297144Y11855349D01*
X8310508Y11864278D01*
X8319437Y11877641D01*
X8322573Y11893404D01*
Y11903204D01*
D02*
G37*
G36*
X8253681D02*
X8210190D01*
Y11893404D01*
X8213325Y11877641D01*
X8222255Y11864278D01*
X8235618Y11855349D01*
X8251381Y11852213D01*
X8253681D01*
Y11903204D01*
D02*
G37*
G36*
X4798350Y11909863D02*
X4762300D01*
Y11848699D01*
X4848463D01*
Y11859750D01*
X4844648Y11878927D01*
X4833785Y11895185D01*
X4817528Y11906048D01*
X4798350Y11909863D01*
D02*
G37*
G36*
X4736900D02*
X4700850D01*
X4681673Y11906048D01*
X4665415Y11895185D01*
X4654552Y11878927D01*
X4650737Y11859750D01*
Y11848699D01*
X4736900D01*
Y11909863D01*
D02*
G37*
G36*
X5119016Y11891260D02*
X5035182D01*
Y11812425D01*
X5059982D01*
X5082574Y11816919D01*
X5101726Y11829716D01*
X5114523Y11848868D01*
X5119016Y11871459D01*
Y11891260D01*
D02*
G37*
G36*
X5009782D02*
X4925948D01*
Y11871459D01*
X4930442Y11848868D01*
X4943239Y11829716D01*
X4962391Y11816919D01*
X4984982Y11812425D01*
X5009782D01*
Y11891260D01*
D02*
G37*
G36*
X4848463Y11823299D02*
X4762300D01*
Y11762137D01*
X4798350D01*
X4817528Y11765952D01*
X4833785Y11776815D01*
X4844648Y11793072D01*
X4848463Y11812250D01*
Y11823299D01*
D02*
G37*
G36*
X4736900D02*
X4650737D01*
Y11812250D01*
X4654552Y11793072D01*
X4665415Y11776815D01*
X4681673Y11765952D01*
X4700850Y11762137D01*
X4736900D01*
Y11823299D01*
D02*
G37*
G36*
X7809000Y11797591D02*
X7786700D01*
Y11754100D01*
X7850191D01*
Y11756400D01*
X7847056Y11772163D01*
X7838127Y11785527D01*
X7824763Y11794456D01*
X7809000Y11797591D01*
D02*
G37*
G36*
X7761300D02*
X7739000D01*
X7723237Y11794456D01*
X7709873Y11785527D01*
X7700944Y11772163D01*
X7697809Y11756400D01*
Y11754100D01*
X7761300D01*
Y11797591D01*
D02*
G37*
G36*
X7676791Y11804301D02*
X7633300D01*
Y11753308D01*
X7635600D01*
X7651363Y11756444D01*
X7664727Y11765373D01*
X7673656Y11778737D01*
X7676791Y11794500D01*
Y11804301D01*
D02*
G37*
G36*
X7607900D02*
X7564409D01*
Y11794500D01*
X7567544Y11778737D01*
X7576473Y11765373D01*
X7589837Y11756444D01*
X7605600Y11753308D01*
X7607900D01*
Y11804301D01*
D02*
G37*
G36*
X6383894Y11929900D02*
X6366906D01*
X6351213Y11923399D01*
X6339201Y11911387D01*
X6332700Y11895694D01*
Y11881125D01*
X6268788Y11817212D01*
X6263174Y11808811D01*
X6261202Y11798900D01*
Y11744256D01*
X6252212Y11737238D01*
X6241837D01*
X6235363Y11741564D01*
X6227725Y11743083D01*
X6186475D01*
X6178838Y11741564D01*
X6172363Y11737238D01*
X6161837D01*
X6155363Y11741564D01*
X6147725Y11743083D01*
X6106475D01*
X6098837Y11741564D01*
X6092362Y11737238D01*
X6081837D01*
X6075362Y11741564D01*
X6067725Y11743083D01*
X6026475D01*
X6018837Y11741564D01*
X6012362Y11737238D01*
X6001837D01*
X5995363Y11741564D01*
X5987725Y11743083D01*
X5946475D01*
X5938838Y11741564D01*
X5932363Y11737238D01*
X5921837D01*
X5915363Y11741564D01*
X5907725Y11743083D01*
X5866475D01*
X5858837Y11741564D01*
X5852362Y11737238D01*
X5841837D01*
X5835362Y11741564D01*
X5827725Y11743083D01*
X5786475D01*
X5778837Y11741564D01*
X5772362Y11737238D01*
X5761837D01*
X5755363Y11741564D01*
X5747725Y11743083D01*
X5706475D01*
X5698837Y11741564D01*
X5692363Y11737238D01*
X5688036Y11730763D01*
X5686517Y11723125D01*
Y11589875D01*
X5688036Y11582237D01*
X5692363Y11575762D01*
X5698837Y11571436D01*
X5706475Y11569916D01*
X5747725D01*
X5755363Y11571436D01*
X5761838Y11575762D01*
X5772363D01*
X5778837Y11571436D01*
X5786475Y11569916D01*
X5827725D01*
X5835362Y11571436D01*
X5841837Y11575762D01*
X5852363D01*
X5858837Y11571436D01*
X5866475Y11569916D01*
X5907725D01*
X5915363Y11571436D01*
X5921838Y11575762D01*
X5932363D01*
X5938838Y11571436D01*
X5946475Y11569916D01*
X5987725D01*
X5995363Y11571436D01*
X6001838Y11575762D01*
X6012363D01*
X6018837Y11571436D01*
X6026475Y11569916D01*
X6067725D01*
X6075362Y11571436D01*
X6081837Y11575762D01*
X6092363D01*
X6098837Y11571436D01*
X6106475Y11569916D01*
X6147725D01*
X6155363Y11571436D01*
X6161838Y11575762D01*
X6164921D01*
X6182802Y11560086D01*
Y11526389D01*
X6174101Y11517687D01*
X6167600Y11501994D01*
Y11485006D01*
X6174101Y11469313D01*
X6186113Y11457301D01*
X6201806Y11450800D01*
X6218794D01*
X6234487Y11457301D01*
X6246499Y11469313D01*
X6253000Y11485006D01*
Y11501994D01*
X6246499Y11517687D01*
X6234598Y11529589D01*
Y11566350D01*
X6249472Y11574230D01*
X6252888Y11575411D01*
X6258837Y11571436D01*
X6266475Y11569916D01*
X6307725D01*
X6315363Y11571436D01*
X6321837Y11575762D01*
X6326164Y11582237D01*
X6327683Y11589875D01*
Y11723125D01*
X6326164Y11730763D01*
X6321837Y11737238D01*
X6315363Y11741564D01*
X6312998Y11742035D01*
Y11788173D01*
X6369325Y11844500D01*
X6383894D01*
X6399587Y11851001D01*
X6411599Y11863013D01*
X6418100Y11878706D01*
Y11895694D01*
X6411599Y11911387D01*
X6399587Y11923399D01*
X6383894Y11929900D01*
D02*
G37*
G36*
X7850191Y11728700D02*
X7786700D01*
Y11685209D01*
X7809000D01*
X7824763Y11688344D01*
X7838127Y11697273D01*
X7847056Y11710637D01*
X7850191Y11726400D01*
Y11728700D01*
D02*
G37*
G36*
X7761300D02*
X7697809D01*
Y11726400D01*
X7700944Y11710637D01*
X7709873Y11697273D01*
X7723237Y11688344D01*
X7739000Y11685209D01*
X7761300D01*
Y11728700D01*
D02*
G37*
G36*
X5199400Y11767834D02*
X5179600D01*
X5157008Y11763340D01*
X5137857Y11750543D01*
X5125060Y11731392D01*
X5120566Y11708800D01*
Y11684000D01*
X5199400D01*
Y11767834D01*
D02*
G37*
G36*
X9225711Y12273300D02*
X8582312D01*
Y11678900D01*
X9225711D01*
Y11746301D01*
X9451702D01*
X9488171Y11751102D01*
X9522154Y11765178D01*
X9551337Y11787571D01*
X9573729Y11816753D01*
X9587806Y11850737D01*
X9592607Y11887206D01*
X9587806Y11923675D01*
X9573729Y11957659D01*
X9551337Y11986841D01*
X9522154Y12009234D01*
X9488171Y12023310D01*
X9451702Y12028112D01*
X9225711D01*
Y12273300D01*
D02*
G37*
G36*
X5199400Y11658600D02*
X5120566D01*
Y11633800D01*
X5125060Y11611208D01*
X5137857Y11592057D01*
X5157008Y11579260D01*
X5179600Y11574766D01*
X5199400D01*
Y11658600D01*
D02*
G37*
G36*
X7354800Y12509128D02*
X6904800D01*
X6880336Y12504262D01*
X6859596Y12490404D01*
X6845738Y12469664D01*
X6840872Y12445200D01*
Y12421098D01*
X6819900D01*
X6809989Y12419126D01*
X6801588Y12413512D01*
X6719520Y12331445D01*
X6713906Y12323043D01*
X6711935Y12313133D01*
Y12094870D01*
X6702862Y12088807D01*
X6696740Y12079645D01*
X6694590Y12068837D01*
Y12034837D01*
X6696740Y12024029D01*
X6702862Y12014866D01*
X6711935Y12008804D01*
Y11663460D01*
X6535951Y11487476D01*
X6512130Y11491940D01*
X6509971Y11495292D01*
X6510683Y11498875D01*
Y11540125D01*
X6509164Y11547763D01*
X6504838Y11554237D01*
X6498363Y11558564D01*
X6490725Y11560083D01*
X6449998D01*
Y11582273D01*
X6602780Y11735055D01*
X6608394Y11743457D01*
X6610365Y11753367D01*
Y12009730D01*
X6619438Y12015793D01*
X6625560Y12024955D01*
X6627710Y12035763D01*
Y12069763D01*
X6625560Y12080571D01*
X6619438Y12089734D01*
X6610365Y12095796D01*
Y12300433D01*
X6608394Y12310343D01*
X6602780Y12318745D01*
X6508012Y12413512D01*
X6499611Y12419126D01*
X6489700Y12421098D01*
X6468728D01*
Y12445200D01*
X6463862Y12469664D01*
X6450004Y12490404D01*
X6429264Y12504262D01*
X6404800Y12509128D01*
X5954800D01*
X5930336Y12504262D01*
X5909596Y12490404D01*
X5895738Y12469664D01*
X5890872Y12445200D01*
Y12345200D01*
X5895738Y12320736D01*
X5909596Y12299996D01*
X5930336Y12286138D01*
X5954800Y12281272D01*
X6404800D01*
X6429264Y12286138D01*
X6450004Y12299996D01*
X6463862Y12320736D01*
X6468728Y12345200D01*
Y12351263D01*
X6488728Y12359547D01*
X6558570Y12289705D01*
Y12107986D01*
X6547859Y12102567D01*
X6538570Y12100243D01*
X6527231Y12107819D01*
X6511467Y12110955D01*
X6509168D01*
Y12052764D01*
Y11994572D01*
X6511467D01*
X6527231Y11997708D01*
X6538570Y12005284D01*
X6547859Y12002960D01*
X6558570Y11997540D01*
Y11764095D01*
X6405788Y11611312D01*
X6400174Y11602911D01*
X6398202Y11593000D01*
Y11560083D01*
X6357475D01*
X6349837Y11558564D01*
X6343362Y11554237D01*
X6339036Y11547763D01*
X6337516Y11540125D01*
Y11498875D01*
X6339036Y11491237D01*
X6343362Y11484762D01*
Y11474237D01*
X6339036Y11467763D01*
X6337516Y11460125D01*
Y11418875D01*
X6339036Y11411238D01*
X6343362Y11404763D01*
Y11394237D01*
X6339036Y11387763D01*
X6337516Y11380125D01*
Y11338875D01*
X6339036Y11331238D01*
X6337976Y11325913D01*
X6334206Y11323394D01*
X6327073Y11312718D01*
X6324568Y11300125D01*
Y11292200D01*
X6424100D01*
Y11266800D01*
X6324568D01*
Y11258875D01*
X6327073Y11246282D01*
X6334206Y11235606D01*
X6337976Y11233087D01*
X6339036Y11227762D01*
X6337516Y11220125D01*
Y11178875D01*
X6339036Y11171238D01*
X6337976Y11165913D01*
X6334206Y11163394D01*
X6327073Y11152718D01*
X6324568Y11140125D01*
Y11132200D01*
X6424100D01*
X6532885D01*
X6533037Y11132325D01*
X6559400D01*
X6559619Y11131997D01*
Y11090297D01*
X6554850Y11078784D01*
Y11061797D01*
X6561351Y11046103D01*
X6573362Y11034091D01*
X6589056Y11027590D01*
X6606043D01*
X6621737Y11034091D01*
X6633749Y11046103D01*
X6640250Y11061797D01*
Y11078784D01*
X6636496Y11087844D01*
Y11097221D01*
X6654926Y11108477D01*
X6656496Y11108470D01*
X6671067Y11105572D01*
X6673367D01*
Y11163763D01*
Y11221955D01*
X6671067D01*
X6655304Y11218819D01*
X6641941Y11209890D01*
X6639950Y11206911D01*
X6633038Y11200734D01*
X6623875Y11206856D01*
X6613067Y11209006D01*
X6594054D01*
X6593067Y11209202D01*
X6593066Y11209202D01*
X6548958D01*
X6533980Y11224180D01*
X6531514Y11225828D01*
X6521127Y11246282D01*
X6523632Y11258875D01*
Y11270369D01*
X6524748Y11272275D01*
X6540854Y11283250D01*
X6562454Y11280155D01*
X6563097Y11279193D01*
X6572259Y11273070D01*
X6583067Y11270921D01*
X6613067D01*
X6623875Y11273070D01*
X6633038Y11279193D01*
X6639950Y11273016D01*
X6641941Y11270037D01*
X6655304Y11261108D01*
X6671067Y11257972D01*
X6673367D01*
Y11316163D01*
Y11374355D01*
X6671067D01*
X6657004Y11371557D01*
X6654280Y11371881D01*
X6637005Y11383046D01*
Y11389140D01*
X6641774Y11400654D01*
Y11417641D01*
X6635273Y11433335D01*
X6623261Y11445347D01*
X6607567Y11451848D01*
X6601857D01*
X6593572Y11471848D01*
X6756145Y11634420D01*
X6761759Y11642822D01*
X6763730Y11652733D01*
Y11996614D01*
X6774441Y12002033D01*
X6783730Y12004358D01*
X6795069Y11996781D01*
X6810833Y11993645D01*
X6813132D01*
Y12051837D01*
Y12110028D01*
X6810833D01*
X6795069Y12106892D01*
X6783730Y12099316D01*
X6774441Y12101640D01*
X6763730Y12107060D01*
Y12302405D01*
X6820872Y12359547D01*
X6840872Y12351263D01*
Y12345200D01*
X6845738Y12320736D01*
X6859596Y12299996D01*
X6880336Y12286138D01*
X6904800Y12281272D01*
X7354800D01*
X7379264Y12286138D01*
X7400004Y12299996D01*
X7413862Y12320736D01*
X7418728Y12345200D01*
Y12445200D01*
X7413862Y12469664D01*
X7400004Y12490404D01*
X7379264Y12504262D01*
X7354800Y12509128D01*
D02*
G37*
G36*
X5277333Y11500428D02*
X5275033D01*
X5259269Y11497292D01*
X5245906Y11488363D01*
X5236977Y11475000D01*
X5233841Y11459237D01*
Y11454937D01*
X5277333D01*
Y11500428D01*
D02*
G37*
G36*
Y11429537D02*
X5233841D01*
Y11425237D01*
X5236977Y11409473D01*
X5245906Y11396110D01*
X5259269Y11387181D01*
X5275033Y11384045D01*
X5277333D01*
Y11429537D01*
D02*
G37*
G36*
X6701067Y11374355D02*
X6698767D01*
Y11328863D01*
X6742259D01*
Y11333163D01*
X6739123Y11348927D01*
X6730194Y11362290D01*
X6716831Y11371219D01*
X6701067Y11374355D01*
D02*
G37*
G36*
X5277333Y11335328D02*
X5275033D01*
X5259269Y11332192D01*
X5245906Y11323263D01*
X5236977Y11309900D01*
X5233841Y11294137D01*
Y11289837D01*
X5277333D01*
Y11335328D01*
D02*
G37*
G36*
X6742259Y11303463D02*
X6698767D01*
Y11257972D01*
X6701067D01*
X6716831Y11261108D01*
X6730194Y11270037D01*
X6739123Y11283400D01*
X6742259Y11299163D01*
Y11303463D01*
D02*
G37*
G36*
X7635000Y11277543D02*
X7605000D01*
X7594192Y11275393D01*
X7585029Y11269271D01*
X7578907Y11260108D01*
X7577711Y11254093D01*
X7540436D01*
X7540176Y11255399D01*
X7534054Y11264562D01*
X7524891Y11270684D01*
X7514083Y11272834D01*
X7469083D01*
X7458275Y11270684D01*
X7449112Y11264562D01*
X7444976Y11258372D01*
X7434083Y11256736D01*
X7423189Y11258372D01*
X7419053Y11264562D01*
X7409891Y11270684D01*
X7399083Y11272834D01*
X7354083D01*
X7343275Y11270684D01*
X7334112Y11264562D01*
X7328050Y11255489D01*
X7051291D01*
X7041380Y11253517D01*
X7032979Y11247903D01*
X6770473Y10985398D01*
X6511856D01*
X6504838Y10994388D01*
Y11004763D01*
X6509164Y11011237D01*
X6510683Y11018875D01*
Y11060125D01*
X6509164Y11067762D01*
X6510223Y11073087D01*
X6513994Y11075606D01*
X6521127Y11086282D01*
X6523632Y11098875D01*
Y11106800D01*
X6424100D01*
X6324568D01*
Y11098875D01*
X6327073Y11086282D01*
X6334206Y11075606D01*
X6337976Y11073087D01*
X6339036Y11067762D01*
X6337516Y11060125D01*
Y11018875D01*
X6339036Y11011237D01*
X6343362Y11004762D01*
Y10994237D01*
X6339036Y10987763D01*
X6337516Y10980125D01*
Y10938875D01*
X6339036Y10931237D01*
X6343362Y10924763D01*
X6349837Y10920436D01*
X6357475Y10918917D01*
X6490725D01*
X6498363Y10920436D01*
X6504838Y10924763D01*
X6509164Y10931237D01*
X6509635Y10933602D01*
X6781200D01*
X6791111Y10935574D01*
X6799512Y10941188D01*
X7062018Y11203693D01*
X7328050D01*
X7334112Y11194620D01*
X7343275Y11188498D01*
X7354083Y11186348D01*
X7399083D01*
X7409891Y11188498D01*
X7419053Y11194620D01*
X7423189Y11200810D01*
X7434083Y11202445D01*
X7444976Y11200810D01*
X7449112Y11194620D01*
X7458275Y11188498D01*
X7469083Y11186348D01*
X7514083D01*
X7524891Y11188498D01*
X7534054Y11194620D01*
X7539183Y11202298D01*
X7577156D01*
X7578907Y11193492D01*
X7581474Y11189651D01*
X7584512Y11182882D01*
X7578093Y11164910D01*
X7575873Y11163427D01*
X7566944Y11150063D01*
X7563809Y11134300D01*
Y11124500D01*
X7620000D01*
X7676191D01*
Y11134300D01*
X7673056Y11150063D01*
X7664127Y11163427D01*
X7661907Y11164910D01*
X7655488Y11182882D01*
X7658526Y11189651D01*
X7661093Y11193492D01*
X7663174Y11203952D01*
X7715005D01*
X7719029Y11197929D01*
X7728192Y11191807D01*
X7739000Y11189657D01*
X7809000D01*
X7819808Y11191807D01*
X7828971Y11197929D01*
X7835093Y11207092D01*
X7837243Y11217900D01*
Y11247900D01*
X7835093Y11258708D01*
X7828971Y11267871D01*
X7819808Y11273993D01*
X7809000Y11276143D01*
X7739000D01*
X7728192Y11273993D01*
X7719029Y11267871D01*
X7712907Y11258708D01*
X7712318Y11255748D01*
X7661960D01*
X7661093Y11260108D01*
X7654971Y11269271D01*
X7645808Y11275393D01*
X7635000Y11277543D01*
D02*
G37*
G36*
X7729584Y11649609D02*
X7712597D01*
X7696904Y11643108D01*
X7684892Y11631096D01*
X7678391Y11615402D01*
Y11598415D01*
X7682461Y11588589D01*
Y11543865D01*
X7678429Y11541171D01*
X7672307Y11532008D01*
X7670157Y11521200D01*
Y11491200D01*
X7672307Y11480392D01*
X7678429Y11471229D01*
X7687592Y11465107D01*
X7698400Y11462957D01*
X7743400D01*
X7754208Y11465107D01*
X7763371Y11471229D01*
X7767506Y11477419D01*
X7778400Y11479055D01*
X7789294Y11477419D01*
X7793429Y11471229D01*
X7802592Y11465107D01*
X7813400Y11462957D01*
X7858400D01*
X7869208Y11465107D01*
X7878371Y11471229D01*
X7884433Y11480302D01*
X7932357D01*
Y11477700D01*
X7934507Y11466892D01*
X7940629Y11457729D01*
X7946819Y11453594D01*
X7948455Y11442700D01*
X7946819Y11431806D01*
X7940629Y11427671D01*
X7934507Y11418508D01*
X7932357Y11407700D01*
Y11362700D01*
X7934507Y11351892D01*
X7940629Y11342729D01*
X7948902Y11337202D01*
Y11181143D01*
X7939000D01*
X7928192Y11178993D01*
X7919029Y11172871D01*
X7912907Y11163708D01*
X7910757Y11152900D01*
Y11122900D01*
X7912907Y11112092D01*
X7919029Y11102929D01*
X7928192Y11096807D01*
X7939000Y11094657D01*
X8009000D01*
X8019808Y11096807D01*
X8028971Y11102929D01*
X8035093Y11112092D01*
X8037243Y11122900D01*
Y11152900D01*
X8035093Y11163708D01*
X8028971Y11172871D01*
X8019808Y11178993D01*
X8009000Y11181143D01*
X8000697D01*
Y11336466D01*
X8001408Y11336607D01*
X8010571Y11342729D01*
X8016693Y11351892D01*
X8018843Y11362700D01*
Y11407700D01*
X8016693Y11418508D01*
X8010571Y11427671D01*
X8004381Y11431806D01*
X8002745Y11442700D01*
X8004381Y11453594D01*
X8010571Y11457729D01*
X8016693Y11466892D01*
X8018843Y11477700D01*
Y11480302D01*
X8132578D01*
Y11471275D01*
X8136275Y11452693D01*
X8146801Y11436939D01*
X8162554Y11426413D01*
X8181136Y11422717D01*
X8239327D01*
Y11383817D01*
X8230254Y11377755D01*
X8224132Y11368592D01*
X8221982Y11357784D01*
Y11312784D01*
X8224132Y11301976D01*
X8226699Y11298135D01*
X8229737Y11291366D01*
X8223318Y11273394D01*
X8221098Y11271911D01*
X8212169Y11258547D01*
X8209034Y11242784D01*
Y11232983D01*
X8265225D01*
X8321416D01*
Y11242784D01*
X8318281Y11258547D01*
X8309352Y11271911D01*
X8307132Y11273394D01*
X8300713Y11291366D01*
X8303751Y11298135D01*
X8306318Y11301976D01*
X8308468Y11312784D01*
Y11357784D01*
X8306318Y11368592D01*
X8300196Y11377755D01*
X8291123Y11383817D01*
Y11422717D01*
X8339886D01*
X8358469Y11426413D01*
X8374222Y11436939D01*
X8384748Y11452693D01*
X8388444Y11471275D01*
Y11541125D01*
X8384748Y11559707D01*
X8374222Y11575461D01*
X8358469Y11585987D01*
X8339886Y11589683D01*
X8181136D01*
X8162554Y11585987D01*
X8146801Y11575461D01*
X8136275Y11559707D01*
X8132578Y11541125D01*
Y11532098D01*
X8016974D01*
X8016693Y11533508D01*
X8010571Y11542671D01*
X8001408Y11548793D01*
X7990600Y11550943D01*
X7960600D01*
X7949792Y11548793D01*
X7940629Y11542671D01*
X7934507Y11533508D01*
X7934226Y11532098D01*
X7884433D01*
X7878371Y11541171D01*
X7869208Y11547293D01*
X7858400Y11549443D01*
X7813400D01*
X7802592Y11547293D01*
X7793429Y11541171D01*
X7789294Y11534981D01*
X7778400Y11533345D01*
X7767506Y11534981D01*
X7763371Y11541171D01*
X7759339Y11543865D01*
Y11587667D01*
X7763791Y11598415D01*
Y11615402D01*
X7757290Y11631096D01*
X7745278Y11643108D01*
X7729584Y11649609D01*
D02*
G37*
G36*
X5277333Y11264437D02*
X5233841D01*
Y11260137D01*
X5236977Y11244373D01*
X5245906Y11231010D01*
X5259269Y11222081D01*
X5275033Y11218945D01*
X5277333D01*
Y11264437D01*
D02*
G37*
G36*
X6701067Y11221955D02*
X6698767D01*
Y11176463D01*
X6742259D01*
Y11180763D01*
X6739123Y11196527D01*
X6730194Y11209890D01*
X6716831Y11218819D01*
X6701067Y11221955D01*
D02*
G37*
G36*
X8321416Y11207583D02*
X8277925D01*
Y11156592D01*
X8280225D01*
X8295988Y11159728D01*
X8309352Y11168657D01*
X8318281Y11182021D01*
X8321416Y11197784D01*
Y11207583D01*
D02*
G37*
G36*
X8252525D02*
X8209034D01*
Y11197784D01*
X8212169Y11182021D01*
X8221098Y11168657D01*
X8234462Y11159728D01*
X8250225Y11156592D01*
X8252525D01*
Y11207583D01*
D02*
G37*
G36*
X5261637Y11187259D02*
X5257337D01*
Y11143767D01*
X5302828D01*
Y11146067D01*
X5299692Y11161831D01*
X5290763Y11175194D01*
X5277400Y11184123D01*
X5261637Y11187259D01*
D02*
G37*
G36*
X5231937D02*
X5227637D01*
X5211873Y11184123D01*
X5198510Y11175194D01*
X5189581Y11161831D01*
X5186445Y11146067D01*
Y11143767D01*
X5231937D01*
Y11187259D01*
D02*
G37*
G36*
X6742259Y11151063D02*
X6698767D01*
Y11105572D01*
X6701067D01*
X6716831Y11108708D01*
X6730194Y11117637D01*
X6739123Y11131000D01*
X6742259Y11146763D01*
Y11151063D01*
D02*
G37*
G36*
X5689632Y11186800D02*
X5590100D01*
X5490568D01*
Y11178875D01*
X5493073Y11166282D01*
X5500206Y11155606D01*
X5503977Y11153087D01*
X5505036Y11147762D01*
X5503517Y11140125D01*
Y11098875D01*
X5505036Y11091237D01*
X5506828Y11088555D01*
X5501713Y11074406D01*
X5497695Y11068965D01*
X5333538D01*
X5333537Y11068965D01*
X5299860D01*
X5294440Y11079675D01*
X5292116Y11088965D01*
X5299692Y11100304D01*
X5302828Y11116067D01*
Y11118367D01*
X5186445D01*
Y11116067D01*
X5189581Y11100304D01*
X5197158Y11088965D01*
X5194833Y11079675D01*
X5189414Y11068965D01*
X5035967D01*
X5026057Y11066994D01*
X5017655Y11061380D01*
X4645873Y10689598D01*
X4600333D01*
X4594271Y10698671D01*
X4585108Y10704793D01*
X4574300Y10706943D01*
X4544300D01*
X4533492Y10704793D01*
X4524329Y10698671D01*
X4519704Y10691748D01*
X4433971D01*
X4425575Y10723080D01*
X4406788Y10755620D01*
X4380220Y10782188D01*
X4347680Y10800975D01*
X4311387Y10810700D01*
X4273813D01*
X4237520Y10800975D01*
X4204980Y10782188D01*
X4178412Y10755620D01*
X4159625Y10723080D01*
X4149900Y10686787D01*
Y10649213D01*
X4159625Y10612920D01*
X4178412Y10580380D01*
X4204980Y10553812D01*
X4237520Y10535025D01*
X4273813Y10525300D01*
X4311387D01*
X4347680Y10535025D01*
X4380220Y10553812D01*
X4406788Y10580380D01*
X4425575Y10612920D01*
X4432819Y10639953D01*
X4517797D01*
X4518207Y10637892D01*
X4524329Y10628729D01*
X4533492Y10622607D01*
X4544300Y10620457D01*
X4574300D01*
X4585108Y10622607D01*
X4594271Y10628729D01*
X4600333Y10637802D01*
X4656600D01*
X4666511Y10639774D01*
X4674912Y10645388D01*
X5046695Y11017170D01*
X5201604D01*
X5207666Y11008097D01*
X5216829Y11001974D01*
X5227637Y10999825D01*
X5261637D01*
X5272445Y11001974D01*
X5281607Y11008097D01*
X5287670Y11017170D01*
X5333536D01*
X5333537Y11017169D01*
X5496879D01*
X5504582Y10997470D01*
X5493086Y10985398D01*
X5447700D01*
X5437789Y10983426D01*
X5429388Y10977812D01*
X5359720Y10908145D01*
X5354106Y10899743D01*
X5352135Y10889833D01*
Y10887860D01*
X5341425Y10882440D01*
X5332135Y10880116D01*
X5320796Y10887692D01*
X5305033Y10890828D01*
X5302733D01*
Y10832637D01*
Y10774445D01*
X5305033D01*
X5320796Y10777581D01*
X5332135Y10785157D01*
X5341425Y10782833D01*
X5352135Y10777414D01*
Y9808714D01*
X5345492Y9807393D01*
X5336329Y9801271D01*
X5332194Y9795081D01*
X5321300Y9793445D01*
X5310406Y9795081D01*
X5306271Y9801271D01*
X5297108Y9807393D01*
X5286300Y9809543D01*
X5241300D01*
X5230492Y9807393D01*
X5226519Y9804739D01*
X5187681D01*
X5177394Y9809000D01*
X5160406D01*
X5144713Y9802499D01*
X5132701Y9790487D01*
X5126200Y9774794D01*
Y9757806D01*
X5132701Y9742113D01*
X5144713Y9730101D01*
X5160406Y9723600D01*
X5177394D01*
X5187681Y9727861D01*
X5226519D01*
X5230492Y9725207D01*
X5241300Y9723057D01*
X5286300D01*
X5297108Y9725207D01*
X5306271Y9731329D01*
X5310406Y9737519D01*
X5321300Y9739155D01*
X5332194Y9737519D01*
X5336329Y9731329D01*
X5345492Y9725207D01*
X5352902Y9723733D01*
Y9694827D01*
X5247888Y9589812D01*
X5242274Y9581411D01*
X5240302Y9571500D01*
Y9527933D01*
X5231229Y9521871D01*
X5225107Y9512708D01*
X5222957Y9501900D01*
Y9471900D01*
X5225107Y9461092D01*
X5231229Y9451929D01*
X5240302Y9445867D01*
Y9395100D01*
X5242274Y9385190D01*
X5247888Y9376788D01*
X5299994Y9324682D01*
X5295877Y9317551D01*
X5289900Y9295246D01*
Y9272154D01*
X5295877Y9249849D01*
X5307423Y9229851D01*
X5323751Y9213523D01*
X5343749Y9201977D01*
X5366054Y9196000D01*
X5389146D01*
X5411451Y9201977D01*
X5431449Y9213523D01*
X5447777Y9229851D01*
X5459323Y9249849D01*
X5465300Y9272154D01*
Y9295246D01*
X5459323Y9317551D01*
X5447777Y9337549D01*
X5431449Y9353877D01*
X5411451Y9365423D01*
X5389146Y9371400D01*
X5366054D01*
X5343749Y9365423D01*
X5336618Y9361306D01*
X5292098Y9405827D01*
Y9445867D01*
X5301171Y9451929D01*
X5307293Y9461092D01*
X5309443Y9471900D01*
Y9501900D01*
X5307293Y9512708D01*
X5301171Y9521871D01*
X5292098Y9527933D01*
Y9560773D01*
X5397112Y9665788D01*
X5402726Y9674189D01*
X5404698Y9684100D01*
Y9723733D01*
X5412108Y9725207D01*
X5421271Y9731329D01*
X5427393Y9740492D01*
X5429543Y9751300D01*
Y9763511D01*
X5430098Y9766300D01*
X5429543Y9769089D01*
Y9781300D01*
X5427393Y9792108D01*
X5421271Y9801271D01*
X5412108Y9807393D01*
X5403930Y9809019D01*
Y10789604D01*
X5413003Y10795666D01*
X5419126Y10804829D01*
X5421275Y10815637D01*
Y10849637D01*
X5419126Y10860445D01*
X5413003Y10869607D01*
X5416290Y10891465D01*
X5458427Y10933602D01*
X5504565D01*
X5505036Y10931237D01*
X5509362Y10924763D01*
X5515837Y10920436D01*
X5523475Y10918917D01*
X5656725D01*
X5664363Y10920436D01*
X5670838Y10924763D01*
X5675164Y10931237D01*
X5676684Y10938875D01*
Y10980125D01*
X5675164Y10987763D01*
X5670838Y10994238D01*
Y11004763D01*
X5675164Y11011237D01*
X5676684Y11018875D01*
Y11060125D01*
X5675164Y11067762D01*
X5670838Y11074237D01*
Y11084763D01*
X5675164Y11091237D01*
X5676684Y11098875D01*
Y11140125D01*
X5675164Y11147762D01*
X5676224Y11153087D01*
X5679994Y11155606D01*
X5687127Y11166282D01*
X5689632Y11178875D01*
Y11186800D01*
D02*
G37*
G36*
X7809000Y11099091D02*
X7786700D01*
Y11055600D01*
X7850191D01*
Y11057900D01*
X7847056Y11073663D01*
X7838127Y11087027D01*
X7824763Y11095956D01*
X7809000Y11099091D01*
D02*
G37*
G36*
X7761300D02*
X7739000D01*
X7723237Y11095956D01*
X7709873Y11087027D01*
X7700944Y11073663D01*
X7697809Y11057900D01*
Y11055600D01*
X7761300D01*
Y11099091D01*
D02*
G37*
G36*
X7676191Y11099100D02*
X7632700D01*
Y11048108D01*
X7635000D01*
X7650763Y11051244D01*
X7664127Y11060173D01*
X7673056Y11073537D01*
X7676191Y11089300D01*
Y11099100D01*
D02*
G37*
G36*
X7607300D02*
X7563809D01*
Y11089300D01*
X7566944Y11073537D01*
X7575873Y11060173D01*
X7589237Y11051244D01*
X7605000Y11048108D01*
X7607300D01*
Y11099100D01*
D02*
G37*
G36*
X7850191Y11030200D02*
X7786700D01*
Y10986709D01*
X7809000D01*
X7824763Y10989844D01*
X7838127Y10998773D01*
X7847056Y11012137D01*
X7850191Y11027900D01*
Y11030200D01*
D02*
G37*
G36*
X9451702Y11647112D02*
X9415233Y11642310D01*
X9381249Y11628234D01*
X9352066Y11605841D01*
X9322231Y11576006D01*
X9061511D01*
X9052353Y11574800D01*
X8582312D01*
Y10980400D01*
X9225711D01*
Y11294195D01*
X9380596D01*
X9417065Y11298996D01*
X9451048Y11313072D01*
X9480231Y11335465D01*
X9551337Y11406571D01*
X9573729Y11435753D01*
X9587806Y11469737D01*
X9592607Y11506206D01*
X9587806Y11542675D01*
X9573729Y11576659D01*
X9551337Y11605841D01*
X9522154Y11628234D01*
X9488171Y11642310D01*
X9451702Y11647112D01*
D02*
G37*
G36*
X6307725Y10909084D02*
X6266475D01*
X6258837Y10907564D01*
X6252362Y10903238D01*
X6241837D01*
X6235363Y10907564D01*
X6227725Y10909084D01*
X6186475D01*
X6178838Y10907564D01*
X6172363Y10903238D01*
X6161837D01*
X6155363Y10907564D01*
X6147725Y10909084D01*
X6106475D01*
X6098837Y10907564D01*
X6092362Y10903238D01*
X6081837D01*
X6075362Y10907564D01*
X6067725Y10909084D01*
X6026475D01*
X6018837Y10907564D01*
X6012362Y10903238D01*
X6001837D01*
X5995363Y10907564D01*
X5987725Y10909084D01*
X5946475D01*
X5938838Y10907564D01*
X5932363Y10903238D01*
X5921837D01*
X5915363Y10907564D01*
X5907725Y10909084D01*
X5866475D01*
X5858837Y10907564D01*
X5852362Y10903238D01*
X5841837D01*
X5835362Y10907564D01*
X5827725Y10909084D01*
X5786475D01*
X5778837Y10907564D01*
X5772362Y10903238D01*
X5761837D01*
X5755363Y10907564D01*
X5747725Y10909084D01*
X5706475D01*
X5698837Y10907564D01*
X5692363Y10903238D01*
X5688036Y10896763D01*
X5686517Y10889125D01*
Y10848398D01*
X5653600D01*
X5643689Y10846426D01*
X5635288Y10840812D01*
X5568788Y10774312D01*
X5563174Y10765911D01*
X5561202Y10756000D01*
Y10710523D01*
X5550492Y10705103D01*
X5541203Y10702779D01*
X5529863Y10710356D01*
X5514100Y10713491D01*
X5511800D01*
Y10655300D01*
Y10597109D01*
X5514100D01*
X5529863Y10600244D01*
X5541203Y10607821D01*
X5550492Y10605497D01*
X5561202Y10600077D01*
Y10491100D01*
X5563174Y10481189D01*
X5568788Y10472788D01*
X6166588Y9874988D01*
X6174989Y9869374D01*
X6184900Y9867402D01*
X6402773D01*
X6432402Y9837773D01*
Y9808867D01*
X6424992Y9807393D01*
X6415829Y9801271D01*
X6411694Y9795081D01*
X6400800Y9793445D01*
X6389906Y9795081D01*
X6385771Y9801271D01*
X6376608Y9807393D01*
X6365800Y9809543D01*
X6320800D01*
X6309992Y9807393D01*
X6306019Y9804739D01*
X6267181D01*
X6256894Y9809000D01*
X6239906D01*
X6224213Y9802499D01*
X6212201Y9790487D01*
X6205700Y9774794D01*
Y9757806D01*
X6212201Y9742113D01*
X6224213Y9730101D01*
X6239906Y9723600D01*
X6256894D01*
X6267181Y9727861D01*
X6306019D01*
X6309992Y9725207D01*
X6320800Y9723057D01*
X6365800D01*
X6376608Y9725207D01*
X6385771Y9731329D01*
X6389906Y9737519D01*
X6400800Y9739155D01*
X6411694Y9737519D01*
X6415829Y9731329D01*
X6424992Y9725207D01*
X6432402Y9723733D01*
Y9682127D01*
X6331688Y9581412D01*
X6326074Y9573011D01*
X6324102Y9563100D01*
Y9527933D01*
X6315029Y9521871D01*
X6308907Y9512708D01*
X6306757Y9501900D01*
Y9471900D01*
X6308907Y9461092D01*
X6315029Y9451929D01*
X6324102Y9445867D01*
Y9390800D01*
X6326074Y9380890D01*
X6331688Y9372488D01*
X6379494Y9324682D01*
X6375377Y9317551D01*
X6369400Y9295246D01*
Y9272154D01*
X6375377Y9249849D01*
X6386923Y9229851D01*
X6403251Y9213523D01*
X6423249Y9201977D01*
X6445554Y9196000D01*
X6468646D01*
X6490951Y9201977D01*
X6510949Y9213523D01*
X6527277Y9229851D01*
X6538823Y9249849D01*
X6544800Y9272154D01*
Y9295246D01*
X6538823Y9317551D01*
X6527277Y9337549D01*
X6510949Y9353877D01*
X6490951Y9365423D01*
X6468646Y9371400D01*
X6445554D01*
X6423249Y9365423D01*
X6416118Y9361306D01*
X6375898Y9401527D01*
Y9445867D01*
X6384971Y9451929D01*
X6391093Y9461092D01*
X6393243Y9471900D01*
Y9501900D01*
X6391093Y9512708D01*
X6384971Y9521871D01*
X6375898Y9527933D01*
Y9552373D01*
X6476612Y9653088D01*
X6482226Y9661489D01*
X6484198Y9671400D01*
Y9723733D01*
X6491608Y9725207D01*
X6500771Y9731329D01*
X6506893Y9740492D01*
X6509043Y9751300D01*
Y9781300D01*
X6506893Y9792108D01*
X6500771Y9801271D01*
X6491608Y9807393D01*
X6484198Y9808867D01*
Y9848500D01*
X6482226Y9858411D01*
X6476612Y9866812D01*
X6445222Y9898202D01*
X6453507Y9918202D01*
X7418773D01*
X7499202Y9837773D01*
Y9808867D01*
X7491792Y9807393D01*
X7482629Y9801271D01*
X7478494Y9795081D01*
X7467600Y9793445D01*
X7456706Y9795081D01*
X7452571Y9801271D01*
X7443408Y9807393D01*
X7432600Y9809543D01*
X7387600D01*
X7376792Y9807393D01*
X7372819Y9804739D01*
X7308581D01*
X7298294Y9809000D01*
X7281306D01*
X7265613Y9802499D01*
X7253601Y9790487D01*
X7247100Y9774794D01*
Y9757806D01*
X7253601Y9742113D01*
X7265613Y9730101D01*
X7281306Y9723600D01*
X7298294D01*
X7308581Y9727861D01*
X7372819D01*
X7376792Y9725207D01*
X7387600Y9723057D01*
X7432600D01*
X7443408Y9725207D01*
X7452571Y9731329D01*
X7456706Y9737519D01*
X7467600Y9739155D01*
X7478494Y9737519D01*
X7482629Y9731329D01*
X7491792Y9725207D01*
X7498602Y9723853D01*
Y9681527D01*
X7394188Y9577112D01*
X7388574Y9568711D01*
X7386602Y9558800D01*
Y9527933D01*
X7377529Y9521871D01*
X7371407Y9512708D01*
X7369257Y9501900D01*
Y9471900D01*
X7371407Y9461092D01*
X7377529Y9451929D01*
X7386602Y9445867D01*
Y9395100D01*
X7388574Y9385190D01*
X7394188Y9376788D01*
X7446455Y9324521D01*
X7442777Y9318151D01*
X7436800Y9295846D01*
Y9272754D01*
X7442777Y9250449D01*
X7454323Y9230451D01*
X7470651Y9214123D01*
X7490649Y9202577D01*
X7512954Y9196600D01*
X7536046D01*
X7558351Y9202577D01*
X7578349Y9214123D01*
X7594677Y9230451D01*
X7606223Y9250449D01*
X7612200Y9272754D01*
Y9295846D01*
X7606223Y9318151D01*
X7594677Y9338149D01*
X7578349Y9354477D01*
X7558351Y9366023D01*
X7536046Y9372000D01*
X7512954D01*
X7490649Y9366023D01*
X7482758Y9361467D01*
X7438398Y9405827D01*
Y9445867D01*
X7447471Y9451929D01*
X7453593Y9461092D01*
X7455743Y9471900D01*
Y9501900D01*
X7453593Y9512708D01*
X7447471Y9521871D01*
X7438398Y9527933D01*
Y9548073D01*
X7542812Y9652488D01*
X7548426Y9660889D01*
X7550398Y9670800D01*
Y9723614D01*
X7558408Y9725207D01*
X7567571Y9731329D01*
X7573693Y9740492D01*
X7575843Y9751300D01*
Y9781300D01*
X7573693Y9792108D01*
X7567571Y9801271D01*
X7558408Y9807393D01*
X7550998Y9808867D01*
Y9848500D01*
X7549026Y9858411D01*
X7543412Y9866812D01*
X7447812Y9962412D01*
X7439411Y9968026D01*
X7429500Y9969998D01*
X6362543D01*
X6359321Y9972990D01*
X6350827Y9989998D01*
X6354600Y9999106D01*
Y10016094D01*
X6350339Y10026381D01*
Y10065219D01*
X6352993Y10069192D01*
X6355143Y10080000D01*
Y10125000D01*
X6352993Y10135808D01*
X6346871Y10144971D01*
X6340681Y10149106D01*
X6339045Y10160000D01*
X6340681Y10170894D01*
X6346871Y10175029D01*
X6352993Y10184192D01*
X6353801Y10188252D01*
X6391766D01*
X6397380Y10167299D01*
X6412218Y10141600D01*
X6433200Y10120618D01*
X6458899Y10105780D01*
X6487563Y10098100D01*
X6517237D01*
X6545901Y10105780D01*
X6571600Y10120618D01*
X6592582Y10141600D01*
X6607420Y10167299D01*
X6615100Y10195963D01*
Y10225637D01*
X6607420Y10254301D01*
X6592582Y10280000D01*
X6571600Y10300982D01*
X6545901Y10315820D01*
X6517237Y10323500D01*
X6487563D01*
X6458899Y10315820D01*
X6433200Y10300982D01*
X6412218Y10280000D01*
X6397380Y10254301D01*
X6393561Y10240048D01*
X6355133D01*
X6352993Y10250808D01*
X6346871Y10259971D01*
X6337708Y10266093D01*
X6331110Y10267405D01*
X6331110Y10287797D01*
X6334511Y10288474D01*
X6342912Y10294088D01*
X6487727Y10438902D01*
X6695251D01*
X6698337Y10434953D01*
X6704110Y10418902D01*
X6701107Y10414408D01*
X6698957Y10403600D01*
Y10373600D01*
X6701107Y10362792D01*
X6707229Y10353629D01*
X6716392Y10347507D01*
X6727152Y10345367D01*
Y10319639D01*
X6712899Y10315820D01*
X6687200Y10300982D01*
X6666218Y10280000D01*
X6651380Y10254301D01*
X6643700Y10225637D01*
Y10195963D01*
X6651380Y10167299D01*
X6666218Y10141600D01*
X6687200Y10120618D01*
X6712899Y10105780D01*
X6741563Y10098100D01*
X6771237D01*
X6799901Y10105780D01*
X6825600Y10120618D01*
X6846582Y10141600D01*
X6861420Y10167299D01*
X6869100Y10195963D01*
Y10225637D01*
X6861420Y10254301D01*
X6846582Y10280000D01*
X6825600Y10300982D01*
X6799901Y10315820D01*
X6778948Y10321434D01*
Y10346699D01*
X6783008Y10347507D01*
X6792171Y10353629D01*
X6796306Y10359819D01*
X6807200Y10361455D01*
X6818094Y10359819D01*
X6822229Y10353629D01*
X6831392Y10347507D01*
X6842200Y10345357D01*
X6887200D01*
X6898008Y10347507D01*
X6901981Y10350161D01*
X6991619D01*
X7001906Y10345900D01*
X7018894D01*
X7034587Y10352401D01*
X7046599Y10364413D01*
X7053100Y10380106D01*
Y10397094D01*
X7046599Y10412787D01*
X7038665Y10420721D01*
X7035004Y10428102D01*
X7037184Y10445372D01*
X7042013Y10450201D01*
X7048514Y10465894D01*
Y10472995D01*
X7068514Y10481280D01*
X7195287Y10354507D01*
X7195086Y10347394D01*
X7189437Y10332073D01*
X7176375Y10326662D01*
X7160624Y10314576D01*
X7148538Y10298825D01*
X7140941Y10280484D01*
X7138349Y10260800D01*
Y10246001D01*
X7118349Y10243368D01*
X7115420Y10254301D01*
X7100582Y10280000D01*
X7079600Y10300982D01*
X7053901Y10315820D01*
X7025237Y10323500D01*
X6995563D01*
X6966899Y10315820D01*
X6941200Y10300982D01*
X6920218Y10280000D01*
X6905380Y10254301D01*
X6897700Y10225637D01*
Y10195963D01*
X6905380Y10167299D01*
X6920218Y10141600D01*
X6941200Y10120618D01*
X6966899Y10105780D01*
X6995563Y10098100D01*
X7025237D01*
X7053901Y10105780D01*
X7079600Y10120618D01*
X7100582Y10141600D01*
X7115420Y10167299D01*
X7118349Y10178232D01*
X7138349Y10175599D01*
Y10160800D01*
X7140941Y10141116D01*
X7148538Y10122775D01*
X7160624Y10107024D01*
X7176375Y10094938D01*
X7194716Y10087341D01*
X7214400Y10084749D01*
X7251700D01*
Y10210800D01*
X7264400D01*
Y10223500D01*
X7390451D01*
Y10260800D01*
X7387859Y10280484D01*
X7380262Y10298825D01*
X7368176Y10314576D01*
X7364623Y10317302D01*
X7371412Y10337302D01*
X7393373D01*
X8046188Y9684488D01*
X8054590Y9678874D01*
X8064500Y9676902D01*
X8444273D01*
X8504202Y9616973D01*
Y9527933D01*
X8495129Y9521871D01*
X8489007Y9512708D01*
X8486857Y9501900D01*
Y9471900D01*
X8489007Y9461092D01*
X8495129Y9451929D01*
X8504292Y9445807D01*
X8508502Y9444970D01*
Y9384471D01*
X8510474Y9374560D01*
X8516088Y9366159D01*
X8557565Y9324682D01*
X8553448Y9317551D01*
X8547471Y9295246D01*
Y9272154D01*
X8553448Y9249849D01*
X8564994Y9229851D01*
X8581322Y9213523D01*
X8601320Y9201977D01*
X8623625Y9196000D01*
X8646717D01*
X8669022Y9201977D01*
X8689020Y9213523D01*
X8705348Y9229851D01*
X8716894Y9249849D01*
X8722871Y9272154D01*
Y9295246D01*
X8716894Y9317551D01*
X8705348Y9337549D01*
X8689020Y9353877D01*
X8669022Y9365423D01*
X8646717Y9371400D01*
X8623625D01*
X8601320Y9365423D01*
X8594189Y9361306D01*
X8560298Y9395198D01*
Y9448740D01*
X8565071Y9451929D01*
X8571193Y9461092D01*
X8573343Y9471900D01*
Y9501900D01*
X8571193Y9512708D01*
X8565071Y9521871D01*
X8555998Y9527933D01*
Y9616973D01*
X8601912Y9662888D01*
X8607526Y9671290D01*
X8609498Y9681200D01*
Y9747546D01*
X8617451Y9749677D01*
X8637449Y9761223D01*
X8653777Y9777551D01*
X8665323Y9797549D01*
X8671300Y9819854D01*
Y9842946D01*
X8665323Y9865251D01*
X8653777Y9885249D01*
X8637449Y9901577D01*
X8617451Y9913123D01*
X8612413Y9914473D01*
X8612413Y9935179D01*
X8622353Y9937842D01*
X8645247Y9951060D01*
X8663940Y9969753D01*
X8677158Y9992647D01*
X8684000Y10018182D01*
Y10018700D01*
X8583600D01*
Y10031400D01*
X8570900D01*
Y10131800D01*
X8570382D01*
X8544847Y10124958D01*
X8521953Y10111740D01*
X8503260Y10093047D01*
X8490042Y10070153D01*
X8487379Y10060213D01*
X8466673Y10060213D01*
X8465323Y10065251D01*
X8453777Y10085249D01*
X8437449Y10101577D01*
X8417451Y10113123D01*
X8395146Y10119100D01*
X8372054D01*
X8349749Y10113123D01*
X8329751Y10101577D01*
X8313423Y10085249D01*
X8301877Y10065251D01*
X8299960Y10058098D01*
X8234234D01*
X8234093Y10058808D01*
X8227971Y10067971D01*
X8218808Y10074093D01*
X8208000Y10076243D01*
X8163000D01*
X8152192Y10074093D01*
X8143029Y10067971D01*
X8138894Y10061781D01*
X8128000Y10060145D01*
X8117106Y10061781D01*
X8112971Y10067971D01*
X8103808Y10074093D01*
X8093000Y10076243D01*
X8048000D01*
X8037192Y10074093D01*
X8028029Y10067971D01*
X8021907Y10058808D01*
X8021607Y10057298D01*
X7860927D01*
X7569943Y10348282D01*
X7582692Y10363817D01*
X7585269Y10362095D01*
X7589237Y10359444D01*
X7605000Y10356308D01*
X7607300D01*
Y10407301D01*
X7563809D01*
Y10397500D01*
X7566944Y10381737D01*
X7569595Y10377769D01*
X7571317Y10375192D01*
X7555782Y10362443D01*
X7460512Y10457712D01*
X7452111Y10463326D01*
X7442200Y10465298D01*
X7275127D01*
X7028712Y10711712D01*
X7020311Y10717326D01*
X7010400Y10719298D01*
X6321476D01*
X6318570Y10727919D01*
X6318149Y10739298D01*
X6321837Y10741762D01*
X6326164Y10748237D01*
X6327683Y10755875D01*
Y10889125D01*
X6326164Y10896763D01*
X6321837Y10903238D01*
X6315363Y10907564D01*
X6307725Y10909084D01*
D02*
G37*
G36*
X5277333Y10890828D02*
X5275033D01*
X5259269Y10887692D01*
X5245906Y10878763D01*
X5236977Y10865400D01*
X5233841Y10849637D01*
Y10845337D01*
X5277333D01*
Y10890828D01*
D02*
G37*
G36*
Y10819937D02*
X5233841D01*
Y10815637D01*
X5236977Y10799873D01*
X5245906Y10786510D01*
X5259269Y10777581D01*
X5275033Y10774445D01*
X5277333D01*
Y10819937D01*
D02*
G37*
G36*
X5486400Y10713491D02*
X5484100D01*
X5468337Y10710356D01*
X5454973Y10701427D01*
X5446044Y10688063D01*
X5442909Y10672300D01*
Y10668000D01*
X5486400D01*
Y10713491D01*
D02*
G37*
G36*
Y10642600D02*
X5442909D01*
Y10638300D01*
X5446044Y10622537D01*
X5454973Y10609173D01*
X5468337Y10600244D01*
X5484100Y10597109D01*
X5486400D01*
Y10642600D01*
D02*
G37*
G36*
X7761300Y11030200D02*
X7697809D01*
Y11027900D01*
X7700944Y11012137D01*
X7709873Y10998773D01*
X7712629Y10996932D01*
X7712870Y10989811D01*
X7708884Y10975380D01*
X7697604Y10970708D01*
X7685592Y10958696D01*
X7679091Y10943002D01*
Y10926015D01*
X7682907Y10916803D01*
Y10845663D01*
X7678429Y10842671D01*
X7672307Y10833508D01*
X7670157Y10822700D01*
Y10792700D01*
X7672307Y10781892D01*
X7678429Y10772729D01*
X7687592Y10766607D01*
X7698400Y10764457D01*
X7743400D01*
X7754208Y10766607D01*
X7763371Y10772729D01*
X7767506Y10778919D01*
X7778400Y10780555D01*
X7789294Y10778919D01*
X7793429Y10772729D01*
X7802592Y10766607D01*
X7813400Y10764457D01*
X7858400D01*
X7869208Y10766607D01*
X7878371Y10772729D01*
X7884433Y10781802D01*
X7933033D01*
X7934507Y10774392D01*
X7940629Y10765229D01*
X7946819Y10761094D01*
X7948455Y10750200D01*
X7946819Y10739306D01*
X7940629Y10735171D01*
X7934507Y10726008D01*
X7932357Y10715200D01*
Y10670200D01*
X7934507Y10659392D01*
X7940629Y10650229D01*
X7948902Y10644702D01*
Y10489243D01*
X7939000D01*
X7928192Y10487093D01*
X7919029Y10480971D01*
X7912907Y10471808D01*
X7910757Y10461000D01*
Y10431000D01*
X7912907Y10420192D01*
X7919029Y10411029D01*
X7928192Y10404907D01*
X7939000Y10402757D01*
X8009000D01*
X8019808Y10404907D01*
X8028971Y10411029D01*
X8035093Y10420192D01*
X8037243Y10431000D01*
Y10461000D01*
X8035093Y10471808D01*
X8028971Y10480971D01*
X8019808Y10487093D01*
X8009000Y10489243D01*
X8000697D01*
Y10643966D01*
X8001408Y10644107D01*
X8010571Y10650229D01*
X8016693Y10659392D01*
X8018843Y10670200D01*
Y10715200D01*
X8016693Y10726008D01*
X8010571Y10735171D01*
X8004381Y10739306D01*
X8002745Y10750200D01*
X8004381Y10761094D01*
X8010571Y10765229D01*
X8016693Y10774392D01*
X8018120Y10781564D01*
X8132578D01*
Y10772298D01*
X8136275Y10753716D01*
X8146801Y10737963D01*
X8162554Y10727437D01*
X8181136Y10723741D01*
X8239327D01*
Y10683133D01*
X8230254Y10677070D01*
X8224132Y10667908D01*
X8221982Y10657100D01*
Y10612099D01*
X8224132Y10601291D01*
X8226699Y10597450D01*
X8229737Y10590681D01*
X8223318Y10572709D01*
X8221098Y10571226D01*
X8212169Y10557863D01*
X8209034Y10542100D01*
Y10532298D01*
X8265225D01*
X8321416D01*
Y10542100D01*
X8318281Y10557863D01*
X8309352Y10571226D01*
X8307132Y10572709D01*
X8300713Y10590681D01*
X8303751Y10597450D01*
X8306318Y10601291D01*
X8308468Y10612099D01*
Y10657100D01*
X8306318Y10667908D01*
X8300196Y10677070D01*
X8291123Y10683133D01*
Y10723741D01*
X8339886D01*
X8358469Y10727437D01*
X8374222Y10737963D01*
X8384748Y10753716D01*
X8388444Y10772298D01*
Y10842148D01*
X8384748Y10860731D01*
X8374222Y10876484D01*
X8358469Y10887010D01*
X8339886Y10890706D01*
X8181136D01*
X8162554Y10887010D01*
X8146801Y10876484D01*
X8136275Y10860731D01*
X8132578Y10842148D01*
Y10833359D01*
X8018214D01*
X8016693Y10841008D01*
X8010571Y10850171D01*
X8001408Y10856293D01*
X7990600Y10858443D01*
X7960600D01*
X7949792Y10856293D01*
X7940629Y10850171D01*
X7934507Y10841008D01*
X7933033Y10833598D01*
X7884433D01*
X7878371Y10842671D01*
X7869208Y10848793D01*
X7858400Y10850943D01*
X7813400D01*
X7802592Y10848793D01*
X7793429Y10842671D01*
X7789294Y10836481D01*
X7778400Y10834845D01*
X7767506Y10836481D01*
X7763371Y10842671D01*
X7759784Y10845067D01*
Y10914652D01*
X7764491Y10926015D01*
Y10943002D01*
X7757990Y10958696D01*
X7749978Y10966709D01*
X7755250Y10985351D01*
X7756109Y10986709D01*
X7761300D01*
Y11030200D01*
D02*
G37*
G36*
X6574394Y10850400D02*
X6557406D01*
X6541713Y10843899D01*
X6529701Y10831887D01*
X6523200Y10816194D01*
Y10799206D01*
X6529701Y10783513D01*
X6541713Y10771501D01*
X6557406Y10765000D01*
X6574394D01*
X6590087Y10771501D01*
X6600389Y10781802D01*
X7025073D01*
X7290658Y10516218D01*
X7299059Y10510604D01*
X7308970Y10508633D01*
X7326975D01*
X7333037Y10499559D01*
X7342200Y10493437D01*
X7353008Y10491287D01*
X7398008D01*
X7408816Y10493437D01*
X7417979Y10499559D01*
X7422114Y10505749D01*
X7433008Y10507385D01*
X7443901Y10505749D01*
X7448037Y10499559D01*
X7457200Y10493437D01*
X7468008Y10491287D01*
X7513008D01*
X7523816Y10493437D01*
X7532979Y10499559D01*
X7539101Y10508722D01*
X7539130Y10508867D01*
X7577480D01*
X7578907Y10501692D01*
X7581474Y10497851D01*
X7584512Y10491082D01*
X7578093Y10473110D01*
X7575873Y10471627D01*
X7566944Y10458263D01*
X7563809Y10442500D01*
Y10432701D01*
X7620000D01*
X7676191D01*
Y10442500D01*
X7673056Y10458263D01*
X7664127Y10471627D01*
X7661907Y10473110D01*
X7655488Y10491082D01*
X7658526Y10497851D01*
X7661093Y10501692D01*
X7663164Y10512102D01*
X7714971D01*
X7719029Y10506029D01*
X7728192Y10499907D01*
X7739000Y10497757D01*
X7809000D01*
X7819808Y10499907D01*
X7828971Y10506029D01*
X7835093Y10515192D01*
X7837243Y10526000D01*
Y10556000D01*
X7835093Y10566808D01*
X7828971Y10575971D01*
X7819808Y10582093D01*
X7809000Y10584243D01*
X7739000D01*
X7728192Y10582093D01*
X7719029Y10575971D01*
X7712907Y10566808D01*
X7712328Y10563898D01*
X7661970D01*
X7661093Y10568308D01*
X7654971Y10577471D01*
X7645808Y10583593D01*
X7635000Y10585743D01*
X7605000D01*
X7594192Y10583593D01*
X7585029Y10577471D01*
X7578907Y10568308D01*
X7577386Y10560663D01*
X7538884D01*
X7532979Y10569501D01*
X7523816Y10575623D01*
X7513008Y10577773D01*
X7468008D01*
X7457200Y10575623D01*
X7448037Y10569501D01*
X7443901Y10563311D01*
X7433008Y10561676D01*
X7422114Y10563311D01*
X7417979Y10569501D01*
X7408816Y10575623D01*
X7398008Y10577773D01*
X7353008D01*
X7342200Y10575623D01*
X7333037Y10569501D01*
X7310053Y10570072D01*
X7054112Y10826012D01*
X7045711Y10831626D01*
X7035800Y10833598D01*
X6600389D01*
X6590087Y10843899D01*
X6574394Y10850400D01*
D02*
G37*
G36*
X4574300Y10499891D02*
X4572000D01*
Y10456400D01*
X4615491D01*
Y10458700D01*
X4612356Y10474463D01*
X4603427Y10487827D01*
X4590063Y10496756D01*
X4574300Y10499891D01*
D02*
G37*
G36*
X4546600D02*
X4544300D01*
X4528537Y10496756D01*
X4515173Y10487827D01*
X4506244Y10474463D01*
X4503109Y10458700D01*
Y10456400D01*
X4546600D01*
Y10499891D01*
D02*
G37*
G36*
X8321416Y10506898D02*
X8277925D01*
Y10455908D01*
X8280225D01*
X8295988Y10459044D01*
X8309352Y10467973D01*
X8318281Y10481336D01*
X8321416Y10497099D01*
Y10506898D01*
D02*
G37*
G36*
X8252525D02*
X8209034D01*
Y10497099D01*
X8212169Y10481336D01*
X8221098Y10467973D01*
X8234462Y10459044D01*
X8250225Y10455908D01*
X8252525D01*
Y10506898D01*
D02*
G37*
G36*
X4615491Y10431000D02*
X4572000D01*
Y10387509D01*
X4574300D01*
X4590063Y10390644D01*
X4603427Y10399573D01*
X4612356Y10412937D01*
X4615491Y10428700D01*
Y10431000D01*
D02*
G37*
G36*
X4546600D02*
X4503109D01*
Y10428700D01*
X4506244Y10412937D01*
X4515173Y10399573D01*
X4528537Y10390644D01*
X4544300Y10387509D01*
X4546600D01*
Y10431000D01*
D02*
G37*
G36*
X7809000Y10407191D02*
X7786700D01*
Y10363700D01*
X7850191D01*
Y10366000D01*
X7847056Y10381763D01*
X7838127Y10395127D01*
X7824763Y10404056D01*
X7809000Y10407191D01*
D02*
G37*
G36*
X7761300D02*
X7739000D01*
X7723237Y10404056D01*
X7709873Y10395127D01*
X7700944Y10381763D01*
X7697809Y10366000D01*
Y10363700D01*
X7761300D01*
Y10407191D01*
D02*
G37*
G36*
X7676191Y10407301D02*
X7632700D01*
Y10356308D01*
X7635000D01*
X7650763Y10359444D01*
X7664127Y10368373D01*
X7673056Y10381737D01*
X7676191Y10397500D01*
Y10407301D01*
D02*
G37*
G36*
X7850191Y10338300D02*
X7786700D01*
Y10294808D01*
X7809000D01*
X7824763Y10297944D01*
X7838127Y10306873D01*
X7847056Y10320237D01*
X7850191Y10336000D01*
Y10338300D01*
D02*
G37*
G36*
X7761300D02*
X7697809D01*
Y10336000D01*
X7700944Y10320237D01*
X7709873Y10306873D01*
X7723237Y10297944D01*
X7739000Y10294808D01*
X7761300D01*
Y10338300D01*
D02*
G37*
G36*
X9451702Y11266112D02*
X9415233Y11261310D01*
X9381249Y11247234D01*
X9352066Y11224841D01*
X9329674Y11195659D01*
X9315598Y11161675D01*
X9310796Y11125206D01*
Y10943279D01*
X9244547Y10877029D01*
X9061511D01*
X9052353Y10875823D01*
X8582312D01*
Y10281424D01*
X9225711D01*
Y10595218D01*
X9302912D01*
X9339381Y10600019D01*
X9373365Y10614096D01*
X9402547Y10636488D01*
X9551337Y10785278D01*
X9573729Y10814461D01*
X9587806Y10848444D01*
X9592607Y10884913D01*
X9592607Y10884915D01*
Y11125206D01*
X9587806Y11161675D01*
X9573729Y11195659D01*
X9551337Y11224841D01*
X9522154Y11247234D01*
X9488171Y11261310D01*
X9451702Y11266112D01*
D02*
G37*
G36*
X4307906Y10323400D02*
X4305300D01*
Y10180700D01*
X4448000D01*
Y10183306D01*
X4442028Y10213329D01*
X4430314Y10241609D01*
X4413307Y10267062D01*
X4391662Y10288707D01*
X4366209Y10305714D01*
X4337929Y10317428D01*
X4307906Y10323400D01*
D02*
G37*
G36*
X4279900D02*
X4277294D01*
X4247271Y10317428D01*
X4218991Y10305714D01*
X4193538Y10288707D01*
X4171893Y10267062D01*
X4154886Y10241609D01*
X4143172Y10213329D01*
X4137200Y10183306D01*
Y10180700D01*
X4279900D01*
Y10323400D01*
D02*
G37*
G36*
X7390451Y10198100D02*
X7277100D01*
Y10084749D01*
X7314400D01*
X7334084Y10087341D01*
X7352425Y10094938D01*
X7368176Y10107024D01*
X7380262Y10122775D01*
X7387859Y10141116D01*
X7390451Y10160800D01*
Y10198100D01*
D02*
G37*
G36*
X8596818Y10131800D02*
X8596300D01*
Y10044100D01*
X8684000D01*
Y10044618D01*
X8677158Y10070153D01*
X8663940Y10093047D01*
X8645247Y10111740D01*
X8622353Y10124958D01*
X8596818Y10131800D01*
D02*
G37*
G36*
X4448000Y10155300D02*
X4305300D01*
Y10012600D01*
X4307906D01*
X4337929Y10018572D01*
X4366209Y10030286D01*
X4391662Y10047293D01*
X4413307Y10068938D01*
X4430314Y10094391D01*
X4442028Y10122671D01*
X4448000Y10152694D01*
Y10155300D01*
D02*
G37*
G36*
X4279900D02*
X4137200D01*
Y10152694D01*
X4143172Y10122671D01*
X4154886Y10094391D01*
X4171893Y10068938D01*
X4193538Y10047293D01*
X4218991Y10030286D01*
X4247271Y10018572D01*
X4277294Y10012600D01*
X4279900D01*
Y10155300D01*
D02*
G37*
G36*
X6145000Y9543091D02*
X6142700D01*
Y9499600D01*
X6186191D01*
Y9501900D01*
X6183056Y9517663D01*
X6174127Y9531027D01*
X6160763Y9539956D01*
X6145000Y9543091D01*
D02*
G37*
G36*
X8325100D02*
X8322799D01*
Y9499600D01*
X8366291D01*
Y9501900D01*
X8363156Y9517663D01*
X8354227Y9531027D01*
X8340863Y9539956D01*
X8325100Y9543091D01*
D02*
G37*
G36*
X7207500D02*
X7205199D01*
Y9499600D01*
X7248691D01*
Y9501900D01*
X7245556Y9517663D01*
X7236627Y9531027D01*
X7223263Y9539956D01*
X7207500Y9543091D01*
D02*
G37*
G36*
X5061200D02*
X5058899D01*
Y9499600D01*
X5102391D01*
Y9501900D01*
X5099256Y9517663D01*
X5090327Y9531027D01*
X5076963Y9539956D01*
X5061200Y9543091D01*
D02*
G37*
G36*
X8297399D02*
X8295100D01*
X8279337Y9539956D01*
X8265973Y9531027D01*
X8257044Y9517663D01*
X8253909Y9501900D01*
Y9499600D01*
X8297399D01*
Y9543091D01*
D02*
G37*
G36*
X7179799D02*
X7177500D01*
X7161737Y9539956D01*
X7148373Y9531027D01*
X7139444Y9517663D01*
X7136309Y9501900D01*
Y9499600D01*
X7179799D01*
Y9543091D01*
D02*
G37*
G36*
X5033499D02*
X5031200D01*
X5015437Y9539956D01*
X5002073Y9531027D01*
X4993144Y9517663D01*
X4990009Y9501900D01*
Y9499600D01*
X5033499D01*
Y9543091D01*
D02*
G37*
G36*
X6117300D02*
X6115000D01*
X6099237Y9539956D01*
X6085873Y9531027D01*
X6076944Y9517663D01*
X6073809Y9501900D01*
Y9499600D01*
X6117300D01*
Y9543091D01*
D02*
G37*
G36*
X7661046Y9622000D02*
X7637954D01*
X7615649Y9616023D01*
X7595651Y9604477D01*
X7579323Y9588149D01*
X7567777Y9568151D01*
X7561800Y9545846D01*
Y9522754D01*
X7567777Y9500449D01*
X7579323Y9480451D01*
X7595651Y9464123D01*
X7615649Y9452577D01*
X7637954Y9446600D01*
X7661046D01*
X7683351Y9452577D01*
X7703349Y9464123D01*
X7719677Y9480451D01*
X7731223Y9500449D01*
X7737200Y9522754D01*
Y9545846D01*
X7731223Y9568151D01*
X7719677Y9588149D01*
X7703349Y9604477D01*
X7683351Y9616023D01*
X7661046Y9622000D01*
D02*
G37*
G36*
X6961046D02*
X6937954D01*
X6915649Y9616023D01*
X6895651Y9604477D01*
X6879323Y9588149D01*
X6867777Y9568151D01*
X6861800Y9545846D01*
Y9522754D01*
X6867777Y9500449D01*
X6879323Y9480451D01*
X6895651Y9464123D01*
X6915649Y9452577D01*
X6937954Y9446600D01*
X6961046D01*
X6983351Y9452577D01*
X7003349Y9464123D01*
X7019677Y9480451D01*
X7031223Y9500449D01*
X7037200Y9522754D01*
Y9545846D01*
X7031223Y9568151D01*
X7019677Y9588149D01*
X7003349Y9604477D01*
X6983351Y9616023D01*
X6961046Y9622000D01*
D02*
G37*
G36*
X8771717Y9621400D02*
X8748625D01*
X8726320Y9615423D01*
X8706322Y9603877D01*
X8689994Y9587549D01*
X8678448Y9567551D01*
X8672471Y9545246D01*
Y9522154D01*
X8678448Y9499849D01*
X8689994Y9479851D01*
X8706322Y9463523D01*
X8726320Y9451977D01*
X8748625Y9446000D01*
X8771717D01*
X8794022Y9451977D01*
X8814020Y9463523D01*
X8830348Y9479851D01*
X8841894Y9499849D01*
X8847871Y9522154D01*
Y9545246D01*
X8841894Y9567551D01*
X8830348Y9587549D01*
X8814020Y9603877D01*
X8794022Y9615423D01*
X8771717Y9621400D01*
D02*
G37*
G36*
X8071717D02*
X8048625D01*
X8026320Y9615423D01*
X8006322Y9603877D01*
X7989994Y9587549D01*
X7978448Y9567551D01*
X7972471Y9545246D01*
Y9522154D01*
X7978448Y9499849D01*
X7989994Y9479851D01*
X8006322Y9463523D01*
X8026320Y9451977D01*
X8048625Y9446000D01*
X8071717D01*
X8094022Y9451977D01*
X8114020Y9463523D01*
X8130348Y9479851D01*
X8141894Y9499849D01*
X8147871Y9522154D01*
Y9545246D01*
X8141894Y9567551D01*
X8130348Y9587549D01*
X8114020Y9603877D01*
X8094022Y9615423D01*
X8071717Y9621400D01*
D02*
G37*
G36*
X6593646D02*
X6570554D01*
X6548249Y9615423D01*
X6528251Y9603877D01*
X6511923Y9587549D01*
X6500377Y9567551D01*
X6494400Y9545246D01*
Y9522154D01*
X6500377Y9499849D01*
X6511923Y9479851D01*
X6528251Y9463523D01*
X6548249Y9451977D01*
X6570554Y9446000D01*
X6593646D01*
X6615951Y9451977D01*
X6635949Y9463523D01*
X6652277Y9479851D01*
X6663823Y9499849D01*
X6669800Y9522154D01*
Y9545246D01*
X6663823Y9567551D01*
X6652277Y9587549D01*
X6635949Y9603877D01*
X6615951Y9615423D01*
X6593646Y9621400D01*
D02*
G37*
G36*
X5893646D02*
X5870554D01*
X5848249Y9615423D01*
X5828251Y9603877D01*
X5811923Y9587549D01*
X5800377Y9567551D01*
X5794400Y9545246D01*
Y9522154D01*
X5800377Y9499849D01*
X5811923Y9479851D01*
X5828251Y9463523D01*
X5848249Y9451977D01*
X5870554Y9446000D01*
X5893646D01*
X5915951Y9451977D01*
X5935949Y9463523D01*
X5952277Y9479851D01*
X5963823Y9499849D01*
X5969800Y9522154D01*
Y9545246D01*
X5963823Y9567551D01*
X5952277Y9587549D01*
X5935949Y9603877D01*
X5915951Y9615423D01*
X5893646Y9621400D01*
D02*
G37*
G36*
X5514146D02*
X5491054D01*
X5468749Y9615423D01*
X5448751Y9603877D01*
X5432423Y9587549D01*
X5420877Y9567551D01*
X5414900Y9545246D01*
Y9522154D01*
X5420877Y9499849D01*
X5432423Y9479851D01*
X5448751Y9463523D01*
X5468749Y9451977D01*
X5491054Y9446000D01*
X5514146D01*
X5536451Y9451977D01*
X5556449Y9463523D01*
X5572777Y9479851D01*
X5584323Y9499849D01*
X5590300Y9522154D01*
Y9545246D01*
X5584323Y9567551D01*
X5572777Y9587549D01*
X5556449Y9603877D01*
X5536451Y9615423D01*
X5514146Y9621400D01*
D02*
G37*
G36*
X4814146D02*
X4791054D01*
X4768749Y9615423D01*
X4748751Y9603877D01*
X4732423Y9587549D01*
X4720877Y9567551D01*
X4714900Y9545246D01*
Y9522154D01*
X4720877Y9499849D01*
X4732423Y9479851D01*
X4748751Y9463523D01*
X4768749Y9451977D01*
X4791054Y9446000D01*
X4814146D01*
X4836451Y9451977D01*
X4856449Y9463523D01*
X4872777Y9479851D01*
X4884323Y9499849D01*
X4890300Y9522154D01*
Y9545246D01*
X4884323Y9567551D01*
X4872777Y9587549D01*
X4856449Y9603877D01*
X4836451Y9615423D01*
X4814146Y9621400D01*
D02*
G37*
G36*
X8366291Y9474200D02*
X8322799D01*
Y9430709D01*
X8325100D01*
X8340863Y9433844D01*
X8354227Y9442773D01*
X8363156Y9456137D01*
X8366291Y9471900D01*
Y9474200D01*
D02*
G37*
G36*
X8297399D02*
X8253909D01*
Y9471900D01*
X8257044Y9456137D01*
X8265973Y9442773D01*
X8279337Y9433844D01*
X8295100Y9430709D01*
X8297399D01*
Y9474200D01*
D02*
G37*
G36*
X7248691D02*
X7205199D01*
Y9430709D01*
X7207500D01*
X7223263Y9433844D01*
X7236627Y9442773D01*
X7245556Y9456137D01*
X7248691Y9471900D01*
Y9474200D01*
D02*
G37*
G36*
X7179799D02*
X7136309D01*
Y9471900D01*
X7139444Y9456137D01*
X7148373Y9442773D01*
X7161737Y9433844D01*
X7177500Y9430709D01*
X7179799D01*
Y9474200D01*
D02*
G37*
G36*
X6186191D02*
X6142700D01*
Y9430709D01*
X6145000D01*
X6160763Y9433844D01*
X6174127Y9442773D01*
X6183056Y9456137D01*
X6186191Y9471900D01*
Y9474200D01*
D02*
G37*
G36*
X6117300D02*
X6073809D01*
Y9471900D01*
X6076944Y9456137D01*
X6085873Y9442773D01*
X6099237Y9433844D01*
X6115000Y9430709D01*
X6117300D01*
Y9474200D01*
D02*
G37*
G36*
X5102391D02*
X5058899D01*
Y9430709D01*
X5061200D01*
X5076963Y9433844D01*
X5090327Y9442773D01*
X5099256Y9456137D01*
X5102391Y9471900D01*
Y9474200D01*
D02*
G37*
G36*
X5033499D02*
X4990009D01*
Y9471900D01*
X4993144Y9456137D01*
X5002073Y9442773D01*
X5015437Y9433844D01*
X5031200Y9430709D01*
X5033499D01*
Y9474200D01*
D02*
G37*
G36*
X7087718Y9384700D02*
X7087200D01*
Y9297000D01*
X7174900D01*
Y9297518D01*
X7168058Y9323053D01*
X7154840Y9345947D01*
X7136147Y9364640D01*
X7113253Y9377858D01*
X7087718Y9384700D01*
D02*
G37*
G36*
X7061800D02*
X7061282D01*
X7035747Y9377858D01*
X7012853Y9364640D01*
X6994160Y9345947D01*
X6980942Y9323053D01*
X6974100Y9297518D01*
Y9297000D01*
X7061800D01*
Y9384700D01*
D02*
G37*
G36*
X8198389Y9384100D02*
X8197871D01*
Y9296400D01*
X8285571D01*
Y9296918D01*
X8278729Y9322453D01*
X8265511Y9345347D01*
X8246818Y9364040D01*
X8223924Y9377258D01*
X8198389Y9384100D01*
D02*
G37*
G36*
X8172471D02*
X8171953D01*
X8146418Y9377258D01*
X8123524Y9364040D01*
X8104831Y9345347D01*
X8091613Y9322453D01*
X8084771Y9296918D01*
Y9296400D01*
X8172471D01*
Y9384100D01*
D02*
G37*
G36*
X6020318D02*
X6019800D01*
Y9296400D01*
X6107500D01*
Y9296918D01*
X6100658Y9322453D01*
X6087440Y9345347D01*
X6068747Y9364040D01*
X6045853Y9377258D01*
X6020318Y9384100D01*
D02*
G37*
G36*
X5994400D02*
X5993882D01*
X5968347Y9377258D01*
X5945453Y9364040D01*
X5926760Y9345347D01*
X5913542Y9322453D01*
X5906700Y9296918D01*
Y9296400D01*
X5994400D01*
Y9384100D01*
D02*
G37*
G36*
X4940818D02*
X4940300D01*
Y9296400D01*
X5028000D01*
Y9296918D01*
X5021158Y9322453D01*
X5007940Y9345347D01*
X4989247Y9364040D01*
X4966353Y9377258D01*
X4940818Y9384100D01*
D02*
G37*
G36*
X4914900D02*
X4914382D01*
X4888847Y9377258D01*
X4865953Y9364040D01*
X4847260Y9345347D01*
X4834042Y9322453D01*
X4827200Y9296918D01*
Y9296400D01*
X4914900D01*
Y9384100D01*
D02*
G37*
G36*
X9381834Y9646100D02*
X9337966D01*
X9294941Y9637542D01*
X9254412Y9620754D01*
X9217937Y9596382D01*
X9186918Y9565363D01*
X9162546Y9528888D01*
X9145758Y9488359D01*
X9137200Y9445334D01*
Y9401466D01*
X9145758Y9358441D01*
X9162546Y9317912D01*
X9186918Y9281437D01*
X9217937Y9250418D01*
X9254412Y9226046D01*
X9294941Y9209258D01*
X9337966Y9200700D01*
X9381834D01*
X9424859Y9209258D01*
X9465388Y9226046D01*
X9501863Y9250418D01*
X9532882Y9281437D01*
X9557254Y9317912D01*
X9574042Y9358441D01*
X9582600Y9401466D01*
Y9445334D01*
X9574042Y9488359D01*
X9557254Y9528888D01*
X9532882Y9565363D01*
X9501863Y9596382D01*
X9465388Y9620754D01*
X9424859Y9637542D01*
X9381834Y9646100D01*
D02*
G37*
G36*
X4238334D02*
X4194466D01*
X4151441Y9637542D01*
X4110912Y9620754D01*
X4074437Y9596382D01*
X4043418Y9565363D01*
X4019046Y9528888D01*
X4002258Y9488359D01*
X3993700Y9445334D01*
Y9401466D01*
X4002258Y9358441D01*
X4019046Y9317912D01*
X4043418Y9281437D01*
X4074437Y9250418D01*
X4110912Y9226046D01*
X4151441Y9209258D01*
X4194466Y9200700D01*
X4238334D01*
X4281359Y9209258D01*
X4321888Y9226046D01*
X4358363Y9250418D01*
X4389382Y9281437D01*
X4413754Y9317912D01*
X4430542Y9358441D01*
X4439100Y9401466D01*
Y9445334D01*
X4430542Y9488359D01*
X4413754Y9528888D01*
X4389382Y9565363D01*
X4358363Y9596382D01*
X4321888Y9620754D01*
X4281359Y9637542D01*
X4238334Y9646100D01*
D02*
G37*
%LPD*%
G36*
X5686517Y10755875D02*
X5688036Y10748237D01*
X5692363Y10741762D01*
X5698837Y10737436D01*
X5706475Y10735917D01*
X5747725D01*
X5755363Y10737436D01*
X5756219Y10738008D01*
X5774382Y10730759D01*
X5776219Y10729148D01*
Y10588659D01*
X5759824Y10579597D01*
X5755250Y10583684D01*
X5753259Y10586663D01*
X5739896Y10595592D01*
X5724133Y10598728D01*
X5721833D01*
Y10540537D01*
Y10482345D01*
X5724133D01*
X5739896Y10485481D01*
X5751235Y10493058D01*
X5760525Y10490733D01*
X5771235Y10485314D01*
Y10371874D01*
X5751235Y10363590D01*
X5612998Y10501827D01*
Y10612267D01*
X5622071Y10618329D01*
X5628193Y10627492D01*
X5630343Y10638300D01*
Y10672300D01*
X5628193Y10683108D01*
X5622071Y10692271D01*
X5612998Y10698333D01*
Y10745273D01*
X5664327Y10796602D01*
X5686517D01*
Y10755875D01*
D02*
G37*
G36*
X6021202Y10725486D02*
Y10666100D01*
X6023174Y10656190D01*
X6028788Y10647788D01*
X6055968Y10620607D01*
X6064202Y10602055D01*
X6058080Y10592893D01*
X6055930Y10582085D01*
Y10552085D01*
X6058080Y10541277D01*
X6064202Y10532114D01*
X6058025Y10525202D01*
X6055046Y10523211D01*
X6046117Y10509848D01*
X6042981Y10494085D01*
Y10491785D01*
X6101172D01*
Y10479085D01*
X6113872D01*
Y10422893D01*
X6118172D01*
X6133936Y10426029D01*
X6147299Y10434958D01*
X6156228Y10448321D01*
X6157962Y10457035D01*
X6177961Y10455065D01*
Y10429313D01*
X6180111Y10418505D01*
X6186233Y10409342D01*
X6195396Y10403220D01*
X6206204Y10401070D01*
X6236204D01*
X6247012Y10403220D01*
X6256175Y10409342D01*
X6258869Y10413374D01*
X6298912D01*
X6298913Y10413374D01*
X6313623Y10416300D01*
X6326093Y10424633D01*
X6390583Y10489123D01*
X6436414D01*
X6444698Y10469123D01*
X6313873Y10338298D01*
X6081327D01*
X5992998Y10426627D01*
Y10724726D01*
X6012998Y10733299D01*
X6021202Y10725486D01*
D02*
G37*
%LPC*%
G36*
X5696433Y10598728D02*
X5694133D01*
X5678369Y10595592D01*
X5665006Y10586663D01*
X5656077Y10573300D01*
X5652941Y10557537D01*
Y10553237D01*
X5696433D01*
Y10598728D01*
D02*
G37*
G36*
Y10527837D02*
X5652941D01*
Y10523537D01*
X5656077Y10507773D01*
X5665006Y10494410D01*
X5678369Y10485481D01*
X5694133Y10482345D01*
X5696433D01*
Y10527837D01*
D02*
G37*
G36*
X6088472Y10466385D02*
X6042981D01*
Y10464085D01*
X6046117Y10448321D01*
X6055046Y10434958D01*
X6068409Y10426029D01*
X6084172Y10422893D01*
X6088472D01*
Y10466385D01*
D02*
G37*
G36*
X4912050Y13475613D02*
X4863300D01*
Y13385001D01*
X4995413D01*
Y13392250D01*
X4992573Y13413826D01*
X4984245Y13433931D01*
X4970997Y13451196D01*
X4953732Y13464444D01*
X4933626Y13472774D01*
X4912050Y13475613D01*
D02*
G37*
G36*
X4763300D02*
X4714550D01*
X4692974Y13472774D01*
X4672868Y13464444D01*
X4655603Y13451196D01*
X4642355Y13433931D01*
X4634027Y13413826D01*
X4631187Y13392250D01*
Y13385001D01*
X4763300D01*
Y13475613D01*
D02*
G37*
G36*
X4995413Y13285001D02*
X4863300D01*
Y13194386D01*
X4912050D01*
X4933626Y13197227D01*
X4953732Y13205556D01*
X4970997Y13218803D01*
X4984245Y13236069D01*
X4992573Y13256174D01*
X4995413Y13277750D01*
Y13285001D01*
D02*
G37*
G36*
X4763300D02*
X4631187D01*
Y13277750D01*
X4634027Y13256174D01*
X4642355Y13236069D01*
X4655603Y13218803D01*
X4672868Y13205556D01*
X4692974Y13197227D01*
X4714550Y13194386D01*
X4763300D01*
Y13285001D01*
D02*
G37*
%LPD*%
D10*
X6350000Y9486900D02*
D03*
X6130000D02*
D03*
X8530100D02*
D03*
X8310100D02*
D03*
X5266200D02*
D03*
X5046200D02*
D03*
X7412500D02*
D03*
X7192500D02*
D03*
D11*
X8458000Y12687300D02*
D03*
X9144000D02*
D03*
D12*
X4813300Y13335001D02*
D03*
Y12649000D02*
D03*
D13*
X5511800Y12845700D02*
D03*
Y12960699D02*
D03*
X6221204Y10451813D02*
D03*
Y10566813D02*
D03*
X8265225Y10634600D02*
D03*
Y10519599D02*
D03*
X8266381Y12030905D02*
D03*
Y11915905D02*
D03*
X7975600Y10807700D02*
D03*
Y10692700D02*
D03*
X7620000Y10535000D02*
D03*
Y10420000D02*
D03*
X7620600Y11932000D02*
D03*
Y11817000D02*
D03*
X7975600Y11500200D02*
D03*
Y11385200D02*
D03*
X7620000Y11226800D02*
D03*
Y11111800D02*
D03*
X8265225Y11335284D02*
D03*
Y11220284D02*
D03*
X7975600Y12198700D02*
D03*
Y12083700D02*
D03*
X6311900Y10102500D02*
D03*
Y10217500D02*
D03*
D14*
X4559300Y10663700D02*
D03*
Y10443700D02*
D03*
D15*
X8070500Y9829800D02*
D03*
X8185500D02*
D03*
X8070500Y10033000D02*
D03*
X8185500D02*
D03*
X7490508Y10534530D02*
D03*
X7375508D02*
D03*
X7491583Y11229591D02*
D03*
X7376583D02*
D03*
X7489206Y11932889D02*
D03*
X7374206D02*
D03*
X7720900Y12204700D02*
D03*
X7835900D02*
D03*
X7720900Y11506200D02*
D03*
X7835900D02*
D03*
X7720900Y10807700D02*
D03*
X7835900D02*
D03*
X7525100Y9766300D02*
D03*
X7410100D02*
D03*
X5378800D02*
D03*
X5263800D02*
D03*
X6864700Y10388600D02*
D03*
X6749700D02*
D03*
X6458300Y9766300D02*
D03*
X6343300D02*
D03*
D16*
X6686067Y11316163D02*
D03*
X6598067D02*
D03*
X5290033Y10832637D02*
D03*
X5378033D02*
D03*
X6686067Y11163763D02*
D03*
X6598067D02*
D03*
X5709133Y10540537D02*
D03*
X5797133D02*
D03*
X5499100Y10655300D02*
D03*
X5587100D02*
D03*
X5290033Y11277137D02*
D03*
X5378033D02*
D03*
X5290033Y11442237D02*
D03*
X5378033D02*
D03*
X6737833Y12051837D02*
D03*
X6825833D02*
D03*
X6584467Y12052763D02*
D03*
X6496467D02*
D03*
D17*
X6101172Y10479085D02*
D03*
Y10567085D02*
D03*
X5244637Y11131067D02*
D03*
Y11043067D02*
D03*
D18*
X5372100Y11671300D02*
D03*
X5212100D02*
D03*
X4983500Y12293600D02*
D03*
X5143500D02*
D03*
D19*
X5372100Y11870700D02*
D03*
Y12030700D02*
D03*
X5022482Y12063959D02*
D03*
Y11903959D02*
D03*
D20*
X8260511Y10807223D02*
D03*
Y10350023D02*
D03*
Y11506200D02*
D03*
Y11049000D02*
D03*
Y12204700D02*
D03*
Y11747500D02*
D03*
D21*
X8904011Y10578623D02*
D03*
Y11277600D02*
D03*
Y11976100D02*
D03*
D22*
X7974000Y10446000D02*
D03*
X7774000Y10351000D02*
D03*
Y10541000D02*
D03*
X7974000Y11137900D02*
D03*
X7774000Y11042900D02*
D03*
Y11232900D02*
D03*
X7974000Y11836400D02*
D03*
X7774000Y11741400D02*
D03*
Y11931400D02*
D03*
D23*
X6287100Y11656500D02*
D03*
X6207100D02*
D03*
X6127100D02*
D03*
X6047100D02*
D03*
X5967100D02*
D03*
X5887100D02*
D03*
X5807100D02*
D03*
X5727100D02*
D03*
Y10822500D02*
D03*
X5807100D02*
D03*
X5887100D02*
D03*
X5967100D02*
D03*
X6047100D02*
D03*
X6127100D02*
D03*
X6207100D02*
D03*
X6287100D02*
D03*
D24*
X6424100Y10959500D02*
D03*
Y11039500D02*
D03*
Y11119500D02*
D03*
Y11199500D02*
D03*
Y11279500D02*
D03*
Y11359500D02*
D03*
Y11439500D02*
D03*
Y11519500D02*
D03*
X5590100D02*
D03*
Y11439500D02*
D03*
Y11359500D02*
D03*
Y11279500D02*
D03*
Y11199500D02*
D03*
Y11119500D02*
D03*
Y11039500D02*
D03*
Y10959500D02*
D03*
D25*
X4749600Y11836000D02*
D03*
Y12065000D02*
D03*
Y12294000D02*
D03*
D26*
X4089600Y12065000D02*
D03*
D27*
X6179800Y12395200D02*
D03*
X7129800D02*
D03*
D28*
X7623000Y10538000D02*
X7771000D01*
X7774000Y10541000D01*
X7620000Y10535000D02*
X7623000Y10538000D01*
X5372100Y12030700D02*
Y12249500D01*
X5479700Y12357100D02*
X5511800D01*
X5372100Y12249500D02*
X5479700Y12357100D01*
X5511800Y12611100D02*
Y12845700D01*
X4559300Y10663700D02*
X4656600D01*
X5035967Y11043067D02*
X5244637D01*
X4656600Y10663700D02*
X5035967Y11043067D01*
X4557150Y10665850D02*
X4559300Y10663700D01*
X4292600Y10668000D02*
X4294750Y10665850D01*
X4557150D01*
X8068900Y10031400D02*
X8070500Y10033000D01*
X7850200Y10031400D02*
X8068900D01*
X7997918Y9829800D02*
X8070500D01*
X7426418Y10401300D02*
X7997918Y9829800D01*
X8186300Y9830600D02*
X8382800D01*
X8383600Y9831400D01*
X8185500Y9829800D02*
X8186300Y9830600D01*
X8186300Y10032200D02*
X8382800D01*
X8185500Y10033000D02*
X8186300Y10032200D01*
X8382800D02*
X8383600Y10031400D01*
X7404100Y10363200D02*
X8064500Y9702800D01*
X8455000D01*
X8530100Y9627700D01*
X8583600Y9681200D02*
Y9831400D01*
X8530100Y9627700D02*
X8583600Y9681200D01*
X8530100Y9486900D02*
Y9627700D01*
Y9486900D02*
X8534400Y9482600D01*
Y9384471D02*
Y9482600D01*
Y9384471D02*
X8635171Y9283700D01*
X5378033Y9766300D02*
Y10832637D01*
X5266200Y9571500D02*
X5378800Y9684100D01*
Y9766300D01*
X5266200Y9486900D02*
Y9571500D01*
Y9395100D02*
Y9486900D01*
Y9395100D02*
X5377600Y9283700D01*
X7525100Y9766300D02*
Y9848500D01*
X7429500Y9944100D02*
X7525100Y9848500D01*
X7412500Y9558800D02*
X7524500Y9670800D01*
Y9765700D01*
X7412500Y9486900D02*
Y9558800D01*
Y9395100D02*
X7523900Y9283700D01*
X7412500Y9395100D02*
Y9486900D01*
X6458300Y9766300D02*
Y9848500D01*
Y9671400D02*
Y9766300D01*
X6350000Y9563100D02*
X6458300Y9671400D01*
X6350000Y9486900D02*
Y9563100D01*
Y9390800D02*
Y9486900D01*
Y9390800D02*
X6457100Y9283700D01*
X7264400Y10439400D02*
X7442200D01*
X7850200Y10031400D01*
X7239000Y10401300D02*
X7426418D01*
X7223218Y10363200D02*
X7404100D01*
X6457100Y9283700D02*
X6457700Y9284300D01*
X8260511Y10807223D02*
X8265225Y10802510D01*
Y10634600D02*
Y10802510D01*
X6324600Y10312400D02*
X6477000Y10464800D01*
X5967100Y10415900D02*
X6070600Y10312400D01*
X6324600D01*
X5967100Y10415900D02*
Y10822500D01*
X6184900Y9893300D02*
X6413500D01*
X5587100Y10491100D02*
Y10655300D01*
Y10491100D02*
X6184900Y9893300D01*
X5797133Y10344567D02*
X6197600Y9944100D01*
X7429500D01*
X5797133Y10344567D02*
Y10540537D01*
X6235700Y10693400D02*
X7010400D01*
X7264400Y10439400D01*
X6988709Y10597709D02*
X7223218Y10363200D01*
X6997700Y10642600D02*
X7239000Y10401300D01*
X6737833Y12051837D02*
Y12313133D01*
X6819900Y12395200D02*
X7129800D01*
X6737833Y12313133D02*
X6819900Y12395200D01*
X6584467Y12052763D02*
Y12300433D01*
X6489700Y12395200D02*
X6584467Y12300433D01*
X6179800Y12395200D02*
X6489700D01*
X6101172Y10566400D02*
X6221204D01*
X6343209Y10597709D02*
X6988709D01*
X6312313Y10566813D02*
X6343209Y10597709D01*
X6221204Y10566813D02*
X6312313D01*
X7308970Y10534530D02*
X7375508D01*
X6565900Y10807700D02*
X7035800D01*
X6197600Y10642600D02*
X6997700D01*
X7035800Y10807700D02*
X7308970Y10534530D01*
X5333537Y11043067D02*
X5333537Y11043067D01*
X5244637Y11043067D02*
X5333537D01*
X5586533Y11043067D02*
X5590100Y11039500D01*
X5333537Y11043067D02*
X5586533D01*
X6207100Y11656500D02*
X6208700Y11654900D01*
Y11495100D02*
Y11654900D01*
Y11495100D02*
X6210300Y11493500D01*
X6413500Y9893300D02*
X6458300Y9848500D01*
X6207100Y10722000D02*
Y10822500D01*
Y10722000D02*
X6235700Y10693400D01*
X6127100Y10713100D02*
X6197600Y10642600D01*
X6095497Y10572076D02*
Y10617703D01*
X6047100Y10666100D02*
X6095497Y10617703D01*
X6047100Y10666100D02*
Y10822500D01*
X6095497Y10572076D02*
X6101172Y10566400D01*
X6127100Y10713100D02*
Y10822500D01*
X5587100Y10655300D02*
Y10756000D01*
X5653600Y10822500D01*
X5727100D01*
X5797133Y10540537D02*
X5802116Y10545520D01*
Y10817517D02*
X5807100Y10822500D01*
X5802116Y10545520D02*
Y10817517D01*
X7524500Y9765700D02*
X7525100Y9766300D01*
X7523900Y9283700D02*
X7524500Y9284300D01*
X6077300Y10216800D02*
X6311200D01*
X5887100Y10407000D02*
Y10822500D01*
Y10407000D02*
X6077300Y10216800D01*
X6477000Y10464800D02*
X6719863D01*
X6749700Y10434963D01*
Y10414000D02*
Y10434963D01*
Y10414000D02*
X6753050Y10410650D01*
Y10214150D02*
X6756400Y10210800D01*
X6753050Y10214150D02*
Y10410650D01*
X6311200Y10216800D02*
X6311900Y10217500D01*
X6499050Y10214150D02*
X6502400Y10210800D01*
X6315250Y10214150D02*
X6499050D01*
X6311900Y10217500D02*
X6315250Y10214150D01*
X7619765Y10534765D02*
X7620000Y10535000D01*
X7490743Y10534765D02*
X7619765D01*
X7490508Y10534530D02*
X7490743Y10534765D01*
X7492978Y11228195D02*
X7618605D01*
X7620000Y11226800D01*
X7491583Y11229591D02*
X7492978Y11228195D01*
X7051291Y11229591D02*
X7376583D01*
X6781200Y10959500D02*
X7051291Y11229591D01*
X7489950Y11932144D02*
X7773256D01*
X7244506Y11934054D02*
X7245089Y11933471D01*
X7373623D01*
X7374206Y11932889D01*
X7489206D02*
X7489950Y11932144D01*
X7620000Y11226800D02*
X7623050Y11229850D01*
X7770950D02*
X7774000Y11232900D01*
X7623050Y11229850D02*
X7770950D01*
X7975600Y10807700D02*
X7975838Y10807462D01*
X8260273D02*
X8260511Y10807223D01*
X7975838Y10807462D02*
X8260273D01*
X7835900Y10807700D02*
X7975600D01*
X7974000Y10446000D02*
X7974800Y10446800D01*
Y10691900D01*
X7975600Y10692700D01*
X7974000Y11836400D02*
X7974800Y11837200D01*
Y12082900D01*
X7975600Y12083700D01*
X7974800Y11384400D02*
X7975600Y11385200D01*
X7974000Y11137900D02*
X7974800Y11138700D01*
Y11384400D01*
X7835900Y11506200D02*
X8260511D01*
X8265225Y11335284D02*
Y11501486D01*
X8260511Y11506200D02*
X8265225Y11501486D01*
X8260511Y12204700D02*
X8265023Y12200188D01*
Y12032279D02*
Y12200188D01*
X7978600Y12201700D02*
X8257511D01*
X8260511Y12204700D01*
X7975600Y12198700D02*
X7978600Y12201700D01*
X7838900D02*
X7972600D01*
X7835900Y12204700D02*
X7838900Y12201700D01*
X7972600D02*
X7975600Y12198700D01*
X7773256Y11932144D02*
X7774000Y11931400D01*
X6424100Y10959500D02*
X6781200D01*
X6287100Y11798900D02*
X6375400Y11887200D01*
X6287100Y11656500D02*
Y11798900D01*
X5415700Y9283700D02*
X5416300Y9284300D01*
X5403600Y9765700D02*
X5404200Y9766300D01*
X5378033Y10832637D02*
Y10889833D01*
X5447700Y10959500D02*
X5590100D01*
X5378033Y10889833D02*
X5447700Y10959500D01*
X6424100Y11439500D02*
X6524600D01*
X6737833Y11652733D02*
Y12051837D01*
X6524600Y11439500D02*
X6737833Y11652733D01*
X6424100Y11519500D02*
Y11593000D01*
X6584467Y11753367D02*
Y12052763D01*
X6424100Y11593000D02*
X6584467Y11753367D01*
D29*
X4749800Y12293800D02*
X4983300D01*
X4983500Y12293600D01*
X4749600Y12294000D02*
X4749800Y12293800D01*
D30*
X4983500Y12293600D02*
X4988463Y12298563D01*
Y12426014D01*
X5372100Y12030700D02*
X5608347D01*
X5608926Y12031278D01*
X4749600Y12065000D02*
X5156200D01*
X5190500Y12030700D02*
X5372100D01*
X4635500Y12065000D02*
X4749600D01*
X4292600Y11168000D02*
Y11722100D01*
X4635500Y12065000D01*
X5156200D02*
X5190500Y12030700D01*
D31*
X7720900Y11607100D02*
X7721600Y11607800D01*
X7720900Y11506200D02*
Y11607100D01*
X7289800Y9766300D02*
X7410100D01*
X6248400D02*
X6343300D01*
X6597578Y11316652D02*
X6598067Y11317141D01*
X7721250Y12116150D02*
Y12204350D01*
X7720900Y12204700D02*
X7721250Y12204350D01*
X7720900Y12204700D02*
X7720995Y12204796D01*
X7721250Y12116150D02*
X7721600Y12115800D01*
X7721345Y10934063D02*
X7721791Y10934509D01*
X7720900Y10807700D02*
X7721345Y10808146D01*
Y10934063D01*
X6769839Y10527561D02*
X6823012Y10474388D01*
X7005814D01*
X6298913Y10451813D02*
X6374661Y10527561D01*
X6769839D01*
X5378033Y11277137D02*
X5379214Y11278318D01*
X5377901Y11277005D02*
X5378033Y11277137D01*
X6221204Y10451813D02*
X6298913D01*
X5377901Y11186469D02*
Y11277005D01*
X5377770Y11186338D02*
X5377901Y11186469D01*
X5588918Y11278318D02*
X5590100Y11279500D01*
X5379214Y11278318D02*
X5588918D01*
X6311900Y10007600D02*
Y10102500D01*
X5168900Y9766300D02*
X5263800D01*
X6864700Y10388600D02*
X7010400D01*
X6593067Y11170764D02*
X6598067Y11165764D01*
Y11163763D02*
Y11165764D01*
X6533036Y11170764D02*
X6593067D01*
X6426600Y11197000D02*
X6506800D01*
X6424100Y11199500D02*
X6426600Y11197000D01*
X6506800D02*
X6533036Y11170764D01*
X6598067Y11317141D02*
Y11318164D01*
Y11316163D02*
Y11317141D01*
X6598566Y11317640D02*
Y11408640D01*
Y11316662D02*
Y11317640D01*
X6598576Y11317649D01*
X6598067Y11317141D02*
X6598566Y11317640D01*
X6545736Y11323164D02*
X6593067D01*
X6598067Y11318164D01*
X6511900Y11357000D02*
X6545736Y11323164D01*
X6426600Y11357000D02*
X6511900D01*
X6424100Y11359500D02*
X6426600Y11357000D01*
X5372100Y11671300D02*
Y11870700D01*
X5375066Y11445203D02*
Y11668334D01*
X5372100Y11671300D02*
X5375066Y11668334D01*
Y11445203D02*
X5378033Y11442237D01*
X5588732Y11440868D02*
X5590100Y11439500D01*
X5379401Y11440868D02*
X5588732D01*
X5378033Y11442237D02*
X5379401Y11440868D01*
X6598058Y11070798D02*
Y11162776D01*
X6598067Y11163763D02*
X6598556Y11163274D01*
D32*
X9061511Y10736124D02*
X9302912D01*
X9451702Y10884913D02*
Y11125206D01*
X8904011Y10578623D02*
X9061511Y10736124D01*
X9302912D02*
X9451702Y10884913D01*
X9061511Y11435100D02*
X9380596D01*
X8904011Y11277600D02*
X9061511Y11435100D01*
X9380596D02*
X9451702Y11506206D01*
X8904011Y11976100D02*
X8992905Y11887206D01*
X9451702D01*
D33*
X4927600Y9283700D02*
D03*
X5377600D02*
D03*
X4802600Y9533700D02*
D03*
X5502600D02*
D03*
X7649500Y9534300D02*
D03*
X6949500D02*
D03*
X7524500Y9284300D02*
D03*
X7074500D02*
D03*
X8383600Y9831400D02*
D03*
Y10031400D02*
D03*
X8583600Y9831400D02*
D03*
Y10031400D02*
D03*
X6582100Y9533700D02*
D03*
X5882100D02*
D03*
X6457100Y9283700D02*
D03*
X6007100D02*
D03*
X8760171Y9533700D02*
D03*
X8060171D02*
D03*
X8635171Y9283700D02*
D03*
X8185171D02*
D03*
D34*
X6502400Y10210800D02*
D03*
X6756400D02*
D03*
X7010400D02*
D03*
D35*
X7264400D02*
D03*
D36*
X5511800Y12611100D02*
D03*
Y12357100D02*
D03*
D37*
X4216400Y9423400D02*
D03*
X9359900D02*
D03*
Y13627100D02*
D03*
X4216400D02*
D03*
D38*
X7975600Y13144501D02*
D03*
Y12894501D02*
D03*
D39*
X4343400Y12725400D02*
D03*
Y13106400D02*
D03*
X9451702Y11506206D02*
D03*
Y11887206D02*
D03*
Y12268206D02*
D03*
D40*
X4292600Y10168000D02*
D03*
Y10668000D02*
D03*
D41*
Y11168000D02*
D03*
D42*
X9451702Y11125206D02*
D03*
D43*
X6286500Y11379200D02*
D03*
X5740400Y11341100D02*
D03*
X5816600Y11137900D02*
D03*
Y11264900D02*
D03*
X6172200Y10960100D02*
D03*
X7467600Y10096500D02*
D03*
X7658100Y9906000D02*
D03*
X7594600Y9969500D02*
D03*
X7531100Y10033000D02*
D03*
X5016500Y11607800D02*
D03*
X4965700Y11671300D02*
D03*
X4914900Y11607800D02*
D03*
X4864100Y11671300D02*
D03*
X4813300Y11607800D02*
D03*
X4762500Y11671300D02*
D03*
X7327900Y12573000D02*
D03*
X6908800Y12687300D02*
D03*
X6400800D02*
D03*
X5981700Y12573000D02*
D03*
X7721600Y13322301D02*
D03*
X7289800Y9766300D02*
D03*
X6248400D02*
D03*
X5486400Y10528300D02*
D03*
Y10452100D02*
D03*
X8064500Y10299223D02*
D03*
X7988300D02*
D03*
X8064500Y10998200D02*
D03*
X7988300D02*
D03*
Y11696700D02*
D03*
X8064500D02*
D03*
X7874000Y10223023D02*
D03*
X7950200D02*
D03*
X8026400D02*
D03*
X8102600D02*
D03*
X7874000Y10922000D02*
D03*
X7950200D02*
D03*
X8026400D02*
D03*
X8102600D02*
D03*
Y11620500D02*
D03*
X8026400D02*
D03*
X7950200D02*
D03*
X7874000D02*
D03*
X6362700Y12052300D02*
D03*
X6946900D02*
D03*
X6807200Y11163300D02*
D03*
X6769100Y11430000D02*
D03*
X6807200Y11315700D02*
D03*
X6146800Y10375900D02*
D03*
X5143500Y11201400D02*
D03*
Y11353800D02*
D03*
Y11442700D02*
D03*
Y11277600D02*
D03*
X5740400Y11201400D02*
D03*
X6286500Y11277600D02*
D03*
Y11125200D02*
D03*
X5702300Y10655300D02*
D03*
X7721600Y12115800D02*
D03*
X7721091Y11606909D02*
D03*
X7721791Y10934509D02*
D03*
X7005814Y10474388D02*
D03*
X5377770Y11186338D02*
D03*
X6210300Y11493500D02*
D03*
X6565900Y10807700D02*
D03*
X6311900Y10007600D02*
D03*
X5168900Y9766300D02*
D03*
X7010400Y10388600D02*
D03*
X7244506Y11934054D02*
D03*
X6375400Y11887200D02*
D03*
X6599074Y11409148D02*
D03*
X6597550Y11070290D02*
D03*
D44*
X4988463Y12426014D02*
D03*
X5608926Y12031278D02*
D03*
%TF.MD5,3a491756bcaa573618496373c6ba605d*%
M02*
